<svg width="317" height="279" viewBox="0 0 317 279" fill="none" xmlns="http://www.w3.org/2000/svg">
<circle cx="122.621" cy="74.1324" r="73.1083" fill="url(#paint0_linear_2_658)" stroke="url(#paint1_linear_2_658)" stroke-width="2"/>
<mask id="mask0_2_658" style="mask-type:alpha" maskUnits="userSpaceOnUse" x="48" y="41" width="149" height="108">
<path d="M196.729 74.1325C196.729 115.061 163.549 148.241 122.621 148.241C81.6916 148.241 48.5122 115.061 48.5122 74.1325C48.5122 33.2037 76.0393 42.7307 116.968 42.7307C157.897 42.7307 196.729 33.2037 196.729 74.1325Z" fill="url(#paint2_linear_2_658)"/>
</mask>
<g mask="url(#mask0_2_658)">
<g filter="url(#filter0_f_2_658)">
<path fill-rule="evenodd" clip-rule="evenodd" d="M235.667 209.788C235.667 239.618 211.485 263.799 181.656 263.799C181.446 263.799 181.237 263.798 181.028 263.796V263.799H-8.63897L-8.63657 263.796C-8.84651 263.799 -9.05673 263.8 -9.26723 263.8C-39.0967 263.8 -63.2783 239.618 -63.2783 209.789C-63.2783 179.959 -39.0967 155.778 -9.26723 155.778C16.4449 155.778 37.9606 173.744 43.4104 197.808L61.7011 174.618L118.852 155.777H181.028V155.781C181.237 155.778 181.446 155.777 181.656 155.777C211.485 155.777 235.667 179.959 235.667 209.788Z" fill="#E18700"/>
</g>
</g>
<g filter="url(#filter1_bd_2_658)">
<mask id="path-4-inside-1_2_658" fill="white">
<path fill-rule="evenodd" clip-rule="evenodd" d="M247.678 213.997C247.829 213.999 247.981 214 248.133 214C269.69 214 287.166 196.524 287.166 174.967C287.166 153.409 269.69 135.933 248.133 135.933C247.981 135.933 247.829 135.934 247.678 135.936V135.933H237.595C237.959 133.262 238.147 130.535 238.147 127.763C238.147 94.6751 211.324 67.8518 178.236 67.8518C145.148 67.8518 118.324 94.6751 118.324 127.763C118.324 130.886 118.563 133.952 119.024 136.945C116.174 136.283 113.206 135.933 110.155 135.933C88.5974 135.933 71.1216 153.409 71.1216 174.967C71.1216 196.524 88.5974 214 110.155 214C110.307 214 110.459 213.999 110.61 213.997L110.608 214H247.678V213.997Z"/>
</mask>
<path fill-rule="evenodd" clip-rule="evenodd" d="M247.678 213.997C247.829 213.999 247.981 214 248.133 214C269.69 214 287.166 196.524 287.166 174.967C287.166 153.409 269.69 135.933 248.133 135.933C247.981 135.933 247.829 135.934 247.678 135.936V135.933H237.595C237.959 133.262 238.147 130.535 238.147 127.763C238.147 94.6751 211.324 67.8518 178.236 67.8518C145.148 67.8518 118.324 94.6751 118.324 127.763C118.324 130.886 118.563 133.952 119.024 136.945C116.174 136.283 113.206 135.933 110.155 135.933C88.5974 135.933 71.1216 153.409 71.1216 174.967C71.1216 196.524 88.5974 214 110.155 214C110.307 214 110.459 213.999 110.61 213.997L110.608 214H247.678V213.997Z" fill="url(#paint3_linear_2_658)" shape-rendering="crispEdges"/>
<path d="M247.678 213.997L247.701 211.998C247.166 211.991 246.652 212.199 246.272 212.575C245.892 212.951 245.678 213.463 245.678 213.997H247.678ZM247.678 135.936H245.678C245.678 136.47 245.892 136.983 246.272 137.358C246.652 137.734 247.167 137.942 247.701 137.936L247.678 135.936ZM247.678 135.933H249.678C249.678 134.829 248.783 133.933 247.678 133.933V135.933ZM237.595 135.933L235.613 135.663C235.535 136.236 235.708 136.814 236.088 137.249C236.468 137.684 237.017 137.933 237.595 137.933V135.933ZM119.024 136.945L118.571 138.894C119.218 139.044 119.897 138.863 120.383 138.412C120.87 137.961 121.101 137.297 121 136.641L119.024 136.945ZM110.61 213.997L112.18 215.237C112.657 214.632 112.745 213.807 112.405 213.115C112.065 212.424 111.358 211.989 110.587 211.998L110.61 213.997ZM110.608 214L109.038 212.76C108.563 213.362 108.474 214.182 108.808 214.872C109.142 215.562 109.841 216 110.608 216V214ZM247.678 214V216C248.783 216 249.678 215.105 249.678 214H247.678ZM247.655 215.997C247.814 215.999 247.973 216 248.133 216V212C247.989 212 247.845 211.999 247.701 211.998L247.655 215.997ZM248.133 216C270.795 216 289.166 197.629 289.166 174.967H285.166C285.166 195.42 268.586 212 248.133 212V216ZM289.166 174.967C289.166 152.305 270.795 133.933 248.133 133.933V137.933C268.586 137.933 285.166 154.514 285.166 174.967H289.166ZM248.133 133.933C247.974 133.933 247.814 133.934 247.655 133.936L247.701 137.936C247.845 137.934 247.989 137.933 248.133 137.933V133.933ZM245.678 135.933V135.936H249.678V135.933H245.678ZM237.595 137.933H247.678V133.933H237.595V137.933ZM239.577 136.204C239.953 133.443 240.147 130.625 240.147 127.763H236.147C236.147 130.444 235.965 133.081 235.613 135.663L239.577 136.204ZM240.147 127.763C240.147 93.5706 212.429 65.8518 178.236 65.8518V69.8518C210.22 69.8518 236.147 95.7797 236.147 127.763H240.147ZM178.236 65.8518C144.043 65.8518 116.324 93.5706 116.324 127.763H120.324C120.324 95.7797 146.252 69.8518 178.236 69.8518V65.8518ZM116.324 127.763C116.324 130.988 116.571 134.156 117.047 137.249L121 136.641C120.555 133.748 120.324 130.783 120.324 127.763H116.324ZM119.476 134.997C116.48 134.301 113.359 133.933 110.155 133.933V137.933C113.052 137.933 115.869 138.266 118.571 138.894L119.476 134.997ZM110.155 133.933C87.4928 133.933 69.1216 152.305 69.1216 174.967H73.1216C73.1216 154.514 89.7019 137.933 110.155 137.933V133.933ZM69.1216 174.967C69.1216 197.629 87.4928 216 110.155 216V212C89.7019 212 73.1216 195.42 73.1216 174.967H69.1216ZM110.155 216C110.314 216 110.474 215.999 110.633 215.997L110.587 211.998C110.443 211.999 110.299 212 110.155 212V216ZM112.178 215.24L112.18 215.237L109.04 212.758L109.038 212.76L112.178 215.24ZM247.678 212H110.608V216H247.678V212ZM245.678 213.997V214H249.678V213.997H245.678Z" fill="url(#paint4_linear_2_658)" mask="url(#path-4-inside-1_2_658)"/>
</g>
<defs>
<filter id="filter0_f_2_658" x="-77.2783" y="141.777" width="326.945" height="136.023" filterUnits="userSpaceOnUse" color-interpolation-filters="sRGB">
<feFlood flood-opacity="0" result="BackgroundImageFix"/>
<feBlend mode="normal" in="SourceGraphic" in2="BackgroundImageFix" result="shape"/>
<feGaussianBlur stdDeviation="7" result="effect1_foregroundBlur_2_658"/>
</filter>
<filter id="filter1_bd_2_658" x="0.121582" y="32.8518" width="316.044" height="246.148" filterUnits="userSpaceOnUse" color-interpolation-filters="sRGB">
<feFlood flood-opacity="0" result="BackgroundImageFix"/>
<feGaussianBlur in="BackgroundImage" stdDeviation="7"/>
<feComposite in2="SourceAlpha" operator="in" result="effect1_backgroundBlur_2_658"/>
<feColorMatrix in="SourceAlpha" type="matrix" values="0 0 0 0 0 0 0 0 0 0 0 0 0 0 0 0 0 0 127 0" result="hardAlpha"/>
<feOffset dx="-21" dy="15"/>
<feGaussianBlur stdDeviation="25"/>
<feComposite in2="hardAlpha" operator="out"/>
<feColorMatrix type="matrix" values="0 0 0 0 0.113438 0 0 0 0 0.148981 0 0 0 0 0.275 0 0 0 0.25 0"/>
<feBlend mode="normal" in2="effect1_backgroundBlur_2_658" result="effect2_dropShadow_2_658"/>
<feBlend mode="normal" in="SourceGraphic" in2="effect2_dropShadow_2_658" result="shape"/>
</filter>
<linearGradient id="paint0_linear_2_658" x1="122.621" y1="0.0241089" x2="122.621" y2="148.241" gradientUnits="userSpaceOnUse">
<stop stop-color="#FFE600"/>
<stop offset="1" stop-color="#FF7A00"/>
</linearGradient>
<linearGradient id="paint1_linear_2_658" x1="122.621" y1="0.0241089" x2="122.621" y2="148.241" gradientUnits="userSpaceOnUse">
<stop stop-color="white"/>
<stop offset="1" stop-color="white" stop-opacity="0"/>
</linearGradient>
<linearGradient id="paint2_linear_2_658" x1="122.621" y1="0.0242753" x2="122.621" y2="148.241" gradientUnits="userSpaceOnUse">
<stop stop-color="#FFD600"/>
<stop offset="1" stop-color="#FF7A00"/>
</linearGradient>
<linearGradient id="paint3_linear_2_658" x1="189.192" y1="72.2481" x2="189.192" y2="230.514" gradientUnits="userSpaceOnUse">
<stop stop-color="white"/>
<stop offset="1" stop-color="white" stop-opacity="0"/>
</linearGradient>
<linearGradient id="paint4_linear_2_658" x1="179.144" y1="67.8518" x2="179.144" y2="214" gradientUnits="userSpaceOnUse">
<stop stop-color="white"/>
<stop offset="1" stop-color="white" stop-opacity="0"/>
</linearGradient>
</defs>
</svg>
