<svg width="189" height="198" viewBox="0 0 189 198" fill="none" xmlns="http://www.w3.org/2000/svg">
<g filter="url(#filter0_f_3_4)">
<circle cx="92.1379" cy="75.1379" r="31.1379" fill="#FFC701" fill-opacity="0.5"/>
</g>
<circle cx="92.138" cy="76.1588" r="29.1171" fill="url(#paint0_linear_3_4)" stroke="url(#paint1_linear_3_4)" stroke-width="2"/>
<mask id="mask0_3_4" style="mask-type:alpha" maskUnits="userSpaceOnUse" x="62" y="63" width="61" height="44">
<path d="M122.255 76.1589C122.255 92.792 108.771 106.276 92.138 106.276C75.5047 106.276 62.0209 92.792 62.0209 76.1589C62.0209 59.5257 73.2077 63.3974 89.8409 63.3974C106.474 63.3974 122.255 59.5257 122.255 76.1589Z" fill="url(#paint2_linear_3_4)"/>
</mask>
<g mask="url(#mask0_3_4)">
<g filter="url(#filter1_f_3_4)">
<path fill-rule="evenodd" clip-rule="evenodd" d="M138.079 131.288C138.079 143.411 128.252 153.238 116.13 153.238C116.044 153.238 115.959 153.238 115.874 153.237V153.238H38.7951L38.7958 153.237C38.7106 153.238 38.6253 153.239 38.5399 153.239C26.4174 153.239 16.5901 143.411 16.5901 131.289C16.5901 119.166 26.4174 109.339 38.5399 109.339C48.989 109.339 57.7327 116.641 59.9476 126.42L67.3808 116.996L90.6067 109.339H115.874V109.34C115.959 109.339 116.044 109.339 116.13 109.339C128.252 109.339 138.079 119.166 138.079 131.288Z" fill="#E18700"/>
</g>
</g>
<g filter="url(#filter2_bd_3_4)">
<mask id="path-5-inside-1_3_4" fill="white">
<path fill-rule="evenodd" clip-rule="evenodd" d="M142.96 132.999C143.022 133 143.084 133 143.145 133C151.906 133 159.008 125.898 159.008 117.137C159.008 108.376 151.906 101.274 143.145 101.274C143.084 101.274 143.022 101.275 142.96 101.275V101.274H138.863C139.011 100.189 139.087 99.0803 139.087 97.9541C139.087 84.5073 128.186 73.6065 114.74 73.6065C101.293 73.6065 90.392 84.5073 90.392 97.9541C90.392 99.2229 90.4891 100.469 90.6762 101.686C89.5183 101.417 88.3117 101.274 87.0719 101.274C78.3111 101.274 71.2091 108.376 71.2091 117.137C71.2091 125.898 78.3111 133 87.0719 133C87.1337 133 87.1954 133 87.2569 132.999L87.2561 133H142.96V132.999Z"/>
</mask>
<path fill-rule="evenodd" clip-rule="evenodd" d="M142.96 132.999C143.022 133 143.084 133 143.145 133C151.906 133 159.008 125.898 159.008 117.137C159.008 108.376 151.906 101.274 143.145 101.274C143.084 101.274 143.022 101.275 142.96 101.275V101.274H138.863C139.011 100.189 139.087 99.0803 139.087 97.9541C139.087 84.5073 128.186 73.6065 114.74 73.6065C101.293 73.6065 90.392 84.5073 90.392 97.9541C90.392 99.2229 90.4891 100.469 90.6762 101.686C89.5183 101.417 88.3117 101.274 87.0719 101.274C78.3111 101.274 71.2091 108.376 71.2091 117.137C71.2091 125.898 78.3111 133 87.0719 133C87.1337 133 87.1954 133 87.2569 132.999L87.2561 133H142.96V132.999Z" fill="url(#paint3_linear_3_4)" shape-rendering="crispEdges"/>
<path d="M142.96 132.999L142.983 130.999C142.449 130.993 141.934 131.201 141.554 131.577C141.174 131.952 140.96 132.465 140.96 132.999H142.96ZM142.96 101.275H140.96C140.96 101.81 141.174 102.322 141.554 102.698C141.934 103.073 142.449 103.281 142.983 103.275L142.96 101.275ZM142.96 101.274H144.96C144.96 100.17 144.065 99.2743 142.96 99.2743V101.274ZM138.863 101.274L136.881 101.004C136.803 101.576 136.976 102.154 137.356 102.59C137.736 103.025 138.285 103.274 138.863 103.274V101.274ZM90.6762 101.686L90.2235 103.634C90.8701 103.784 91.5491 103.604 92.0359 103.152C92.5226 102.701 92.7538 102.038 92.6529 101.382L90.6762 101.686ZM87.2569 132.999L88.8272 134.238C89.3044 133.633 89.3916 132.807 89.0516 132.116C88.7115 131.425 88.0045 130.99 87.2341 130.999L87.2569 132.999ZM87.2561 133L85.6858 131.761C85.2112 132.363 85.1221 133.183 85.4565 133.873C85.7908 134.562 86.4898 135 87.2561 135V133ZM142.96 133V135C144.065 135 144.96 134.105 144.96 133H142.96ZM142.938 134.999C143.007 135 143.076 135 143.145 135V131C143.091 131 143.037 131 142.983 130.999L142.938 134.999ZM143.145 135C153.011 135 161.008 127.003 161.008 117.137H157.008C157.008 124.793 150.801 131 143.145 131V135ZM161.008 117.137C161.008 107.272 153.011 99.2743 143.145 99.2743V103.274C150.801 103.274 157.008 109.481 157.008 117.137H161.008ZM143.145 99.2743C143.076 99.2743 143.007 99.2747 142.938 99.2755L142.983 103.275C143.037 103.275 143.091 103.274 143.145 103.274V99.2743ZM140.96 101.274V101.275H144.96V101.274H140.96ZM138.863 103.274H142.96V99.2743H138.863V103.274ZM140.844 101.545C141.005 100.37 141.087 99.1709 141.087 97.9541H137.087C137.087 98.9897 137.017 100.008 136.881 101.004L140.844 101.545ZM141.087 97.9541C141.087 83.4027 129.291 71.6065 114.74 71.6065V75.6065C127.082 75.6065 137.087 85.6118 137.087 97.9541H141.087ZM114.74 71.6065C100.188 71.6065 88.392 83.4027 88.392 97.9541H92.392C92.392 85.6118 102.397 75.6065 114.74 75.6065V71.6065ZM88.392 97.9541C88.392 99.325 88.4969 100.673 88.6994 101.99L92.6529 101.382C92.4812 100.265 92.392 99.1208 92.392 97.9541H88.392ZM91.1288 99.7375C89.8235 99.4342 88.4651 99.2743 87.0719 99.2743V103.274C88.1583 103.274 89.213 103.399 90.2235 103.634L91.1288 99.7375ZM87.0719 99.2743C77.2066 99.2743 69.2091 107.272 69.2091 117.137H73.2091C73.2091 109.481 79.4157 103.274 87.0719 103.274V99.2743ZM69.2091 117.137C69.2091 127.003 77.2066 135 87.0719 135V131C79.4157 131 73.2091 124.793 73.2091 117.137H69.2091ZM87.0719 135C87.1413 135 87.2106 135 87.2797 134.999L87.2341 130.999C87.1801 131 87.126 131 87.0719 131V135ZM88.8264 134.239L88.8272 134.238L85.6867 131.76L85.6858 131.761L88.8264 134.239ZM142.96 131H87.2561V135H142.96V131ZM140.96 132.999V133H144.96V132.999H140.96Z" fill="url(#paint4_linear_3_4)" mask="url(#path-5-inside-1_3_4)"/>
</g>
<defs>
<filter id="filter0_f_3_4" x="17" y="0" width="150.276" height="150.276" filterUnits="userSpaceOnUse" color-interpolation-filters="sRGB">
<feFlood flood-opacity="0" result="BackgroundImageFix"/>
<feBlend mode="normal" in="SourceGraphic" in2="BackgroundImageFix" result="shape"/>
<feGaussianBlur stdDeviation="22" result="effect1_foregroundBlur_3_4"/>
</filter>
<filter id="filter1_f_3_4" x="2.59015" y="95.3386" width="149.489" height="71.9" filterUnits="userSpaceOnUse" color-interpolation-filters="sRGB">
<feFlood flood-opacity="0" result="BackgroundImageFix"/>
<feBlend mode="normal" in="SourceGraphic" in2="BackgroundImageFix" result="shape"/>
<feGaussianBlur stdDeviation="7" result="effect1_foregroundBlur_3_4"/>
</filter>
<filter id="filter2_bd_3_4" x="0.209106" y="38.6065" width="187.799" height="159.394" filterUnits="userSpaceOnUse" color-interpolation-filters="sRGB">
<feFlood flood-opacity="0" result="BackgroundImageFix"/>
<feGaussianBlur in="BackgroundImage" stdDeviation="7"/>
<feComposite in2="SourceAlpha" operator="in" result="effect1_backgroundBlur_3_4"/>
<feColorMatrix in="SourceAlpha" type="matrix" values="0 0 0 0 0 0 0 0 0 0 0 0 0 0 0 0 0 0 127 0" result="hardAlpha"/>
<feOffset dx="-21" dy="15"/>
<feGaussianBlur stdDeviation="25"/>
<feComposite in2="hardAlpha" operator="out"/>
<feColorMatrix type="matrix" values="0 0 0 0 0.113438 0 0 0 0 0.148981 0 0 0 0 0.275 0 0 0 0.25 0"/>
<feBlend mode="normal" in2="effect1_backgroundBlur_3_4" result="effect2_dropShadow_3_4"/>
<feBlend mode="normal" in="SourceGraphic" in2="effect2_dropShadow_3_4" result="shape"/>
</filter>
<linearGradient id="paint0_linear_3_4" x1="92.138" y1="46.0418" x2="92.138" y2="106.276" gradientUnits="userSpaceOnUse">
<stop stop-color="#FFE600"/>
<stop offset="1" stop-color="#FF7A00"/>
</linearGradient>
<linearGradient id="paint1_linear_3_4" x1="92.138" y1="46.0418" x2="92.138" y2="106.276" gradientUnits="userSpaceOnUse">
<stop stop-color="white"/>
<stop offset="1" stop-color="white" stop-opacity="0"/>
</linearGradient>
<linearGradient id="paint2_linear_3_4" x1="92.138" y1="46.0418" x2="92.138" y2="106.276" gradientUnits="userSpaceOnUse">
<stop stop-color="#FFD600"/>
<stop offset="1" stop-color="#FF7A00"/>
</linearGradient>
<linearGradient id="paint3_linear_3_4" x1="119.192" y1="75.3931" x2="119.192" y2="139.711" gradientUnits="userSpaceOnUse">
<stop stop-color="white"/>
<stop offset="1" stop-color="white" stop-opacity="0"/>
</linearGradient>
<linearGradient id="paint4_linear_3_4" x1="115.109" y1="73.6065" x2="115.109" y2="133" gradientUnits="userSpaceOnUse">
<stop stop-color="white"/>
<stop offset="1" stop-color="white" stop-opacity="0"/>
</linearGradient>
</defs>
</svg>
