<svg width="20" height="25" viewBox="0 0 20 25" fill="none" xmlns="http://www.w3.org/2000/svg">
<path fill-rule="evenodd" clip-rule="evenodd" d="M16.7116 8.31975C15.7314 6.70913 13.6121 4.05756 10.3311 0.32608C9.9481 -0.109458 9.26935 -0.108562 8.88754 0.327987C5.61697 4.06744 3.49908 6.7172 2.51214 8.31413C-0.738355 13.5736 -0.983118 18.4809 2.65344 22.0803C6.58713 25.9738 12.6329 25.9726 16.5667 22.0805C20.2002 18.4855 19.9589 13.6557 16.7116 8.31975ZM4.14532 9.32346C4.98921 7.958 6.81711 5.64718 9.61199 2.42C12.4112 5.63705 14.2369 7.94653 15.0714 9.31786C17.9073 13.9776 18.1012 17.8613 15.2163 20.7157C12.0306 23.8677 7.18945 23.8687 4.00402 20.7158C1.11668 17.858 1.31384 13.905 4.14532 9.32346Z" fill="black"/>
<path d="M10.5524 20.2188C12.6287 19.5292 14.0572 17.5815 14.0572 15.3593C14.0572 14.8291 13.6274 14.3993 13.0973 14.3993C12.5671 14.3993 12.1373 14.8291 12.1373 15.3593C12.1373 16.7483 11.244 17.966 9.94719 18.3968C9.44405 18.564 9.17168 19.1073 9.33871 19.6105C9.50587 20.1136 10.0493 20.386 10.5524 20.2188Z" fill="black"/>
</svg>
