<svg width="404" height="450" viewBox="0 0 404 450" fill="none" xmlns="http://www.w3.org/2000/svg">
<g filter="url(#filter0_bd_204_1453)">
<path d="M244 329.477H238.521L240.632 327.367L239.186 325.921L235.629 329.477H230.771L233.2 325.272L238.059 323.97L237.53 321.994L234.646 322.767L237.386 318.023L235.614 317L232.875 321.744L232.102 318.861L230.126 319.39L231.429 324.249L229 328.455L226.572 324.249L227.873 319.39L225.898 318.861L225.125 321.744L222.386 317L220.614 318.023L223.354 322.767L220.47 321.994L219.941 323.97L224.8 325.272L227.229 329.477H222.372L218.814 325.92L217.368 327.367L219.479 329.477H214V331.523H219.479L217.368 333.633L218.814 335.08L222.372 331.523H227.229L224.8 335.728L219.94 337.03L220.47 339.006L223.354 338.233L220.614 342.977L222.386 344L225.125 339.256L225.898 342.139L227.873 341.61L226.571 336.751L229 332.545L231.429 336.751L230.126 341.61L232.102 342.139L232.875 339.256L235.614 344L237.386 342.977L234.646 338.233L237.53 339.006L238.059 337.03L233.2 335.728L230.771 331.523H235.628L239.186 335.08L240.632 333.633L238.521 331.523H244V329.477Z" fill="url(#paint0_linear_204_1453)" shape-rendering="crispEdges"/>
<path d="M237.814 332.23L239.218 333.633L239.186 333.665L236.336 330.815C236.148 330.628 235.894 330.523 235.628 330.523H230.771C230.414 330.523 230.084 330.713 229.905 331.023C229.727 331.332 229.727 331.713 229.905 332.023L232.334 336.229C232.467 336.458 232.685 336.626 232.941 336.694L236.835 337.737L236.823 337.781L234.905 337.267C234.514 337.163 234.099 337.304 233.853 337.625C233.607 337.945 233.578 338.383 233.78 338.733L236.02 342.611L235.98 342.634L233.741 338.756C233.539 338.406 233.145 338.212 232.744 338.264C232.343 338.317 232.014 338.606 231.909 338.997L231.395 340.915L231.351 340.903L232.395 337.01C232.463 336.754 232.427 336.481 232.295 336.251L229.866 332.045C229.687 331.736 229.357 331.545 229 331.545C228.643 331.545 228.313 331.736 228.134 332.045L225.705 336.251C225.573 336.481 225.537 336.754 225.605 337.01L226.649 340.903L226.605 340.915L226.091 338.997C225.986 338.606 225.657 338.317 225.256 338.264C224.855 338.212 224.461 338.406 224.259 338.756L222.02 342.634L221.98 342.611L224.22 338.733C224.422 338.383 224.393 337.945 224.147 337.624C223.901 337.304 223.486 337.163 223.095 337.267L221.177 337.781L221.165 337.737L225.059 336.694C225.315 336.626 225.533 336.458 225.666 336.228L228.095 332.023C228.273 331.713 228.273 331.332 228.095 331.023C227.916 330.713 227.586 330.523 227.229 330.523H222.372C222.106 330.523 221.852 330.628 221.664 330.815L218.814 333.665L218.782 333.633L220.186 332.23C220.472 331.944 220.557 331.514 220.403 331.14C220.248 330.766 219.883 330.523 219.479 330.523H215V330.477H219.479C219.883 330.477 220.248 330.234 220.403 329.86C220.557 329.486 220.472 329.056 220.186 328.77L218.782 327.367L218.814 327.335L221.664 330.185C221.852 330.372 222.106 330.477 222.372 330.477H227.229C227.586 330.477 227.916 330.287 228.095 329.977C228.273 329.668 228.273 329.287 228.095 328.977L225.666 324.771C225.533 324.542 225.315 324.374 225.059 324.306L221.165 323.263L221.177 323.219L223.095 323.733C223.486 323.837 223.901 323.696 224.147 323.375C224.393 323.054 224.422 322.617 224.22 322.267L221.98 318.389L222.02 318.366L224.259 322.244C224.461 322.594 224.855 322.788 225.256 322.736C225.657 322.683 225.986 322.394 226.091 322.003L226.605 320.086L226.649 320.097L225.606 323.99C225.537 324.246 225.573 324.519 225.706 324.749L228.134 328.955C228.313 329.264 228.643 329.455 229 329.455C229.357 329.455 229.687 329.264 229.866 328.955L232.295 324.749C232.427 324.519 232.463 324.246 232.395 323.99L231.351 320.097L231.395 320.086L231.909 322.003C232.014 322.394 232.343 322.683 232.744 322.736C233.145 322.788 233.539 322.594 233.741 322.244L235.98 318.366L236.02 318.389L233.78 322.267C233.578 322.617 233.607 323.055 233.853 323.375C234.099 323.696 234.514 323.837 234.905 323.733L236.823 323.219L236.835 323.263L232.941 324.306C232.685 324.374 232.467 324.542 232.334 324.772L229.905 328.977C229.727 329.287 229.727 329.668 229.905 329.977C230.084 330.287 230.414 330.477 230.771 330.477H235.629C235.894 330.477 236.148 330.372 236.336 330.185L239.186 327.335L239.218 327.367L237.814 328.77C237.528 329.056 237.443 329.486 237.597 329.86C237.752 330.234 238.117 330.477 238.521 330.477H243V330.523H238.521C238.117 330.523 237.752 330.766 237.597 331.14C237.443 331.514 237.528 331.944 237.814 332.23Z" stroke="url(#paint1_linear_204_1453)" stroke-width="2" stroke-linejoin="round" shape-rendering="crispEdges"/>
</g>
<g filter="url(#filter1_bd_204_1453)">
<path d="M201 329.477H195.521L197.632 327.367L196.186 325.921L192.629 329.477H187.771L190.2 325.272L195.059 323.97L194.53 321.994L191.646 322.767L194.386 318.023L192.614 317L189.875 321.744L189.102 318.861L187.126 319.39L188.429 324.249L186 328.455L183.572 324.249L184.873 319.39L182.898 318.861L182.125 321.744L179.386 317L177.614 318.023L180.354 322.767L177.47 321.994L176.941 323.97L181.8 325.272L184.229 329.477H179.372L175.814 325.92L174.368 327.367L176.479 329.477H171V331.523H176.479L174.368 333.633L175.814 335.08L179.372 331.523H184.229L181.8 335.728L176.94 337.03L177.47 339.006L180.354 338.233L177.614 342.977L179.386 344L182.125 339.256L182.898 342.139L184.873 341.61L183.571 336.751L186 332.545L188.429 336.751L187.126 341.61L189.102 342.139L189.875 339.256L192.614 344L194.386 342.977L191.646 338.233L194.53 339.006L195.059 337.03L190.2 335.728L187.771 331.523H192.628L196.186 335.08L197.632 333.633L195.521 331.523H201V329.477Z" fill="url(#paint2_linear_204_1453)" shape-rendering="crispEdges"/>
<path d="M194.814 332.23L196.218 333.633L196.186 333.665L193.336 330.815C193.148 330.628 192.894 330.523 192.628 330.523H187.771C187.414 330.523 187.084 330.713 186.905 331.023C186.727 331.332 186.727 331.713 186.905 332.023L189.334 336.229C189.467 336.458 189.685 336.626 189.941 336.694L193.835 337.737L193.823 337.781L191.905 337.267C191.514 337.163 191.099 337.304 190.853 337.625C190.607 337.945 190.578 338.383 190.78 338.733L193.02 342.611L192.98 342.634L190.741 338.756C190.539 338.406 190.145 338.212 189.744 338.264C189.343 338.317 189.014 338.606 188.909 338.997L188.395 340.915L188.351 340.903L189.395 337.01C189.463 336.754 189.427 336.481 189.295 336.251L186.866 332.045C186.687 331.736 186.357 331.545 186 331.545C185.643 331.545 185.313 331.736 185.134 332.045L182.705 336.251C182.573 336.481 182.537 336.754 182.605 337.01L183.649 340.903L183.605 340.915L183.091 338.997C182.986 338.606 182.657 338.317 182.256 338.264C181.855 338.212 181.461 338.406 181.259 338.756L179.02 342.634L178.98 342.611L181.22 338.733C181.422 338.383 181.393 337.945 181.147 337.624C180.901 337.304 180.486 337.163 180.095 337.267L178.177 337.781L178.165 337.737L182.059 336.694C182.315 336.626 182.533 336.458 182.666 336.228L185.095 332.023C185.273 331.713 185.273 331.332 185.095 331.023C184.916 330.713 184.586 330.523 184.229 330.523H179.372C179.106 330.523 178.852 330.628 178.664 330.815L175.814 333.665L175.782 333.633L177.186 332.23C177.472 331.944 177.557 331.514 177.403 331.14C177.248 330.766 176.883 330.523 176.479 330.523H172V330.477H176.479C176.883 330.477 177.248 330.234 177.403 329.86C177.557 329.486 177.472 329.056 177.186 328.77L175.782 327.367L175.814 327.335L178.664 330.185C178.852 330.372 179.106 330.477 179.372 330.477H184.229C184.586 330.477 184.916 330.287 185.095 329.977C185.273 329.668 185.273 329.287 185.095 328.977L182.666 324.771C182.533 324.542 182.315 324.374 182.059 324.306L178.165 323.263L178.177 323.219L180.095 323.733C180.486 323.837 180.901 323.696 181.147 323.375C181.393 323.054 181.422 322.617 181.22 322.267L178.98 318.389L179.02 318.366L181.259 322.244C181.461 322.594 181.855 322.788 182.256 322.736C182.657 322.683 182.986 322.394 183.091 322.003L183.605 320.086L183.649 320.097L182.606 323.99C182.537 324.246 182.573 324.519 182.706 324.749L185.134 328.955C185.313 329.264 185.643 329.455 186 329.455C186.357 329.455 186.687 329.264 186.866 328.955L189.295 324.749C189.427 324.519 189.463 324.246 189.395 323.99L188.351 320.097L188.395 320.086L188.909 322.003C189.014 322.394 189.343 322.683 189.744 322.736C190.145 322.788 190.539 322.594 190.741 322.244L192.98 318.366L193.02 318.389L190.78 322.267C190.578 322.617 190.607 323.055 190.853 323.375C191.099 323.696 191.514 323.837 191.905 323.733L193.823 323.219L193.835 323.263L189.941 324.306C189.685 324.374 189.467 324.542 189.334 324.772L186.905 328.977C186.727 329.287 186.727 329.668 186.905 329.977C187.084 330.287 187.414 330.477 187.771 330.477H192.629C192.894 330.477 193.148 330.372 193.336 330.185L196.186 327.335L196.218 327.367L194.814 328.77C194.528 329.056 194.443 329.486 194.597 329.86C194.752 330.234 195.117 330.477 195.521 330.477H200V330.523H195.521C195.117 330.523 194.752 330.766 194.597 331.14C194.443 331.514 194.528 331.944 194.814 332.23Z" stroke="url(#paint3_linear_204_1453)" stroke-width="2" stroke-linejoin="round" shape-rendering="crispEdges"/>
</g>
<g filter="url(#filter2_bd_204_1453)">
<path d="M158 329.477H152.521L154.632 327.367L153.186 325.921L149.629 329.477H144.771L147.2 325.272L152.059 323.97L151.53 321.994L148.646 322.767L151.386 318.023L149.614 317L146.875 321.744L146.102 318.861L144.126 319.39L145.429 324.249L143 328.455L140.572 324.249L141.873 319.39L139.898 318.861L139.125 321.744L136.386 317L134.614 318.023L137.354 322.767L134.47 321.994L133.941 323.97L138.8 325.272L141.229 329.477H136.372L132.814 325.92L131.368 327.367L133.479 329.477H128V331.523H133.479L131.368 333.633L132.814 335.08L136.372 331.523H141.229L138.8 335.728L133.94 337.03L134.47 339.006L137.354 338.233L134.614 342.977L136.386 344L139.125 339.256L139.898 342.139L141.873 341.61L140.571 336.751L143 332.545L145.429 336.751L144.126 341.61L146.102 342.139L146.875 339.256L149.614 344L151.386 342.977L148.646 338.233L151.53 339.006L152.059 337.03L147.2 335.728L144.771 331.523H149.628L153.186 335.08L154.632 333.633L152.521 331.523H158V329.477Z" fill="url(#paint4_linear_204_1453)" shape-rendering="crispEdges"/>
<path d="M151.814 332.23L153.218 333.633L153.186 333.665L150.336 330.815C150.148 330.628 149.894 330.523 149.628 330.523H144.771C144.414 330.523 144.084 330.713 143.905 331.023C143.727 331.332 143.727 331.713 143.905 332.023L146.334 336.229C146.467 336.458 146.685 336.626 146.941 336.694L150.835 337.737L150.823 337.781L148.905 337.267C148.514 337.163 148.099 337.304 147.853 337.625C147.607 337.945 147.578 338.383 147.78 338.733L150.02 342.611L149.98 342.634L147.741 338.756C147.539 338.406 147.145 338.212 146.744 338.264C146.343 338.317 146.014 338.606 145.909 338.997L145.395 340.915L145.351 340.903L146.395 337.01C146.463 336.754 146.427 336.481 146.295 336.251L143.866 332.045C143.687 331.736 143.357 331.545 143 331.545C142.643 331.545 142.313 331.736 142.134 332.045L139.705 336.251C139.573 336.481 139.537 336.754 139.605 337.01L140.649 340.903L140.605 340.915L140.091 338.997C139.986 338.606 139.657 338.317 139.256 338.264C138.855 338.212 138.461 338.406 138.259 338.756L136.02 342.634L135.98 342.611L138.22 338.733C138.422 338.383 138.393 337.945 138.147 337.624C137.901 337.304 137.486 337.163 137.095 337.267L135.177 337.781L135.165 337.737L139.059 336.694C139.315 336.626 139.533 336.458 139.666 336.228L142.095 332.023C142.273 331.713 142.273 331.332 142.095 331.023C141.916 330.713 141.586 330.523 141.229 330.523H136.372C136.106 330.523 135.852 330.628 135.664 330.815L132.814 333.665L132.782 333.633L134.186 332.23C134.472 331.944 134.557 331.514 134.403 331.14C134.248 330.766 133.883 330.523 133.479 330.523H129V330.477H133.479C133.883 330.477 134.248 330.234 134.403 329.86C134.557 329.486 134.472 329.056 134.186 328.77L132.782 327.367L132.814 327.335L135.664 330.185C135.852 330.372 136.106 330.477 136.372 330.477H141.229C141.586 330.477 141.916 330.287 142.095 329.977C142.273 329.668 142.273 329.287 142.095 328.977L139.666 324.771C139.533 324.542 139.315 324.374 139.059 324.306L135.165 323.263L135.177 323.219L137.095 323.733C137.486 323.837 137.901 323.696 138.147 323.375C138.393 323.054 138.422 322.617 138.22 322.267L135.98 318.389L136.02 318.366L138.259 322.244C138.461 322.594 138.855 322.788 139.256 322.736C139.657 322.683 139.986 322.394 140.091 322.003L140.605 320.086L140.649 320.097L139.606 323.99C139.537 324.246 139.573 324.519 139.706 324.749L142.134 328.955C142.313 329.264 142.643 329.455 143 329.455C143.357 329.455 143.687 329.264 143.866 328.955L146.295 324.749C146.427 324.519 146.463 324.246 146.395 323.99L145.351 320.097L145.395 320.086L145.909 322.003C146.014 322.394 146.343 322.683 146.744 322.736C147.145 322.788 147.539 322.594 147.741 322.244L149.98 318.366L150.02 318.389L147.78 322.267C147.578 322.617 147.607 323.055 147.853 323.375C148.099 323.696 148.514 323.837 148.905 323.733L150.823 323.219L150.835 323.263L146.941 324.306C146.685 324.374 146.467 324.542 146.334 324.772L143.905 328.977C143.727 329.287 143.727 329.668 143.905 329.977C144.084 330.287 144.414 330.477 144.771 330.477H149.629C149.894 330.477 150.148 330.372 150.336 330.185L153.186 327.335L153.218 327.367L151.814 328.77C151.528 329.056 151.443 329.486 151.597 329.86C151.752 330.234 152.117 330.477 152.521 330.477H157V330.523H152.521C152.117 330.523 151.752 330.766 151.597 331.14C151.443 331.514 151.528 331.944 151.814 332.23Z" stroke="url(#paint5_linear_204_1453)" stroke-width="2" stroke-linejoin="round" shape-rendering="crispEdges"/>
</g>
<g filter="url(#filter3_bd_204_1453)">
<path d="M173 370.477H167.521L169.632 368.367L168.186 366.921L164.629 370.477H159.771L162.2 366.272L167.059 364.97L166.53 362.994L163.646 363.767L166.386 359.023L164.614 358L161.875 362.744L161.102 359.861L159.126 360.39L160.429 365.249L158 369.455L155.572 365.249L156.873 360.39L154.898 359.861L154.125 362.744L151.386 358L149.614 359.023L152.354 363.767L149.47 362.994L148.941 364.97L153.8 366.272L156.229 370.477H151.372L147.814 366.92L146.368 368.367L148.479 370.477H143V372.523H148.479L146.368 374.633L147.814 376.08L151.372 372.523H156.229L153.8 376.728L148.94 378.03L149.47 380.006L152.354 379.233L149.614 383.977L151.386 385L154.125 380.256L154.898 383.139L156.873 382.61L155.571 377.751L158 373.545L160.429 377.751L159.126 382.61L161.102 383.139L161.875 380.256L164.614 385L166.386 383.977L163.646 379.233L166.53 380.006L167.059 378.03L162.2 376.728L159.771 372.523H164.628L168.186 376.08L169.632 374.633L167.521 372.523H173V370.477Z" fill="url(#paint6_linear_204_1453)" shape-rendering="crispEdges"/>
<path d="M166.814 373.23L168.218 374.633L168.186 374.665L165.336 371.815C165.148 371.628 164.894 371.523 164.628 371.523H159.771C159.414 371.523 159.084 371.713 158.905 372.023C158.727 372.332 158.727 372.713 158.905 373.023L161.334 377.229C161.467 377.458 161.685 377.626 161.941 377.694L165.835 378.737L165.823 378.781L163.905 378.267C163.514 378.163 163.099 378.304 162.853 378.625C162.607 378.945 162.578 379.383 162.78 379.733L165.02 383.611L164.98 383.634L162.741 379.756C162.539 379.406 162.145 379.212 161.744 379.264C161.343 379.317 161.014 379.606 160.909 379.997L160.395 381.915L160.351 381.903L161.395 378.01C161.463 377.754 161.427 377.481 161.295 377.251L158.866 373.045C158.687 372.736 158.357 372.545 158 372.545C157.643 372.545 157.313 372.736 157.134 373.045L154.705 377.251C154.573 377.481 154.537 377.754 154.605 378.01L155.649 381.903L155.605 381.915L155.091 379.997C154.986 379.606 154.657 379.317 154.256 379.264C153.855 379.212 153.461 379.406 153.259 379.756L151.02 383.634L150.98 383.611L153.22 379.733C153.422 379.383 153.393 378.945 153.147 378.624C152.901 378.304 152.486 378.163 152.095 378.267L150.177 378.781L150.165 378.737L154.059 377.694C154.315 377.626 154.533 377.458 154.666 377.228L157.095 373.023C157.273 372.713 157.273 372.332 157.095 372.023C156.916 371.713 156.586 371.523 156.229 371.523H151.372C151.106 371.523 150.852 371.628 150.664 371.815L147.814 374.665L147.782 374.633L149.186 373.23C149.472 372.944 149.557 372.514 149.403 372.14C149.248 371.766 148.883 371.523 148.479 371.523H144V371.477H148.479C148.883 371.477 149.248 371.234 149.403 370.86C149.557 370.486 149.472 370.056 149.186 369.77L147.782 368.367L147.814 368.335L150.664 371.185C150.852 371.372 151.106 371.477 151.372 371.477H156.229C156.586 371.477 156.916 371.287 157.095 370.977C157.273 370.668 157.273 370.287 157.095 369.977L154.666 365.771C154.533 365.542 154.315 365.374 154.059 365.306L150.165 364.263L150.177 364.219L152.095 364.733C152.486 364.837 152.901 364.696 153.147 364.375C153.393 364.054 153.422 363.617 153.22 363.267L150.98 359.389L151.02 359.366L153.259 363.244C153.461 363.594 153.855 363.788 154.256 363.736C154.657 363.683 154.986 363.394 155.091 363.003L155.605 361.086L155.649 361.097L154.606 364.99C154.537 365.246 154.573 365.519 154.706 365.749L157.134 369.955C157.313 370.264 157.643 370.455 158 370.455C158.357 370.455 158.687 370.264 158.866 369.955L161.295 365.749C161.427 365.519 161.463 365.246 161.395 364.99L160.351 361.097L160.395 361.086L160.909 363.003C161.014 363.394 161.343 363.683 161.744 363.736C162.145 363.788 162.539 363.594 162.741 363.244L164.98 359.366L165.02 359.389L162.78 363.267C162.578 363.617 162.607 364.055 162.853 364.375C163.099 364.696 163.514 364.837 163.905 364.733L165.823 364.219L165.835 364.263L161.941 365.306C161.685 365.374 161.467 365.542 161.334 365.772L158.905 369.977C158.727 370.287 158.727 370.668 158.905 370.977C159.084 371.287 159.414 371.477 159.771 371.477H164.629C164.894 371.477 165.148 371.372 165.336 371.185L168.186 368.335L168.218 368.367L166.814 369.77C166.528 370.056 166.443 370.486 166.597 370.86C166.752 371.234 167.117 371.477 167.521 371.477H172V371.523H167.521C167.117 371.523 166.752 371.766 166.597 372.14C166.443 372.514 166.528 372.944 166.814 373.23Z" stroke="url(#paint7_linear_204_1453)" stroke-width="2" stroke-linejoin="round" shape-rendering="crispEdges"/>
</g>
<g filter="url(#filter4_bd_204_1453)">
<path d="M214 370.477H208.521L210.632 368.367L209.186 366.921L205.629 370.477H200.771L203.2 366.272L208.059 364.97L207.53 362.994L204.646 363.767L207.386 359.023L205.614 358L202.875 362.744L202.102 359.861L200.126 360.39L201.429 365.249L199 369.455L196.572 365.249L197.873 360.39L195.898 359.861L195.125 362.744L192.386 358L190.614 359.023L193.354 363.767L190.47 362.994L189.941 364.97L194.8 366.272L197.229 370.477H192.372L188.814 366.92L187.368 368.367L189.479 370.477H184V372.523H189.479L187.368 374.633L188.814 376.08L192.372 372.523H197.229L194.8 376.728L189.94 378.03L190.47 380.006L193.354 379.233L190.614 383.977L192.386 385L195.125 380.256L195.898 383.139L197.873 382.61L196.571 377.751L199 373.545L201.429 377.751L200.126 382.61L202.102 383.139L202.875 380.256L205.614 385L207.386 383.977L204.646 379.233L207.53 380.006L208.059 378.03L203.2 376.728L200.771 372.523H205.628L209.186 376.08L210.632 374.633L208.521 372.523H214V370.477Z" fill="url(#paint8_linear_204_1453)" shape-rendering="crispEdges"/>
<path d="M207.814 373.23L209.218 374.633L209.186 374.665L206.336 371.815C206.148 371.628 205.894 371.523 205.628 371.523H200.771C200.414 371.523 200.084 371.713 199.905 372.023C199.727 372.332 199.727 372.713 199.905 373.023L202.334 377.229C202.467 377.458 202.685 377.626 202.941 377.694L206.835 378.737L206.823 378.781L204.905 378.267C204.514 378.163 204.099 378.304 203.853 378.625C203.607 378.945 203.578 379.383 203.78 379.733L206.02 383.611L205.98 383.634L203.741 379.756C203.539 379.406 203.145 379.212 202.744 379.264C202.343 379.317 202.014 379.606 201.909 379.997L201.395 381.915L201.351 381.903L202.395 378.01C202.463 377.754 202.427 377.481 202.295 377.251L199.866 373.045C199.687 372.736 199.357 372.545 199 372.545C198.643 372.545 198.313 372.736 198.134 373.045L195.705 377.251C195.573 377.481 195.537 377.754 195.605 378.01L196.649 381.903L196.605 381.915L196.091 379.997C195.986 379.606 195.657 379.317 195.256 379.264C194.855 379.212 194.461 379.406 194.259 379.756L192.02 383.634L191.98 383.611L194.22 379.733C194.422 379.383 194.393 378.945 194.147 378.624C193.901 378.304 193.486 378.163 193.095 378.267L191.177 378.781L191.165 378.737L195.059 377.694C195.315 377.626 195.533 377.458 195.666 377.228L198.095 373.023C198.273 372.713 198.273 372.332 198.095 372.023C197.916 371.713 197.586 371.523 197.229 371.523H192.372C192.106 371.523 191.852 371.628 191.664 371.815L188.814 374.665L188.782 374.633L190.186 373.23C190.472 372.944 190.557 372.514 190.403 372.14C190.248 371.766 189.883 371.523 189.479 371.523H185V371.477H189.479C189.883 371.477 190.248 371.234 190.403 370.86C190.557 370.486 190.472 370.056 190.186 369.77L188.782 368.367L188.814 368.335L191.664 371.185C191.852 371.372 192.106 371.477 192.372 371.477H197.229C197.586 371.477 197.916 371.287 198.095 370.977C198.273 370.668 198.273 370.287 198.095 369.977L195.666 365.771C195.533 365.542 195.315 365.374 195.059 365.306L191.165 364.263L191.177 364.219L193.095 364.733C193.486 364.837 193.901 364.696 194.147 364.375C194.393 364.054 194.422 363.617 194.22 363.267L191.98 359.389L192.02 359.366L194.259 363.244C194.461 363.594 194.855 363.788 195.256 363.736C195.657 363.683 195.986 363.394 196.091 363.003L196.605 361.086L196.649 361.097L195.606 364.99C195.537 365.246 195.573 365.519 195.706 365.749L198.134 369.955C198.313 370.264 198.643 370.455 199 370.455C199.357 370.455 199.687 370.264 199.866 369.955L202.295 365.749C202.427 365.519 202.463 365.246 202.395 364.99L201.351 361.097L201.395 361.086L201.909 363.003C202.014 363.394 202.343 363.683 202.744 363.736C203.145 363.788 203.539 363.594 203.741 363.244L205.98 359.366L206.02 359.389L203.78 363.267C203.578 363.617 203.607 364.055 203.853 364.375C204.099 364.696 204.514 364.837 204.905 364.733L206.823 364.219L206.835 364.263L202.941 365.306C202.685 365.374 202.467 365.542 202.334 365.772L199.905 369.977C199.727 370.287 199.727 370.668 199.905 370.977C200.084 371.287 200.414 371.477 200.771 371.477H205.629C205.894 371.477 206.148 371.372 206.336 371.185L209.186 368.335L209.218 368.367L207.814 369.77C207.528 370.056 207.443 370.486 207.597 370.86C207.752 371.234 208.117 371.477 208.521 371.477H213V371.523H208.521C208.117 371.523 207.752 371.766 207.597 372.14C207.443 372.514 207.528 372.944 207.814 373.23Z" stroke="url(#paint9_linear_204_1453)" stroke-width="2" stroke-linejoin="round" shape-rendering="crispEdges"/>
</g>
<g filter="url(#filter5_bdd_204_1453)">
<mask id="path-11-inside-1_204_1453" fill="white">
<path fill-rule="evenodd" clip-rule="evenodd" d="M212.019 38.1374C215.456 37.5276 217.545 41.5962 215.735 44.5815C206.264 60.2017 204.89 80.2293 213.858 97.6643C225.797 120.874 252.132 131.847 276.348 125.286C279.721 124.372 283.054 127.51 281.513 130.646C275.585 142.715 265.865 153.051 252.989 159.674C221.141 176.056 182.043 163.518 165.662 131.67C149.28 99.822 161.818 60.7242 193.666 44.3426C199.597 41.292 205.779 39.2443 212.019 38.1374Z"/>
</mask>
<path fill-rule="evenodd" clip-rule="evenodd" d="M212.019 38.1374C215.456 37.5276 217.545 41.5962 215.735 44.5815C206.264 60.2017 204.89 80.2293 213.858 97.6643C225.797 120.874 252.132 131.847 276.348 125.286C279.721 124.372 283.054 127.51 281.513 130.646C275.585 142.715 265.865 153.051 252.989 159.674C221.141 176.056 182.043 163.518 165.662 131.67C149.28 99.822 161.818 60.7242 193.666 44.3426C199.597 41.292 205.779 39.2443 212.019 38.1374Z" fill="url(#paint10_linear_204_1453)"/>
<path d="M281.513 130.646L279.718 129.764L281.513 130.646ZM215.637 96.7495C207 79.9582 208.32 60.669 217.445 45.6184L214.025 43.5445C204.208 59.7344 202.781 80.5005 212.08 98.5792L215.637 96.7495ZM275.825 123.356C252.5 129.675 227.135 119.103 215.637 96.7495L212.08 98.5792C224.459 122.646 251.763 134.019 276.871 127.216L275.825 123.356ZM279.718 129.764C273.973 141.461 264.555 151.476 252.074 157.896L253.904 161.453C267.175 154.626 277.197 143.969 283.308 131.527L279.718 129.764ZM252.074 157.896C221.208 173.772 183.316 161.621 167.44 130.755L163.883 132.585C180.77 165.415 221.074 178.34 253.904 161.453L252.074 157.896ZM167.44 130.755C151.564 99.8895 163.715 61.9975 194.581 46.1211L192.751 42.5641C159.921 59.4509 146.996 99.7546 163.883 132.585L167.44 130.755ZM194.581 46.1211C200.332 43.1631 206.323 41.179 212.368 40.1066L211.669 36.1681C205.235 37.3096 198.862 39.421 192.751 42.5641L194.581 46.1211ZM276.871 127.216C277.825 126.958 278.773 127.275 279.359 127.862C279.908 128.411 280.057 129.075 279.718 129.764L283.308 131.527C284.51 129.08 283.762 126.608 282.187 125.033C280.649 123.495 278.244 122.7 275.825 123.356L276.871 127.216ZM217.445 45.6184C218.743 43.477 218.646 40.9476 217.595 39.0446C216.519 37.0958 214.352 35.6922 211.669 36.1681L212.368 40.1066C213.123 39.9728 213.719 40.2986 214.094 40.978C214.494 41.7032 214.536 42.7006 214.025 43.5445L217.445 45.6184Z" fill="url(#paint11_linear_204_1453)" mask="url(#path-11-inside-1_204_1453)"/>
</g>
<mask id="mask0_204_1453" style="mask-type:alpha" maskUnits="userSpaceOnUse" x="185" y="120" width="118" height="85">
<path d="M303 146C303 178.585 276.585 205 244 205C211.415 205 185 178.585 185 146C185 113.415 206.915 121 239.5 121C272.085 121 303 113.415 303 146Z" fill="url(#paint12_linear_204_1453)"/>
</mask>
<g mask="url(#mask0_204_1453)">
<g filter="url(#filter6_f_204_1453)">
<path fill-rule="evenodd" clip-rule="evenodd" d="M139.502 296.997C139.335 296.999 139.168 297 139 297C115.252 297 96 277.748 96 254C96 230.252 115.252 211 139 211C159.47 211 176.6 225.304 180.938 244.462L195.5 226L241 211H290.5V211.003C290.666 211.001 290.833 211 291 211C314.748 211 334 230.252 334 254C334 277.748 314.748 297 291 297C290.833 297 290.666 296.999 290.5 296.997V297H139.5L139.502 296.997Z" fill="#E18700"/>
</g>
</g>
<g filter="url(#filter7_bd_204_1453)">
<mask id="path-15-inside-2_204_1453" fill="white">
<path fill-rule="evenodd" clip-rule="evenodd" d="M265.5 301.997C265.666 301.999 265.833 302 266 302C289.748 302 309 282.748 309 259C309 235.252 289.748 216 266 216C265.833 216 265.666 216.001 265.5 216.003V216H254.391C254.793 213.057 255 210.053 255 207C255 170.549 225.451 141 189 141C152.549 141 123 170.549 123 207C123 210.439 123.263 213.817 123.77 217.115C120.631 216.386 117.361 216 114 216C90.2518 216 71 235.252 71 259C71 282.748 90.2518 302 114 302C114.168 302 114.335 301.999 114.502 301.997L114.5 302H265.5V301.997Z"/>
</mask>
<path fill-rule="evenodd" clip-rule="evenodd" d="M265.5 301.997C265.666 301.999 265.833 302 266 302C289.748 302 309 282.748 309 259C309 235.252 289.748 216 266 216C265.833 216 265.666 216.001 265.5 216.003V216H254.391C254.793 213.057 255 210.053 255 207C255 170.549 225.451 141 189 141C152.549 141 123 170.549 123 207C123 210.439 123.263 213.817 123.77 217.115C120.631 216.386 117.361 216 114 216C90.2518 216 71 235.252 71 259C71 282.748 90.2518 302 114 302C114.168 302 114.335 301.999 114.502 301.997L114.5 302H265.5V301.997Z" fill="url(#paint13_linear_204_1453)" shape-rendering="crispEdges"/>
<path d="M265.5 301.997L265.523 299.997C264.988 299.991 264.474 300.199 264.094 300.575C263.714 300.951 263.5 301.463 263.5 301.997H265.5ZM265.5 216.003H263.5C263.5 216.537 263.714 217.049 264.094 217.425C264.474 217.801 264.988 218.009 265.523 218.003L265.5 216.003ZM265.5 216H267.5C267.5 214.895 266.605 214 265.5 214V216ZM254.391 216L252.41 215.73C252.332 216.302 252.505 216.88 252.885 217.315C253.265 217.75 253.814 218 254.391 218V216ZM123.77 217.115L123.318 219.063C123.964 219.213 124.643 219.033 125.13 218.582C125.617 218.13 125.848 217.467 125.747 216.811L123.77 217.115ZM114.502 301.997L116.072 303.237C116.549 302.632 116.637 301.807 116.297 301.115C115.957 300.423 115.25 299.988 114.479 299.997L114.502 301.997ZM114.5 302L112.931 300.76C112.455 301.362 112.366 302.182 112.7 302.872C113.034 303.562 113.733 304 114.5 304V302ZM265.5 302V304C266.605 304 267.5 303.105 267.5 302H265.5ZM265.477 303.997C265.651 303.999 265.825 304 266 304V300C265.841 300 265.682 299.999 265.523 299.997L265.477 303.997ZM266 304C290.853 304 311 283.853 311 259H307C307 281.644 288.644 300 266 300V304ZM311 259C311 234.147 290.853 214 266 214V218C288.644 218 307 236.356 307 259H311ZM266 214C265.826 214 265.651 214.001 265.477 214.003L265.523 218.003C265.682 218.001 265.841 218 266 218V214ZM263.5 216V216.003H267.5V216H263.5ZM254.391 218H265.5V214H254.391V218ZM256.373 216.27C256.787 213.238 257 210.143 257 207H253C253 209.962 252.799 212.876 252.41 215.73L256.373 216.27ZM257 207C257 169.445 226.555 139 189 139V143C224.346 143 253 171.654 253 207H257ZM189 139C151.445 139 121 169.445 121 207H125C125 171.654 153.654 143 189 143V139ZM121 207C121 210.542 121.271 214.021 121.793 217.419L125.747 216.811C125.255 213.614 125 210.337 125 207H121ZM124.223 215.167C120.937 214.403 117.514 214 114 214V218C117.207 218 120.326 218.368 123.318 219.063L124.223 215.167ZM114 214C89.1472 214 69 234.147 69 259H73C73 236.356 91.3563 218 114 218V214ZM69 259C69 283.853 89.1472 304 114 304V300C91.3563 300 73 281.644 73 259H69ZM114 304C114.175 304 114.35 303.999 114.525 303.997L114.479 299.997C114.32 299.999 114.16 300 114 300V304ZM116.069 303.24L116.072 303.237L112.933 300.757L112.931 300.76L116.069 303.24ZM265.5 300H114.5V304H265.5V300ZM263.5 301.997V302H267.5V301.997H263.5Z" fill="url(#paint14_linear_204_1453)" mask="url(#path-15-inside-2_204_1453)"/>
</g>
<g filter="url(#filter8_bd_204_1453)">
<mask id="path-17-inside-3_204_1453" fill="white">
<path fill-rule="evenodd" clip-rule="evenodd" d="M343.563 257.351C343.683 257.352 343.804 257.353 343.924 257.353C361.087 257.353 375 243.44 375 226.277C375 209.115 361.087 195.202 343.924 195.202C343.804 195.202 343.683 195.202 343.563 195.204V195.202H335.535C335.825 193.075 335.975 190.904 335.975 188.697C335.975 162.355 314.62 141 288.277 141C261.935 141 240.58 162.355 240.58 188.697C240.58 191.183 240.77 193.624 241.136 196.007C238.868 195.48 236.504 195.202 234.076 195.202C216.913 195.202 203 209.115 203 226.277C203 243.44 216.913 257.353 234.076 257.353C234.197 257.353 234.318 257.352 234.439 257.351L234.437 257.353H343.563V257.351Z"/>
</mask>
<path fill-rule="evenodd" clip-rule="evenodd" d="M343.563 257.351C343.683 257.352 343.804 257.353 343.924 257.353C361.087 257.353 375 243.44 375 226.277C375 209.115 361.087 195.202 343.924 195.202C343.804 195.202 343.683 195.202 343.563 195.204V195.202H335.535C335.825 193.075 335.975 190.904 335.975 188.697C335.975 162.355 314.62 141 288.277 141C261.935 141 240.58 162.355 240.58 188.697C240.58 191.183 240.77 193.624 241.136 196.007C238.868 195.48 236.504 195.202 234.076 195.202C216.913 195.202 203 209.115 203 226.277C203 243.44 216.913 257.353 234.076 257.353C234.197 257.353 234.318 257.352 234.439 257.351L234.437 257.353H343.563V257.351Z" fill="url(#paint15_linear_204_1453)" shape-rendering="crispEdges"/>
<path d="M343.563 257.351L343.586 255.351C343.052 255.345 342.537 255.553 342.157 255.929C341.777 256.304 341.563 256.816 341.563 257.351H343.563ZM343.563 195.204H341.563C341.563 195.738 341.777 196.25 342.157 196.626C342.537 197.002 343.051 197.21 343.586 197.204L343.563 195.204ZM343.563 195.202H345.563C345.563 194.097 344.668 193.202 343.563 193.202V195.202ZM335.535 195.202L333.553 194.931C333.475 195.504 333.649 196.082 334.028 196.517C334.408 196.952 334.957 197.202 335.535 197.202V195.202ZM241.136 196.007L240.684 197.955C241.33 198.106 242.009 197.925 242.496 197.474C242.983 197.023 243.214 196.359 243.113 195.703L241.136 196.007ZM234.439 257.351L236.008 258.59C236.486 257.985 236.573 257.16 236.233 256.468C235.893 255.777 235.186 255.342 234.416 255.351L234.439 257.351ZM234.437 257.353L232.867 256.114C232.392 256.715 232.303 257.535 232.637 258.225C232.971 258.915 233.67 259.353 234.437 259.353V257.353ZM343.563 257.353V259.353C344.668 259.353 345.563 258.458 345.563 257.353H343.563ZM343.54 259.351C343.668 259.352 343.796 259.353 343.924 259.353V255.353C343.811 255.353 343.699 255.352 343.586 255.351L343.54 259.351ZM343.924 259.353C362.192 259.353 377 244.544 377 226.277H373C373 242.335 359.982 255.353 343.924 255.353V259.353ZM377 226.277C377 208.01 362.192 193.202 343.924 193.202V197.202C359.982 197.202 373 210.219 373 226.277H377ZM343.924 193.202C343.796 193.202 343.668 193.202 343.54 193.204L343.586 197.204C343.699 197.202 343.811 197.202 343.924 197.202V193.202ZM341.563 195.202V195.204H345.563V195.202H341.563ZM335.535 197.202H343.563V193.202H335.535V197.202ZM337.517 195.472C337.819 193.256 337.975 190.994 337.975 188.697H333.975C333.975 190.813 333.831 192.894 333.553 194.931L337.517 195.472ZM337.975 188.697C337.975 161.25 315.724 139 288.277 139V143C313.515 143 333.975 163.459 333.975 188.697H337.975ZM288.277 139C260.83 139 238.58 161.25 238.58 188.697H242.58C242.58 163.459 263.039 143 288.277 143V139ZM238.58 188.697C238.58 191.285 238.778 193.828 239.16 196.311L243.113 195.703C242.762 193.421 242.58 191.081 242.58 188.697H238.58ZM241.589 194.059C239.173 193.498 236.658 193.202 234.076 193.202V197.202C236.351 197.202 238.563 197.463 240.684 197.955L241.589 194.059ZM234.076 193.202C215.808 193.202 201 208.01 201 226.277H205C205 210.219 218.018 197.202 234.076 197.202V193.202ZM201 226.277C201 244.544 215.808 259.353 234.076 259.353V255.353C218.018 255.353 205 242.335 205 226.277H201ZM234.076 259.353C234.204 259.353 234.333 259.352 234.461 259.351L234.416 255.351C234.303 255.352 234.189 255.353 234.076 255.353V259.353ZM236.007 258.592L236.008 258.59L232.869 256.112L232.867 256.114L236.007 258.592ZM343.563 255.353H234.437V259.353H343.563V255.353ZM341.563 257.351V257.353H345.563V257.351H341.563Z" fill="url(#paint16_linear_204_1453)" mask="url(#path-17-inside-3_204_1453)"/>
</g>
<defs>
<filter id="filter0_bd_204_1453" x="143" y="282" width="130" height="127" filterUnits="userSpaceOnUse" color-interpolation-filters="sRGB">
<feFlood flood-opacity="0" result="BackgroundImageFix"/>
<feGaussianBlur in="BackgroundImage" stdDeviation="7"/>
<feComposite in2="SourceAlpha" operator="in" result="effect1_backgroundBlur_204_1453"/>
<feColorMatrix in="SourceAlpha" type="matrix" values="0 0 0 0 0 0 0 0 0 0 0 0 0 0 0 0 0 0 127 0" result="hardAlpha"/>
<feOffset dx="-21" dy="15"/>
<feGaussianBlur stdDeviation="25"/>
<feComposite in2="hardAlpha" operator="out"/>
<feColorMatrix type="matrix" values="0 0 0 0 0.113438 0 0 0 0 0.148981 0 0 0 0 0.275 0 0 0 0.25 0"/>
<feBlend mode="normal" in2="effect1_backgroundBlur_204_1453" result="effect2_dropShadow_204_1453"/>
<feBlend mode="normal" in="SourceGraphic" in2="effect2_dropShadow_204_1453" result="shape"/>
</filter>
<filter id="filter1_bd_204_1453" x="100" y="282" width="130" height="127" filterUnits="userSpaceOnUse" color-interpolation-filters="sRGB">
<feFlood flood-opacity="0" result="BackgroundImageFix"/>
<feGaussianBlur in="BackgroundImage" stdDeviation="7"/>
<feComposite in2="SourceAlpha" operator="in" result="effect1_backgroundBlur_204_1453"/>
<feColorMatrix in="SourceAlpha" type="matrix" values="0 0 0 0 0 0 0 0 0 0 0 0 0 0 0 0 0 0 127 0" result="hardAlpha"/>
<feOffset dx="-21" dy="15"/>
<feGaussianBlur stdDeviation="25"/>
<feComposite in2="hardAlpha" operator="out"/>
<feColorMatrix type="matrix" values="0 0 0 0 0.113438 0 0 0 0 0.148981 0 0 0 0 0.275 0 0 0 0.25 0"/>
<feBlend mode="normal" in2="effect1_backgroundBlur_204_1453" result="effect2_dropShadow_204_1453"/>
<feBlend mode="normal" in="SourceGraphic" in2="effect2_dropShadow_204_1453" result="shape"/>
</filter>
<filter id="filter2_bd_204_1453" x="57" y="282" width="130" height="127" filterUnits="userSpaceOnUse" color-interpolation-filters="sRGB">
<feFlood flood-opacity="0" result="BackgroundImageFix"/>
<feGaussianBlur in="BackgroundImage" stdDeviation="7"/>
<feComposite in2="SourceAlpha" operator="in" result="effect1_backgroundBlur_204_1453"/>
<feColorMatrix in="SourceAlpha" type="matrix" values="0 0 0 0 0 0 0 0 0 0 0 0 0 0 0 0 0 0 127 0" result="hardAlpha"/>
<feOffset dx="-21" dy="15"/>
<feGaussianBlur stdDeviation="25"/>
<feComposite in2="hardAlpha" operator="out"/>
<feColorMatrix type="matrix" values="0 0 0 0 0.113438 0 0 0 0 0.148981 0 0 0 0 0.275 0 0 0 0.25 0"/>
<feBlend mode="normal" in2="effect1_backgroundBlur_204_1453" result="effect2_dropShadow_204_1453"/>
<feBlend mode="normal" in="SourceGraphic" in2="effect2_dropShadow_204_1453" result="shape"/>
</filter>
<filter id="filter3_bd_204_1453" x="72" y="323" width="130" height="127" filterUnits="userSpaceOnUse" color-interpolation-filters="sRGB">
<feFlood flood-opacity="0" result="BackgroundImageFix"/>
<feGaussianBlur in="BackgroundImage" stdDeviation="7"/>
<feComposite in2="SourceAlpha" operator="in" result="effect1_backgroundBlur_204_1453"/>
<feColorMatrix in="SourceAlpha" type="matrix" values="0 0 0 0 0 0 0 0 0 0 0 0 0 0 0 0 0 0 127 0" result="hardAlpha"/>
<feOffset dx="-21" dy="15"/>
<feGaussianBlur stdDeviation="25"/>
<feComposite in2="hardAlpha" operator="out"/>
<feColorMatrix type="matrix" values="0 0 0 0 0.113438 0 0 0 0 0.148981 0 0 0 0 0.275 0 0 0 0.25 0"/>
<feBlend mode="normal" in2="effect1_backgroundBlur_204_1453" result="effect2_dropShadow_204_1453"/>
<feBlend mode="normal" in="SourceGraphic" in2="effect2_dropShadow_204_1453" result="shape"/>
</filter>
<filter id="filter4_bd_204_1453" x="113" y="323" width="130" height="127" filterUnits="userSpaceOnUse" color-interpolation-filters="sRGB">
<feFlood flood-opacity="0" result="BackgroundImageFix"/>
<feGaussianBlur in="BackgroundImage" stdDeviation="7"/>
<feComposite in2="SourceAlpha" operator="in" result="effect1_backgroundBlur_204_1453"/>
<feColorMatrix in="SourceAlpha" type="matrix" values="0 0 0 0 0 0 0 0 0 0 0 0 0 0 0 0 0 0 127 0" result="hardAlpha"/>
<feOffset dx="-21" dy="15"/>
<feGaussianBlur stdDeviation="25"/>
<feComposite in2="hardAlpha" operator="out"/>
<feColorMatrix type="matrix" values="0 0 0 0 0.113438 0 0 0 0 0.148981 0 0 0 0 0.275 0 0 0 0.25 0"/>
<feBlend mode="normal" in2="effect1_backgroundBlur_204_1453" result="effect2_dropShadow_204_1453"/>
<feBlend mode="normal" in="SourceGraphic" in2="effect2_dropShadow_204_1453" result="shape"/>
</filter>
<filter id="filter5_bdd_204_1453" x="87.4668" y="0.0761719" width="232.434" height="231.793" filterUnits="userSpaceOnUse" color-interpolation-filters="sRGB">
<feFlood flood-opacity="0" result="BackgroundImageFix"/>
<feGaussianBlur in="BackgroundImage" stdDeviation="7"/>
<feComposite in2="SourceAlpha" operator="in" result="effect1_backgroundBlur_204_1453"/>
<feColorMatrix in="SourceAlpha" type="matrix" values="0 0 0 0 0 0 0 0 0 0 0 0 0 0 0 0 0 0 127 0" result="hardAlpha"/>
<feOffset dx="-21" dy="15"/>
<feGaussianBlur stdDeviation="25"/>
<feComposite in2="hardAlpha" operator="out"/>
<feColorMatrix type="matrix" values="0 0 0 0 0.113438 0 0 0 0 0.148981 0 0 0 0 0.275 0 0 0 0.25 0"/>
<feBlend mode="normal" in2="effect1_backgroundBlur_204_1453" result="effect2_dropShadow_204_1453"/>
<feColorMatrix in="SourceAlpha" type="matrix" values="0 0 0 0 0 0 0 0 0 0 0 0 0 0 0 0 0 0 127 0" result="hardAlpha"/>
<feOffset/>
<feGaussianBlur stdDeviation="19"/>
<feComposite in2="hardAlpha" operator="out"/>
<feColorMatrix type="matrix" values="0 0 0 0 0.619608 0 0 0 0 0.423529 0 0 0 0 1 0 0 0 0.4 0"/>
<feBlend mode="normal" in2="effect2_dropShadow_204_1453" result="effect3_dropShadow_204_1453"/>
<feBlend mode="normal" in="SourceGraphic" in2="effect3_dropShadow_204_1453" result="shape"/>
</filter>
<filter id="filter6_f_204_1453" x="82" y="197" width="266" height="114" filterUnits="userSpaceOnUse" color-interpolation-filters="sRGB">
<feFlood flood-opacity="0" result="BackgroundImageFix"/>
<feBlend mode="normal" in="SourceGraphic" in2="BackgroundImageFix" result="shape"/>
<feGaussianBlur stdDeviation="7" result="effect1_foregroundBlur_204_1453"/>
</filter>
<filter id="filter7_bd_204_1453" x="0" y="106" width="338" height="261" filterUnits="userSpaceOnUse" color-interpolation-filters="sRGB">
<feFlood flood-opacity="0" result="BackgroundImageFix"/>
<feGaussianBlur in="BackgroundImage" stdDeviation="7"/>
<feComposite in2="SourceAlpha" operator="in" result="effect1_backgroundBlur_204_1453"/>
<feColorMatrix in="SourceAlpha" type="matrix" values="0 0 0 0 0 0 0 0 0 0 0 0 0 0 0 0 0 0 127 0" result="hardAlpha"/>
<feOffset dx="-21" dy="15"/>
<feGaussianBlur stdDeviation="25"/>
<feComposite in2="hardAlpha" operator="out"/>
<feColorMatrix type="matrix" values="0 0 0 0 0.113725 0 0 0 0 0.14902 0 0 0 0 0.27451 0 0 0 0.25 0"/>
<feBlend mode="normal" in2="effect1_backgroundBlur_204_1453" result="effect2_dropShadow_204_1453"/>
<feBlend mode="normal" in="SourceGraphic" in2="effect2_dropShadow_204_1453" result="shape"/>
</filter>
<filter id="filter8_bd_204_1453" x="132" y="106" width="272" height="216.353" filterUnits="userSpaceOnUse" color-interpolation-filters="sRGB">
<feFlood flood-opacity="0" result="BackgroundImageFix"/>
<feGaussianBlur in="BackgroundImage" stdDeviation="7"/>
<feComposite in2="SourceAlpha" operator="in" result="effect1_backgroundBlur_204_1453"/>
<feColorMatrix in="SourceAlpha" type="matrix" values="0 0 0 0 0 0 0 0 0 0 0 0 0 0 0 0 0 0 127 0" result="hardAlpha"/>
<feOffset dx="-21" dy="15"/>
<feGaussianBlur stdDeviation="25"/>
<feComposite in2="hardAlpha" operator="out"/>
<feColorMatrix type="matrix" values="0 0 0 0 0.113438 0 0 0 0 0.148981 0 0 0 0 0.275 0 0 0 0.25 0"/>
<feBlend mode="normal" in2="effect1_backgroundBlur_204_1453" result="effect2_dropShadow_204_1453"/>
<feBlend mode="normal" in="SourceGraphic" in2="effect2_dropShadow_204_1453" result="shape"/>
</filter>
<linearGradient id="paint0_linear_204_1453" x1="230.395" y1="317.812" x2="230.395" y2="347.051" gradientUnits="userSpaceOnUse">
<stop stop-color="white"/>
<stop offset="1" stop-color="white" stop-opacity="0"/>
</linearGradient>
<linearGradient id="paint1_linear_204_1453" x1="229" y1="317" x2="229" y2="344" gradientUnits="userSpaceOnUse">
<stop stop-color="white"/>
<stop offset="1" stop-color="white" stop-opacity="0"/>
</linearGradient>
<linearGradient id="paint2_linear_204_1453" x1="187.395" y1="317.812" x2="187.395" y2="347.051" gradientUnits="userSpaceOnUse">
<stop stop-color="white"/>
<stop offset="1" stop-color="white" stop-opacity="0"/>
</linearGradient>
<linearGradient id="paint3_linear_204_1453" x1="186" y1="317" x2="186" y2="344" gradientUnits="userSpaceOnUse">
<stop stop-color="white"/>
<stop offset="1" stop-color="white" stop-opacity="0"/>
</linearGradient>
<linearGradient id="paint4_linear_204_1453" x1="144.395" y1="317.812" x2="144.395" y2="347.051" gradientUnits="userSpaceOnUse">
<stop stop-color="white"/>
<stop offset="1" stop-color="white" stop-opacity="0"/>
</linearGradient>
<linearGradient id="paint5_linear_204_1453" x1="143" y1="317" x2="143" y2="344" gradientUnits="userSpaceOnUse">
<stop stop-color="white"/>
<stop offset="1" stop-color="white" stop-opacity="0"/>
</linearGradient>
<linearGradient id="paint6_linear_204_1453" x1="159.395" y1="358.812" x2="159.395" y2="388.051" gradientUnits="userSpaceOnUse">
<stop stop-color="white"/>
<stop offset="1" stop-color="white" stop-opacity="0"/>
</linearGradient>
<linearGradient id="paint7_linear_204_1453" x1="158" y1="358" x2="158" y2="385" gradientUnits="userSpaceOnUse">
<stop stop-color="white"/>
<stop offset="1" stop-color="white" stop-opacity="0"/>
</linearGradient>
<linearGradient id="paint8_linear_204_1453" x1="200.395" y1="358.812" x2="200.395" y2="388.051" gradientUnits="userSpaceOnUse">
<stop stop-color="white"/>
<stop offset="1" stop-color="white" stop-opacity="0"/>
</linearGradient>
<linearGradient id="paint9_linear_204_1453" x1="199" y1="358" x2="199" y2="385" gradientUnits="userSpaceOnUse">
<stop stop-color="white"/>
<stop offset="1" stop-color="white" stop-opacity="0"/>
</linearGradient>
<linearGradient id="paint10_linear_204_1453" x1="181.067" y1="52.1079" x2="240.39" y2="167.44" gradientUnits="userSpaceOnUse">
<stop offset="0.0001" stop-color="#D4C0FF"/>
<stop offset="1" stop-color="#7E2FFF"/>
</linearGradient>
<linearGradient id="paint11_linear_204_1453" x1="187.197" y1="-11.14" x2="223.703" y2="140.225" gradientUnits="userSpaceOnUse">
<stop stop-color="white"/>
<stop offset="1" stop-color="white" stop-opacity="0"/>
</linearGradient>
<linearGradient id="paint12_linear_204_1453" x1="244" y1="87" x2="244" y2="205" gradientUnits="userSpaceOnUse">
<stop stop-color="#FFD600"/>
<stop offset="1" stop-color="#FF7A00"/>
</linearGradient>
<linearGradient id="paint13_linear_204_1453" x1="190" y1="89.5" x2="190" y2="324.5" gradientUnits="userSpaceOnUse">
<stop stop-color="white"/>
<stop offset="1" stop-color="white" stop-opacity="0"/>
</linearGradient>
<linearGradient id="paint14_linear_204_1453" x1="190" y1="141" x2="190" y2="302" gradientUnits="userSpaceOnUse">
<stop stop-color="white"/>
<stop offset="1" stop-color="white" stop-opacity="0"/>
</linearGradient>
<linearGradient id="paint15_linear_204_1453" x1="297" y1="144.5" x2="297" y2="270.5" gradientUnits="userSpaceOnUse">
<stop stop-color="white"/>
<stop offset="1" stop-color="white" stop-opacity="0"/>
</linearGradient>
<linearGradient id="paint16_linear_204_1453" x1="289" y1="141" x2="289" y2="257.353" gradientUnits="userSpaceOnUse">
<stop stop-color="white"/>
<stop offset="1" stop-color="white" stop-opacity="0"/>
</linearGradient>
</defs>
</svg>
