<svg width="20" height="20" viewBox="0 0 20 20" fill="none" xmlns="http://www.w3.org/2000/svg">
<path d="M12.1314 0.22778C12.5361 0.31569 12.793 0.71509 12.7051 1.11986C12.6172 1.52464 12.2178 1.78152 11.813 1.69362C11.2222 1.56532 10.6156 1.5 10 1.5C5.30558 1.5 1.5 5.30558 1.5 10C1.5 14.6944 5.30558 18.5 10 18.5C14.6944 18.5 18.5 14.6944 18.5 10C18.5 9.4103 18.4401 8.8289 18.3222 8.2616C18.238 7.85608 18.4985 7.45902 18.904 7.37478C19.3096 7.29054 19.7067 7.55101 19.7909 7.95657C19.9295 8.624 20 9.3077 20 10C20 15.5228 15.5228 20 10 20C4.47715 20 0 15.5228 0 10C0 4.47715 4.47715 0 10 0C10.7228 0 11.4361 0.0768101 12.1314 0.22778Z" fill="black"/>
<path fill-rule="evenodd" clip-rule="evenodd" d="M11.348 8.6533C11.6409 8.9461 12.1158 8.946 12.4086 8.6531L16.0304 5.03025C16.3233 4.73732 16.3232 4.26244 16.0303 3.96959C15.7373 3.67674 15.2624 3.67681 14.9696 3.96975L11.3478 7.59259C11.055 7.88553 11.055 8.3604 11.348 8.6533ZM6.21961 13.7803C6.51248 14.0732 6.98735 14.0732 7.28028 13.7804L8.5308 12.5301C8.8237 12.2373 8.8238 11.7624 8.5309 11.4695C8.238 11.1766 7.76315 11.1765 7.47023 11.4694L6.21972 12.7196C5.9268 13.0125 5.92675 13.4874 6.21961 13.7803Z" fill="black"/>
<path fill-rule="evenodd" clip-rule="evenodd" d="M12.75 3.75C12.75 3.33579 13.0858 3 13.5 3H16.25C16.6642 3 17 3.33579 17 3.75C17 4.16421 16.6642 4.5 16.25 4.5H13.5C13.0858 4.5 12.75 4.16421 12.75 3.75Z" fill="black"/>
<path fill-rule="evenodd" clip-rule="evenodd" d="M15.5 3.75C15.5 3.33579 15.8358 3 16.25 3C16.6642 3 17 3.33579 17 3.75V6.5C17 6.91421 16.6642 7.25 16.25 7.25C15.8358 7.25 15.5 6.91421 15.5 6.5V3.75Z" fill="black"/>
<path fill-rule="evenodd" clip-rule="evenodd" d="M7 10C7 11.6569 8.3431 13 10 13C11.6569 13 13 11.6569 13 10C13 8.3431 11.6569 7 10 7C8.3431 7 7 8.3431 7 10ZM11.5 10C11.5 10.8284 10.8284 11.5 10 11.5C9.1716 11.5 8.5 10.8284 8.5 10C8.5 9.1716 9.1716 8.5 10 8.5C10.8284 8.5 11.5 9.1716 11.5 10Z" fill="black"/>
</svg>
