<svg width="404" height="339" viewBox="0 0 404 339" fill="none" xmlns="http://www.w3.org/2000/svg">
<g filter="url(#filter0_bd_2_587)">
<mask id="path-1-inside-1_2_587" fill="white">
<path fill-rule="evenodd" clip-rule="evenodd" d="M265.5 195.997C265.666 195.999 265.833 196 266 196C289.748 196 309 176.748 309 153C309 129.252 289.748 110 266 110C265.833 110 265.666 110.001 265.5 110.003V110H254.391C254.793 107.057 255 104.053 255 101C255 64.5492 225.451 35 189 35C152.549 35 123 64.5492 123 101C123 104.439 123.263 107.817 123.77 111.115C120.631 110.386 117.361 110 114 110C90.2518 110 71 129.252 71 153C71 176.748 90.2518 196 114 196C114.168 196 114.335 195.999 114.502 195.997L114.5 196H265.5V195.997Z"/>
</mask>
<path fill-rule="evenodd" clip-rule="evenodd" d="M265.5 195.997C265.666 195.999 265.833 196 266 196C289.748 196 309 176.748 309 153C309 129.252 289.748 110 266 110C265.833 110 265.666 110.001 265.5 110.003V110H254.391C254.793 107.057 255 104.053 255 101C255 64.5492 225.451 35 189 35C152.549 35 123 64.5492 123 101C123 104.439 123.263 107.817 123.77 111.115C120.631 110.386 117.361 110 114 110C90.2518 110 71 129.252 71 153C71 176.748 90.2518 196 114 196C114.168 196 114.335 195.999 114.502 195.997L114.5 196H265.5V195.997Z" fill="url(#paint0_linear_2_587)" shape-rendering="crispEdges"/>
<path d="M265.5 195.997L265.523 193.997C264.988 193.991 264.474 194.199 264.094 194.575C263.714 194.951 263.5 195.463 263.5 195.997H265.5ZM265.5 110.003H263.5C263.5 110.537 263.714 111.049 264.094 111.425C264.474 111.801 264.988 112.009 265.523 112.003L265.5 110.003ZM265.5 110H267.5C267.5 108.895 266.605 108 265.5 108V110ZM254.391 110L252.41 109.73C252.332 110.302 252.505 110.88 252.885 111.315C253.265 111.75 253.814 112 254.391 112V110ZM123.77 111.115L123.318 113.063C123.964 113.213 124.643 113.033 125.13 112.582C125.617 112.13 125.848 111.467 125.747 110.811L123.77 111.115ZM114.502 195.997L116.072 197.237C116.549 196.632 116.637 195.807 116.297 195.115C115.957 194.423 115.25 193.988 114.479 193.997L114.502 195.997ZM114.5 196L112.931 194.76C112.455 195.362 112.366 196.182 112.7 196.872C113.034 197.562 113.733 198 114.5 198V196ZM265.5 196V198C266.605 198 267.5 197.105 267.5 196H265.5ZM265.477 197.997C265.651 197.999 265.825 198 266 198V194C265.841 194 265.682 193.999 265.523 193.997L265.477 197.997ZM266 198C290.853 198 311 177.853 311 153H307C307 175.644 288.644 194 266 194V198ZM311 153C311 128.147 290.853 108 266 108V112C288.644 112 307 130.356 307 153H311ZM266 108C265.826 108 265.651 108.001 265.477 108.003L265.523 112.003C265.682 112.001 265.841 112 266 112V108ZM263.5 110V110.003H267.5V110H263.5ZM254.391 112H265.5V108H254.391V112ZM256.373 110.27C256.787 107.238 257 104.143 257 101H253C253 103.962 252.799 106.876 252.41 109.73L256.373 110.27ZM257 101C257 63.4446 226.555 33 189 33V37C224.346 37 253 65.6538 253 101H257ZM189 33C151.445 33 121 63.4446 121 101H125C125 65.6538 153.654 37 189 37V33ZM121 101C121 104.542 121.271 108.021 121.793 111.419L125.747 110.811C125.255 107.614 125 104.337 125 101H121ZM124.223 109.167C120.937 108.403 117.514 108 114 108V112C117.207 112 120.326 112.368 123.318 113.063L124.223 109.167ZM114 108C89.1472 108 69 128.147 69 153H73C73 130.356 91.3563 112 114 112V108ZM69 153C69 177.853 89.1472 198 114 198V194C91.3563 194 73 175.644 73 153H69ZM114 198C114.175 198 114.35 197.999 114.525 197.997L114.479 193.997C114.32 193.999 114.16 194 114 194V198ZM116.069 197.24L116.072 197.237L112.933 194.757L112.931 194.76L116.069 197.24ZM265.5 194H114.5V198H265.5V194ZM263.5 195.997V196H267.5V195.997H263.5Z" fill="url(#paint1_linear_2_587)" mask="url(#path-1-inside-1_2_587)"/>
</g>
<g filter="url(#filter1_bd_2_587)">
<mask id="path-3-inside-2_2_587" fill="white">
<path fill-rule="evenodd" clip-rule="evenodd" d="M343.563 151.351C343.683 151.352 343.804 151.353 343.924 151.353C361.087 151.353 375 137.44 375 120.277C375 103.115 361.087 89.2017 343.924 89.2017C343.804 89.2017 343.683 89.2024 343.563 89.2037V89.2017H335.535C335.825 87.075 335.975 84.9037 335.975 82.6975C335.975 56.3549 314.62 35 288.277 35C261.935 35 240.58 56.3549 240.58 82.6975C240.58 85.1831 240.77 87.6243 241.136 90.0074C238.868 89.4803 236.504 89.2017 234.076 89.2017C216.913 89.2017 203 103.115 203 120.277C203 137.44 216.913 151.353 234.076 151.353C234.197 151.353 234.318 151.352 234.439 151.351L234.437 151.353H343.563V151.351Z"/>
</mask>
<path fill-rule="evenodd" clip-rule="evenodd" d="M343.563 151.351C343.683 151.352 343.804 151.353 343.924 151.353C361.087 151.353 375 137.44 375 120.277C375 103.115 361.087 89.2017 343.924 89.2017C343.804 89.2017 343.683 89.2024 343.563 89.2037V89.2017H335.535C335.825 87.075 335.975 84.9037 335.975 82.6975C335.975 56.3549 314.62 35 288.277 35C261.935 35 240.58 56.3549 240.58 82.6975C240.58 85.1831 240.77 87.6243 241.136 90.0074C238.868 89.4803 236.504 89.2017 234.076 89.2017C216.913 89.2017 203 103.115 203 120.277C203 137.44 216.913 151.353 234.076 151.353C234.197 151.353 234.318 151.352 234.439 151.351L234.437 151.353H343.563V151.351Z" fill="url(#paint2_linear_2_587)" shape-rendering="crispEdges"/>
<path d="M343.563 151.351L343.586 149.351C343.052 149.345 342.537 149.553 342.157 149.929C341.777 150.304 341.563 150.816 341.563 151.351H343.563ZM343.563 89.2037H341.563C341.563 89.7381 341.777 90.2503 342.157 90.626C342.537 91.0017 343.051 91.2097 343.586 91.2036L343.563 89.2037ZM343.563 89.2017H345.563C345.563 88.0971 344.668 87.2017 343.563 87.2017V89.2017ZM335.535 89.2017L333.553 88.9315C333.475 89.5037 333.649 90.0818 334.028 90.5169C334.408 90.952 334.957 91.2017 335.535 91.2017V89.2017ZM241.136 90.0074L240.684 91.9555C241.33 92.1057 242.009 91.9253 242.496 91.4741C242.983 91.0228 243.214 90.3594 243.113 89.7033L241.136 90.0074ZM234.439 151.351L236.008 152.59C236.486 151.985 236.573 151.16 236.233 150.468C235.893 149.777 235.186 149.342 234.416 149.351L234.439 151.351ZM234.437 151.353L232.867 150.114C232.392 150.715 232.303 151.535 232.637 152.225C232.971 152.915 233.67 153.353 234.437 153.353V151.353ZM343.563 151.353V153.353C344.668 153.353 345.563 152.458 345.563 151.353H343.563ZM343.54 153.351C343.668 153.352 343.796 153.353 343.924 153.353V149.353C343.811 149.353 343.699 149.352 343.586 149.351L343.54 153.351ZM343.924 153.353C362.192 153.353 377 138.544 377 120.277H373C373 136.335 359.982 149.353 343.924 149.353V153.353ZM377 120.277C377 102.01 362.192 87.2017 343.924 87.2017V91.2017C359.982 91.2017 373 104.219 373 120.277H377ZM343.924 87.2017C343.796 87.2017 343.668 87.2024 343.54 87.2039L343.586 91.2036C343.699 91.2023 343.811 91.2017 343.924 91.2017V87.2017ZM341.563 89.2017V89.2037H345.563V89.2017H341.563ZM335.535 91.2017H343.563V87.2017H335.535V91.2017ZM337.517 89.4719C337.819 87.2559 337.975 84.9944 337.975 82.6975H333.975C333.975 84.8131 333.831 86.8941 333.553 88.9315L337.517 89.4719ZM337.975 82.6975C337.975 55.2503 315.724 33 288.277 33V37C313.515 37 333.975 57.4595 333.975 82.6975H337.975ZM288.277 33C260.83 33 238.58 55.2503 238.58 82.6975H242.58C242.58 57.4595 263.039 37 288.277 37V33ZM238.58 82.6975C238.58 85.2852 238.778 87.8281 239.16 90.3114L243.113 89.7033C242.762 87.4205 242.58 85.081 242.58 82.6975H238.58ZM241.589 88.0592C239.173 87.498 236.658 87.2017 234.076 87.2017V91.2017C236.351 91.2017 238.563 91.4627 240.684 91.9555L241.589 88.0592ZM234.076 87.2017C215.808 87.2017 201 102.01 201 120.277H205C205 104.219 218.018 91.2017 234.076 91.2017V87.2017ZM201 120.277C201 138.544 215.808 153.353 234.076 153.353V149.353C218.018 149.353 205 136.335 205 120.277H201ZM234.076 153.353C234.204 153.353 234.333 153.352 234.461 153.351L234.416 149.351C234.303 149.352 234.189 149.353 234.076 149.353V153.353ZM236.007 152.592L236.008 152.59L232.869 150.112L232.867 150.114L236.007 152.592ZM343.563 149.353H234.437V153.353H343.563V149.353ZM341.563 151.351V151.353H345.563V151.351H341.563Z" fill="url(#paint3_linear_2_587)" mask="url(#path-3-inside-2_2_587)"/>
</g>
<g filter="url(#filter2_bd_2_587)">
<path d="M250 218.477H244.521L246.632 216.367L245.186 214.921L241.629 218.477H236.771L239.2 214.272L244.059 212.97L243.53 210.994L240.646 211.767L243.386 207.023L241.614 206L238.875 210.744L238.102 207.861L236.126 208.39L237.429 213.249L235 217.455L232.572 213.249L233.873 208.39L231.898 207.861L231.125 210.744L228.386 206L226.614 207.023L229.354 211.767L226.47 210.994L225.941 212.97L230.8 214.272L233.229 218.477H228.372L224.814 214.92L223.368 216.367L225.479 218.477H220V220.523H225.479L223.368 222.633L224.814 224.08L228.372 220.523H233.229L230.8 224.728L225.94 226.03L226.47 228.006L229.354 227.233L226.614 231.977L228.386 233L231.125 228.256L231.898 231.139L233.873 230.61L232.571 225.751L235 221.545L237.429 225.751L236.126 230.61L238.102 231.139L238.875 228.256L241.614 233L243.386 231.977L240.646 227.233L243.53 228.006L244.059 226.03L239.2 224.728L236.771 220.523H241.628L245.186 224.08L246.632 222.633L244.521 220.523H250V218.477Z" fill="url(#paint4_linear_2_587)" shape-rendering="crispEdges"/>
<path d="M243.814 221.23L245.218 222.633L245.186 222.665L242.336 219.815C242.148 219.628 241.894 219.523 241.628 219.523H236.771C236.414 219.523 236.084 219.713 235.905 220.023C235.727 220.332 235.727 220.713 235.905 221.023L238.334 225.229C238.467 225.458 238.685 225.626 238.941 225.694L242.835 226.737L242.823 226.781L240.905 226.267C240.514 226.163 240.099 226.304 239.853 226.625C239.607 226.945 239.578 227.383 239.78 227.733L242.02 231.611L241.98 231.634L239.741 227.756C239.539 227.406 239.145 227.212 238.744 227.264C238.343 227.317 238.014 227.606 237.909 227.997L237.395 229.915L237.351 229.903L238.395 226.01C238.463 225.754 238.427 225.481 238.295 225.251L235.866 221.045C235.687 220.736 235.357 220.545 235 220.545C234.643 220.545 234.313 220.736 234.134 221.045L231.705 225.251C231.573 225.481 231.537 225.754 231.605 226.01L232.649 229.903L232.605 229.915L232.091 227.997C231.986 227.606 231.657 227.317 231.256 227.264C230.855 227.212 230.461 227.406 230.259 227.756L228.02 231.634L227.98 231.611L230.22 227.733C230.422 227.383 230.393 226.945 230.147 226.624C229.901 226.304 229.486 226.163 229.095 226.267L227.177 226.781L227.165 226.737L231.059 225.694C231.315 225.626 231.533 225.458 231.666 225.228L234.095 221.023C234.273 220.713 234.273 220.332 234.095 220.023C233.916 219.713 233.586 219.523 233.229 219.523H228.372C228.106 219.523 227.852 219.628 227.664 219.815L224.814 222.665L224.782 222.633L226.186 221.23C226.472 220.944 226.557 220.514 226.403 220.14C226.248 219.766 225.883 219.523 225.479 219.523H221V219.477H225.479C225.883 219.477 226.248 219.234 226.403 218.86C226.557 218.486 226.472 218.056 226.186 217.77L224.782 216.367L224.814 216.335L227.664 219.185C227.852 219.372 228.106 219.477 228.372 219.477H233.229C233.586 219.477 233.916 219.287 234.095 218.977C234.273 218.668 234.273 218.287 234.095 217.977L231.666 213.771C231.533 213.542 231.315 213.374 231.059 213.306L227.165 212.263L227.177 212.219L229.095 212.733C229.486 212.837 229.901 212.696 230.147 212.375C230.393 212.054 230.422 211.617 230.22 211.267L227.98 207.389L228.02 207.366L230.259 211.244C230.461 211.594 230.855 211.788 231.256 211.736C231.657 211.683 231.986 211.394 232.091 211.003L232.605 209.086L232.649 209.097L231.606 212.99C231.537 213.246 231.573 213.519 231.706 213.749L234.134 217.955C234.313 218.264 234.643 218.455 235 218.455C235.357 218.455 235.687 218.264 235.866 217.955L238.295 213.749C238.427 213.519 238.463 213.246 238.395 212.99L237.351 209.097L237.395 209.086L237.909 211.003C238.014 211.394 238.343 211.683 238.744 211.736C239.145 211.788 239.539 211.594 239.741 211.244L241.98 207.366L242.02 207.389L239.78 211.267C239.578 211.617 239.607 212.055 239.853 212.375C240.099 212.696 240.514 212.837 240.905 212.733L242.823 212.219L242.835 212.263L238.941 213.306C238.685 213.374 238.467 213.542 238.334 213.772L235.905 217.977C235.727 218.287 235.727 218.668 235.905 218.977C236.084 219.287 236.414 219.477 236.771 219.477H241.629C241.894 219.477 242.148 219.372 242.336 219.185L245.186 216.335L245.218 216.367L243.814 217.77C243.528 218.056 243.443 218.486 243.597 218.86C243.752 219.234 244.117 219.477 244.521 219.477H249V219.523H244.521C244.117 219.523 243.752 219.766 243.597 220.14C243.443 220.514 243.528 220.944 243.814 221.23Z" stroke="url(#paint5_linear_2_587)" stroke-width="2" stroke-linejoin="round" shape-rendering="crispEdges"/>
</g>
<g filter="url(#filter3_bd_2_587)">
<path d="M207 218.477H201.521L203.632 216.367L202.186 214.921L198.629 218.477H193.771L196.2 214.272L201.059 212.97L200.53 210.994L197.646 211.767L200.386 207.023L198.614 206L195.875 210.744L195.102 207.861L193.126 208.39L194.429 213.249L192 217.455L189.572 213.249L190.873 208.39L188.898 207.861L188.125 210.744L185.386 206L183.614 207.023L186.354 211.767L183.47 210.994L182.941 212.97L187.8 214.272L190.229 218.477H185.372L181.814 214.92L180.368 216.367L182.479 218.477H177V220.523H182.479L180.368 222.633L181.814 224.08L185.372 220.523H190.229L187.8 224.728L182.94 226.03L183.47 228.006L186.354 227.233L183.614 231.977L185.386 233L188.125 228.256L188.898 231.139L190.873 230.61L189.571 225.751L192 221.545L194.429 225.751L193.126 230.61L195.102 231.139L195.875 228.256L198.614 233L200.386 231.977L197.646 227.233L200.53 228.006L201.059 226.03L196.2 224.728L193.771 220.523H198.628L202.186 224.08L203.632 222.633L201.521 220.523H207V218.477Z" fill="url(#paint6_linear_2_587)" shape-rendering="crispEdges"/>
<path d="M200.814 221.23L202.218 222.633L202.186 222.665L199.336 219.815C199.148 219.628 198.894 219.523 198.628 219.523H193.771C193.414 219.523 193.084 219.713 192.905 220.023C192.727 220.332 192.727 220.713 192.905 221.023L195.334 225.229C195.467 225.458 195.685 225.626 195.941 225.694L199.835 226.737L199.823 226.781L197.905 226.267C197.514 226.163 197.099 226.304 196.853 226.625C196.607 226.945 196.578 227.383 196.78 227.733L199.02 231.611L198.98 231.634L196.741 227.756C196.539 227.406 196.145 227.212 195.744 227.264C195.343 227.317 195.014 227.606 194.909 227.997L194.395 229.915L194.351 229.903L195.395 226.01C195.463 225.754 195.427 225.481 195.295 225.251L192.866 221.045C192.687 220.736 192.357 220.545 192 220.545C191.643 220.545 191.313 220.736 191.134 221.045L188.705 225.251C188.573 225.481 188.537 225.754 188.605 226.01L189.649 229.903L189.605 229.915L189.091 227.997C188.986 227.606 188.657 227.317 188.256 227.264C187.855 227.212 187.461 227.406 187.259 227.756L185.02 231.634L184.98 231.611L187.22 227.733C187.422 227.383 187.393 226.945 187.147 226.624C186.901 226.304 186.486 226.163 186.095 226.267L184.177 226.781L184.165 226.737L188.059 225.694C188.315 225.626 188.533 225.458 188.666 225.228L191.095 221.023C191.273 220.713 191.273 220.332 191.095 220.023C190.916 219.713 190.586 219.523 190.229 219.523H185.372C185.106 219.523 184.852 219.628 184.664 219.815L181.814 222.665L181.782 222.633L183.186 221.23C183.472 220.944 183.557 220.514 183.403 220.14C183.248 219.766 182.883 219.523 182.479 219.523H178V219.477H182.479C182.883 219.477 183.248 219.234 183.403 218.86C183.557 218.486 183.472 218.056 183.186 217.77L181.782 216.367L181.814 216.335L184.664 219.185C184.852 219.372 185.106 219.477 185.372 219.477H190.229C190.586 219.477 190.916 219.287 191.095 218.977C191.273 218.668 191.273 218.287 191.095 217.977L188.666 213.771C188.533 213.542 188.315 213.374 188.059 213.306L184.165 212.263L184.177 212.219L186.095 212.733C186.486 212.837 186.901 212.696 187.147 212.375C187.393 212.054 187.422 211.617 187.22 211.267L184.98 207.389L185.02 207.366L187.259 211.244C187.461 211.594 187.855 211.788 188.256 211.736C188.657 211.683 188.986 211.394 189.091 211.003L189.605 209.086L189.649 209.097L188.606 212.99C188.537 213.246 188.573 213.519 188.706 213.749L191.134 217.955C191.313 218.264 191.643 218.455 192 218.455C192.357 218.455 192.687 218.264 192.866 217.955L195.295 213.749C195.427 213.519 195.463 213.246 195.395 212.99L194.351 209.097L194.395 209.086L194.909 211.003C195.014 211.394 195.343 211.683 195.744 211.736C196.145 211.788 196.539 211.594 196.741 211.244L198.98 207.366L199.02 207.389L196.78 211.267C196.578 211.617 196.607 212.055 196.853 212.375C197.099 212.696 197.514 212.837 197.905 212.733L199.823 212.219L199.835 212.263L195.941 213.306C195.685 213.374 195.467 213.542 195.334 213.772L192.905 217.977C192.727 218.287 192.727 218.668 192.905 218.977C193.084 219.287 193.414 219.477 193.771 219.477H198.629C198.894 219.477 199.148 219.372 199.336 219.185L202.186 216.335L202.218 216.367L200.814 217.77C200.528 218.056 200.443 218.486 200.597 218.86C200.752 219.234 201.117 219.477 201.521 219.477H206V219.523H201.521C201.117 219.523 200.752 219.766 200.597 220.14C200.443 220.514 200.528 220.944 200.814 221.23Z" stroke="url(#paint7_linear_2_587)" stroke-width="2" stroke-linejoin="round" shape-rendering="crispEdges"/>
</g>
<g filter="url(#filter4_bd_2_587)">
<path d="M164 218.477H158.521L160.632 216.367L159.186 214.921L155.629 218.477H150.771L153.2 214.272L158.059 212.97L157.53 210.994L154.646 211.767L157.386 207.023L155.614 206L152.875 210.744L152.102 207.861L150.126 208.39L151.429 213.249L149 217.455L146.572 213.249L147.873 208.39L145.898 207.861L145.125 210.744L142.386 206L140.614 207.023L143.354 211.767L140.47 210.994L139.941 212.97L144.8 214.272L147.229 218.477H142.372L138.814 214.92L137.368 216.367L139.479 218.477H134V220.523H139.479L137.368 222.633L138.814 224.08L142.372 220.523H147.229L144.8 224.728L139.94 226.03L140.47 228.006L143.354 227.233L140.614 231.977L142.386 233L145.125 228.256L145.898 231.139L147.873 230.61L146.571 225.751L149 221.545L151.429 225.751L150.126 230.61L152.102 231.139L152.875 228.256L155.614 233L157.386 231.977L154.646 227.233L157.53 228.006L158.059 226.03L153.2 224.728L150.771 220.523H155.628L159.186 224.08L160.632 222.633L158.521 220.523H164V218.477Z" fill="url(#paint8_linear_2_587)" shape-rendering="crispEdges"/>
<path d="M157.814 221.23L159.218 222.633L159.186 222.665L156.336 219.815C156.148 219.628 155.894 219.523 155.628 219.523H150.771C150.414 219.523 150.084 219.713 149.905 220.023C149.727 220.332 149.727 220.713 149.905 221.023L152.334 225.229C152.467 225.458 152.685 225.626 152.941 225.694L156.835 226.737L156.823 226.781L154.905 226.267C154.514 226.163 154.099 226.304 153.853 226.625C153.607 226.945 153.578 227.383 153.78 227.733L156.02 231.611L155.98 231.634L153.741 227.756C153.539 227.406 153.145 227.212 152.744 227.264C152.343 227.317 152.014 227.606 151.909 227.997L151.395 229.915L151.351 229.903L152.395 226.01C152.463 225.754 152.427 225.481 152.295 225.251L149.866 221.045C149.687 220.736 149.357 220.545 149 220.545C148.643 220.545 148.313 220.736 148.134 221.045L145.705 225.251C145.573 225.481 145.537 225.754 145.605 226.01L146.649 229.903L146.605 229.915L146.091 227.997C145.986 227.606 145.657 227.317 145.256 227.264C144.855 227.212 144.461 227.406 144.259 227.756L142.02 231.634L141.98 231.611L144.22 227.733C144.422 227.383 144.393 226.945 144.147 226.624C143.901 226.304 143.486 226.163 143.095 226.267L141.177 226.781L141.165 226.737L145.059 225.694C145.315 225.626 145.533 225.458 145.666 225.228L148.095 221.023C148.273 220.713 148.273 220.332 148.095 220.023C147.916 219.713 147.586 219.523 147.229 219.523H142.372C142.106 219.523 141.852 219.628 141.664 219.815L138.814 222.665L138.782 222.633L140.186 221.23C140.472 220.944 140.557 220.514 140.403 220.14C140.248 219.766 139.883 219.523 139.479 219.523H135V219.477H139.479C139.883 219.477 140.248 219.234 140.403 218.86C140.557 218.486 140.472 218.056 140.186 217.77L138.782 216.367L138.814 216.335L141.664 219.185C141.852 219.372 142.106 219.477 142.372 219.477H147.229C147.586 219.477 147.916 219.287 148.095 218.977C148.273 218.668 148.273 218.287 148.095 217.977L145.666 213.771C145.533 213.542 145.315 213.374 145.059 213.306L141.165 212.263L141.177 212.219L143.095 212.733C143.486 212.837 143.901 212.696 144.147 212.375C144.393 212.054 144.422 211.617 144.22 211.267L141.98 207.389L142.02 207.366L144.259 211.244C144.461 211.594 144.855 211.788 145.256 211.736C145.657 211.683 145.986 211.394 146.091 211.003L146.605 209.086L146.649 209.097L145.606 212.99C145.537 213.246 145.573 213.519 145.706 213.749L148.134 217.955C148.313 218.264 148.643 218.455 149 218.455C149.357 218.455 149.687 218.264 149.866 217.955L152.295 213.749C152.427 213.519 152.463 213.246 152.395 212.99L151.351 209.097L151.395 209.086L151.909 211.003C152.014 211.394 152.343 211.683 152.744 211.736C153.145 211.788 153.539 211.594 153.741 211.244L155.98 207.366L156.02 207.389L153.78 211.267C153.578 211.617 153.607 212.055 153.853 212.375C154.099 212.696 154.514 212.837 154.905 212.733L156.823 212.219L156.835 212.263L152.941 213.306C152.685 213.374 152.467 213.542 152.334 213.772L149.905 217.977C149.727 218.287 149.727 218.668 149.905 218.977C150.084 219.287 150.414 219.477 150.771 219.477H155.629C155.894 219.477 156.148 219.372 156.336 219.185L159.186 216.335L159.218 216.367L157.814 217.77C157.528 218.056 157.443 218.486 157.597 218.86C157.752 219.234 158.117 219.477 158.521 219.477H163V219.523H158.521C158.117 219.523 157.752 219.766 157.597 220.14C157.443 220.514 157.528 220.944 157.814 221.23Z" stroke="url(#paint9_linear_2_587)" stroke-width="2" stroke-linejoin="round" shape-rendering="crispEdges"/>
</g>
<g filter="url(#filter5_bd_2_587)">
<path d="M179 259.477H173.521L175.632 257.367L174.186 255.921L170.629 259.477H165.771L168.2 255.272L173.059 253.97L172.53 251.994L169.646 252.767L172.386 248.023L170.614 247L167.875 251.744L167.102 248.861L165.126 249.39L166.429 254.249L164 258.455L161.572 254.249L162.873 249.39L160.898 248.861L160.125 251.744L157.386 247L155.614 248.023L158.354 252.767L155.47 251.994L154.941 253.97L159.8 255.272L162.229 259.477H157.372L153.814 255.92L152.368 257.367L154.479 259.477H149V261.523H154.479L152.368 263.633L153.814 265.08L157.372 261.523H162.229L159.8 265.728L154.94 267.03L155.47 269.006L158.354 268.233L155.614 272.977L157.386 274L160.125 269.256L160.898 272.139L162.873 271.61L161.571 266.751L164 262.545L166.429 266.751L165.126 271.61L167.102 272.139L167.875 269.256L170.614 274L172.386 272.977L169.646 268.233L172.53 269.006L173.059 267.03L168.2 265.728L165.771 261.523H170.628L174.186 265.08L175.632 263.633L173.521 261.523H179V259.477Z" fill="url(#paint10_linear_2_587)" shape-rendering="crispEdges"/>
<path d="M172.814 262.23L174.218 263.633L174.186 263.665L171.336 260.815C171.148 260.628 170.894 260.523 170.628 260.523H165.771C165.414 260.523 165.084 260.713 164.905 261.023C164.727 261.332 164.727 261.713 164.905 262.023L167.334 266.229C167.467 266.458 167.685 266.626 167.941 266.694L171.835 267.737L171.823 267.781L169.905 267.267C169.514 267.163 169.099 267.304 168.853 267.625C168.607 267.945 168.578 268.383 168.78 268.733L171.02 272.611L170.98 272.634L168.741 268.756C168.539 268.406 168.145 268.212 167.744 268.264C167.343 268.317 167.014 268.606 166.909 268.997L166.395 270.915L166.351 270.903L167.395 267.01C167.463 266.754 167.427 266.481 167.295 266.251L164.866 262.045C164.687 261.736 164.357 261.545 164 261.545C163.643 261.545 163.313 261.736 163.134 262.045L160.705 266.251C160.573 266.481 160.537 266.754 160.605 267.01L161.649 270.903L161.605 270.915L161.091 268.997C160.986 268.606 160.657 268.317 160.256 268.264C159.855 268.212 159.461 268.406 159.259 268.756L157.02 272.634L156.98 272.611L159.22 268.733C159.422 268.383 159.393 267.945 159.147 267.624C158.901 267.304 158.486 267.163 158.095 267.267L156.177 267.781L156.165 267.737L160.059 266.694C160.315 266.626 160.533 266.458 160.666 266.228L163.095 262.023C163.273 261.713 163.273 261.332 163.095 261.023C162.916 260.713 162.586 260.523 162.229 260.523H157.372C157.106 260.523 156.852 260.628 156.664 260.815L153.814 263.665L153.782 263.633L155.186 262.23C155.472 261.944 155.557 261.514 155.403 261.14C155.248 260.766 154.883 260.523 154.479 260.523H150V260.477H154.479C154.883 260.477 155.248 260.234 155.403 259.86C155.557 259.486 155.472 259.056 155.186 258.77L153.782 257.367L153.814 257.335L156.664 260.185C156.852 260.372 157.106 260.477 157.372 260.477H162.229C162.586 260.477 162.916 260.287 163.095 259.977C163.273 259.668 163.273 259.287 163.095 258.977L160.666 254.771C160.533 254.542 160.315 254.374 160.059 254.306L156.165 253.263L156.177 253.219L158.095 253.733C158.486 253.837 158.901 253.696 159.147 253.375C159.393 253.054 159.422 252.617 159.22 252.267L156.98 248.389L157.02 248.366L159.259 252.244C159.461 252.594 159.855 252.788 160.256 252.736C160.657 252.683 160.986 252.394 161.091 252.003L161.605 250.086L161.649 250.097L160.606 253.99C160.537 254.246 160.573 254.519 160.706 254.749L163.134 258.955C163.313 259.264 163.643 259.455 164 259.455C164.357 259.455 164.687 259.264 164.866 258.955L167.295 254.749C167.427 254.519 167.463 254.246 167.395 253.99L166.351 250.097L166.395 250.086L166.909 252.003C167.014 252.394 167.343 252.683 167.744 252.736C168.145 252.788 168.539 252.594 168.741 252.244L170.98 248.366L171.02 248.389L168.78 252.267C168.578 252.617 168.607 253.055 168.853 253.375C169.099 253.696 169.514 253.837 169.905 253.733L171.823 253.219L171.835 253.263L167.941 254.306C167.685 254.374 167.467 254.542 167.334 254.772L164.905 258.977C164.727 259.287 164.727 259.668 164.905 259.977C165.084 260.287 165.414 260.477 165.771 260.477H170.629C170.894 260.477 171.148 260.372 171.336 260.185L174.186 257.335L174.218 257.367L172.814 258.77C172.528 259.056 172.443 259.486 172.597 259.86C172.752 260.234 173.117 260.477 173.521 260.477H178V260.523H173.521C173.117 260.523 172.752 260.766 172.597 261.14C172.443 261.514 172.528 261.944 172.814 262.23Z" stroke="url(#paint11_linear_2_587)" stroke-width="2" stroke-linejoin="round" shape-rendering="crispEdges"/>
</g>
<g filter="url(#filter6_bd_2_587)">
<path d="M220 259.477H214.521L216.632 257.367L215.186 255.921L211.629 259.477H206.771L209.2 255.272L214.059 253.97L213.53 251.994L210.646 252.767L213.386 248.023L211.614 247L208.875 251.744L208.102 248.861L206.126 249.39L207.429 254.249L205 258.455L202.572 254.249L203.873 249.39L201.898 248.861L201.125 251.744L198.386 247L196.614 248.023L199.354 252.767L196.47 251.994L195.941 253.97L200.8 255.272L203.229 259.477H198.372L194.814 255.92L193.368 257.367L195.479 259.477H190V261.523H195.479L193.368 263.633L194.814 265.08L198.372 261.523H203.229L200.8 265.728L195.94 267.03L196.47 269.006L199.354 268.233L196.614 272.977L198.386 274L201.125 269.256L201.898 272.139L203.873 271.61L202.571 266.751L205 262.545L207.429 266.751L206.126 271.61L208.102 272.139L208.875 269.256L211.614 274L213.386 272.977L210.646 268.233L213.53 269.006L214.059 267.03L209.2 265.728L206.771 261.523H211.628L215.186 265.08L216.632 263.633L214.521 261.523H220V259.477Z" fill="url(#paint12_linear_2_587)" shape-rendering="crispEdges"/>
<path d="M213.814 262.23L215.218 263.633L215.186 263.665L212.336 260.815C212.148 260.628 211.894 260.523 211.628 260.523H206.771C206.414 260.523 206.084 260.713 205.905 261.023C205.727 261.332 205.727 261.713 205.905 262.023L208.334 266.229C208.467 266.458 208.685 266.626 208.941 266.694L212.835 267.737L212.823 267.781L210.905 267.267C210.514 267.163 210.099 267.304 209.853 267.625C209.607 267.945 209.578 268.383 209.78 268.733L212.02 272.611L211.98 272.634L209.741 268.756C209.539 268.406 209.145 268.212 208.744 268.264C208.343 268.317 208.014 268.606 207.909 268.997L207.395 270.915L207.351 270.903L208.395 267.01C208.463 266.754 208.427 266.481 208.295 266.251L205.866 262.045C205.687 261.736 205.357 261.545 205 261.545C204.643 261.545 204.313 261.736 204.134 262.045L201.705 266.251C201.573 266.481 201.537 266.754 201.605 267.01L202.649 270.903L202.605 270.915L202.091 268.997C201.986 268.606 201.657 268.317 201.256 268.264C200.855 268.212 200.461 268.406 200.259 268.756L198.02 272.634L197.98 272.611L200.22 268.733C200.422 268.383 200.393 267.945 200.147 267.624C199.901 267.304 199.486 267.163 199.095 267.267L197.177 267.781L197.165 267.737L201.059 266.694C201.315 266.626 201.533 266.458 201.666 266.228L204.095 262.023C204.273 261.713 204.273 261.332 204.095 261.023C203.916 260.713 203.586 260.523 203.229 260.523H198.372C198.106 260.523 197.852 260.628 197.664 260.815L194.814 263.665L194.782 263.633L196.186 262.23C196.472 261.944 196.557 261.514 196.403 261.14C196.248 260.766 195.883 260.523 195.479 260.523H191V260.477H195.479C195.883 260.477 196.248 260.234 196.403 259.86C196.557 259.486 196.472 259.056 196.186 258.77L194.782 257.367L194.814 257.335L197.664 260.185C197.852 260.372 198.106 260.477 198.372 260.477H203.229C203.586 260.477 203.916 260.287 204.095 259.977C204.273 259.668 204.273 259.287 204.095 258.977L201.666 254.771C201.533 254.542 201.315 254.374 201.059 254.306L197.165 253.263L197.177 253.219L199.095 253.733C199.486 253.837 199.901 253.696 200.147 253.375C200.393 253.054 200.422 252.617 200.22 252.267L197.98 248.389L198.02 248.366L200.259 252.244C200.461 252.594 200.855 252.788 201.256 252.736C201.657 252.683 201.986 252.394 202.091 252.003L202.605 250.086L202.649 250.097L201.606 253.99C201.537 254.246 201.573 254.519 201.706 254.749L204.134 258.955C204.313 259.264 204.643 259.455 205 259.455C205.357 259.455 205.687 259.264 205.866 258.955L208.295 254.749C208.427 254.519 208.463 254.246 208.395 253.99L207.351 250.097L207.395 250.086L207.909 252.003C208.014 252.394 208.343 252.683 208.744 252.736C209.145 252.788 209.539 252.594 209.741 252.244L211.98 248.366L212.02 248.389L209.78 252.267C209.578 252.617 209.607 253.055 209.853 253.375C210.099 253.696 210.514 253.837 210.905 253.733L212.823 253.219L212.835 253.263L208.941 254.306C208.685 254.374 208.467 254.542 208.334 254.772L205.905 258.977C205.727 259.287 205.727 259.668 205.905 259.977C206.084 260.287 206.414 260.477 206.771 260.477H211.629C211.894 260.477 212.148 260.372 212.336 260.185L215.186 257.335L215.218 257.367L213.814 258.77C213.528 259.056 213.443 259.486 213.597 259.86C213.752 260.234 214.117 260.477 214.521 260.477H219V260.523H214.521C214.117 260.523 213.752 260.766 213.597 261.14C213.443 261.514 213.528 261.944 213.814 262.23Z" stroke="url(#paint13_linear_2_587)" stroke-width="2" stroke-linejoin="round" shape-rendering="crispEdges"/>
</g>
<defs>
<filter id="filter0_bd_2_587" x="0" y="0" width="338" height="261" filterUnits="userSpaceOnUse" color-interpolation-filters="sRGB">
<feFlood flood-opacity="0" result="BackgroundImageFix"/>
<feGaussianBlur in="BackgroundImage" stdDeviation="7"/>
<feComposite in2="SourceAlpha" operator="in" result="effect1_backgroundBlur_2_587"/>
<feColorMatrix in="SourceAlpha" type="matrix" values="0 0 0 0 0 0 0 0 0 0 0 0 0 0 0 0 0 0 127 0" result="hardAlpha"/>
<feOffset dx="-21" dy="15"/>
<feGaussianBlur stdDeviation="25"/>
<feComposite in2="hardAlpha" operator="out"/>
<feColorMatrix type="matrix" values="0 0 0 0 0.113725 0 0 0 0 0.14902 0 0 0 0 0.27451 0 0 0 0.25 0"/>
<feBlend mode="normal" in2="effect1_backgroundBlur_2_587" result="effect2_dropShadow_2_587"/>
<feBlend mode="normal" in="SourceGraphic" in2="effect2_dropShadow_2_587" result="shape"/>
</filter>
<filter id="filter1_bd_2_587" x="132" y="0" width="272" height="216.353" filterUnits="userSpaceOnUse" color-interpolation-filters="sRGB">
<feFlood flood-opacity="0" result="BackgroundImageFix"/>
<feGaussianBlur in="BackgroundImage" stdDeviation="7"/>
<feComposite in2="SourceAlpha" operator="in" result="effect1_backgroundBlur_2_587"/>
<feColorMatrix in="SourceAlpha" type="matrix" values="0 0 0 0 0 0 0 0 0 0 0 0 0 0 0 0 0 0 127 0" result="hardAlpha"/>
<feOffset dx="-21" dy="15"/>
<feGaussianBlur stdDeviation="25"/>
<feComposite in2="hardAlpha" operator="out"/>
<feColorMatrix type="matrix" values="0 0 0 0 0.113438 0 0 0 0 0.148981 0 0 0 0 0.275 0 0 0 0.25 0"/>
<feBlend mode="normal" in2="effect1_backgroundBlur_2_587" result="effect2_dropShadow_2_587"/>
<feBlend mode="normal" in="SourceGraphic" in2="effect2_dropShadow_2_587" result="shape"/>
</filter>
<filter id="filter2_bd_2_587" x="149" y="171" width="130" height="127" filterUnits="userSpaceOnUse" color-interpolation-filters="sRGB">
<feFlood flood-opacity="0" result="BackgroundImageFix"/>
<feGaussianBlur in="BackgroundImage" stdDeviation="7"/>
<feComposite in2="SourceAlpha" operator="in" result="effect1_backgroundBlur_2_587"/>
<feColorMatrix in="SourceAlpha" type="matrix" values="0 0 0 0 0 0 0 0 0 0 0 0 0 0 0 0 0 0 127 0" result="hardAlpha"/>
<feOffset dx="-21" dy="15"/>
<feGaussianBlur stdDeviation="25"/>
<feComposite in2="hardAlpha" operator="out"/>
<feColorMatrix type="matrix" values="0 0 0 0 0.113438 0 0 0 0 0.148981 0 0 0 0 0.275 0 0 0 0.25 0"/>
<feBlend mode="normal" in2="effect1_backgroundBlur_2_587" result="effect2_dropShadow_2_587"/>
<feBlend mode="normal" in="SourceGraphic" in2="effect2_dropShadow_2_587" result="shape"/>
</filter>
<filter id="filter3_bd_2_587" x="106" y="171" width="130" height="127" filterUnits="userSpaceOnUse" color-interpolation-filters="sRGB">
<feFlood flood-opacity="0" result="BackgroundImageFix"/>
<feGaussianBlur in="BackgroundImage" stdDeviation="7"/>
<feComposite in2="SourceAlpha" operator="in" result="effect1_backgroundBlur_2_587"/>
<feColorMatrix in="SourceAlpha" type="matrix" values="0 0 0 0 0 0 0 0 0 0 0 0 0 0 0 0 0 0 127 0" result="hardAlpha"/>
<feOffset dx="-21" dy="15"/>
<feGaussianBlur stdDeviation="25"/>
<feComposite in2="hardAlpha" operator="out"/>
<feColorMatrix type="matrix" values="0 0 0 0 0.113438 0 0 0 0 0.148981 0 0 0 0 0.275 0 0 0 0.25 0"/>
<feBlend mode="normal" in2="effect1_backgroundBlur_2_587" result="effect2_dropShadow_2_587"/>
<feBlend mode="normal" in="SourceGraphic" in2="effect2_dropShadow_2_587" result="shape"/>
</filter>
<filter id="filter4_bd_2_587" x="63" y="171" width="130" height="127" filterUnits="userSpaceOnUse" color-interpolation-filters="sRGB">
<feFlood flood-opacity="0" result="BackgroundImageFix"/>
<feGaussianBlur in="BackgroundImage" stdDeviation="7"/>
<feComposite in2="SourceAlpha" operator="in" result="effect1_backgroundBlur_2_587"/>
<feColorMatrix in="SourceAlpha" type="matrix" values="0 0 0 0 0 0 0 0 0 0 0 0 0 0 0 0 0 0 127 0" result="hardAlpha"/>
<feOffset dx="-21" dy="15"/>
<feGaussianBlur stdDeviation="25"/>
<feComposite in2="hardAlpha" operator="out"/>
<feColorMatrix type="matrix" values="0 0 0 0 0.113438 0 0 0 0 0.148981 0 0 0 0 0.275 0 0 0 0.25 0"/>
<feBlend mode="normal" in2="effect1_backgroundBlur_2_587" result="effect2_dropShadow_2_587"/>
<feBlend mode="normal" in="SourceGraphic" in2="effect2_dropShadow_2_587" result="shape"/>
</filter>
<filter id="filter5_bd_2_587" x="78" y="212" width="130" height="127" filterUnits="userSpaceOnUse" color-interpolation-filters="sRGB">
<feFlood flood-opacity="0" result="BackgroundImageFix"/>
<feGaussianBlur in="BackgroundImage" stdDeviation="7"/>
<feComposite in2="SourceAlpha" operator="in" result="effect1_backgroundBlur_2_587"/>
<feColorMatrix in="SourceAlpha" type="matrix" values="0 0 0 0 0 0 0 0 0 0 0 0 0 0 0 0 0 0 127 0" result="hardAlpha"/>
<feOffset dx="-21" dy="15"/>
<feGaussianBlur stdDeviation="25"/>
<feComposite in2="hardAlpha" operator="out"/>
<feColorMatrix type="matrix" values="0 0 0 0 0.113438 0 0 0 0 0.148981 0 0 0 0 0.275 0 0 0 0.25 0"/>
<feBlend mode="normal" in2="effect1_backgroundBlur_2_587" result="effect2_dropShadow_2_587"/>
<feBlend mode="normal" in="SourceGraphic" in2="effect2_dropShadow_2_587" result="shape"/>
</filter>
<filter id="filter6_bd_2_587" x="119" y="212" width="130" height="127" filterUnits="userSpaceOnUse" color-interpolation-filters="sRGB">
<feFlood flood-opacity="0" result="BackgroundImageFix"/>
<feGaussianBlur in="BackgroundImage" stdDeviation="7"/>
<feComposite in2="SourceAlpha" operator="in" result="effect1_backgroundBlur_2_587"/>
<feColorMatrix in="SourceAlpha" type="matrix" values="0 0 0 0 0 0 0 0 0 0 0 0 0 0 0 0 0 0 127 0" result="hardAlpha"/>
<feOffset dx="-21" dy="15"/>
<feGaussianBlur stdDeviation="25"/>
<feComposite in2="hardAlpha" operator="out"/>
<feColorMatrix type="matrix" values="0 0 0 0 0.113438 0 0 0 0 0.148981 0 0 0 0 0.275 0 0 0 0.25 0"/>
<feBlend mode="normal" in2="effect1_backgroundBlur_2_587" result="effect2_dropShadow_2_587"/>
<feBlend mode="normal" in="SourceGraphic" in2="effect2_dropShadow_2_587" result="shape"/>
</filter>
<linearGradient id="paint0_linear_2_587" x1="190" y1="-16.5" x2="190" y2="218.5" gradientUnits="userSpaceOnUse">
<stop stop-color="white"/>
<stop offset="1" stop-color="white" stop-opacity="0"/>
</linearGradient>
<linearGradient id="paint1_linear_2_587" x1="190" y1="35" x2="190" y2="196" gradientUnits="userSpaceOnUse">
<stop stop-color="white"/>
<stop offset="1" stop-color="white" stop-opacity="0"/>
</linearGradient>
<linearGradient id="paint2_linear_2_587" x1="297" y1="38.5" x2="297" y2="164.5" gradientUnits="userSpaceOnUse">
<stop stop-color="white"/>
<stop offset="1" stop-color="white" stop-opacity="0"/>
</linearGradient>
<linearGradient id="paint3_linear_2_587" x1="289" y1="35" x2="289" y2="151.353" gradientUnits="userSpaceOnUse">
<stop stop-color="white"/>
<stop offset="1" stop-color="white" stop-opacity="0"/>
</linearGradient>
<linearGradient id="paint4_linear_2_587" x1="236.395" y1="206.812" x2="236.395" y2="236.051" gradientUnits="userSpaceOnUse">
<stop stop-color="white"/>
<stop offset="1" stop-color="white" stop-opacity="0"/>
</linearGradient>
<linearGradient id="paint5_linear_2_587" x1="235" y1="206" x2="235" y2="233" gradientUnits="userSpaceOnUse">
<stop stop-color="white"/>
<stop offset="1" stop-color="white" stop-opacity="0"/>
</linearGradient>
<linearGradient id="paint6_linear_2_587" x1="193.395" y1="206.812" x2="193.395" y2="236.051" gradientUnits="userSpaceOnUse">
<stop stop-color="white"/>
<stop offset="1" stop-color="white" stop-opacity="0"/>
</linearGradient>
<linearGradient id="paint7_linear_2_587" x1="192" y1="206" x2="192" y2="233" gradientUnits="userSpaceOnUse">
<stop stop-color="white"/>
<stop offset="1" stop-color="white" stop-opacity="0"/>
</linearGradient>
<linearGradient id="paint8_linear_2_587" x1="150.395" y1="206.812" x2="150.395" y2="236.051" gradientUnits="userSpaceOnUse">
<stop stop-color="white"/>
<stop offset="1" stop-color="white" stop-opacity="0"/>
</linearGradient>
<linearGradient id="paint9_linear_2_587" x1="149" y1="206" x2="149" y2="233" gradientUnits="userSpaceOnUse">
<stop stop-color="white"/>
<stop offset="1" stop-color="white" stop-opacity="0"/>
</linearGradient>
<linearGradient id="paint10_linear_2_587" x1="165.395" y1="247.812" x2="165.395" y2="277.051" gradientUnits="userSpaceOnUse">
<stop stop-color="white"/>
<stop offset="1" stop-color="white" stop-opacity="0"/>
</linearGradient>
<linearGradient id="paint11_linear_2_587" x1="164" y1="247" x2="164" y2="274" gradientUnits="userSpaceOnUse">
<stop stop-color="white"/>
<stop offset="1" stop-color="white" stop-opacity="0"/>
</linearGradient>
<linearGradient id="paint12_linear_2_587" x1="206.395" y1="247.812" x2="206.395" y2="277.051" gradientUnits="userSpaceOnUse">
<stop stop-color="white"/>
<stop offset="1" stop-color="white" stop-opacity="0"/>
</linearGradient>
<linearGradient id="paint13_linear_2_587" x1="205" y1="247" x2="205" y2="274" gradientUnits="userSpaceOnUse">
<stop stop-color="white"/>
<stop offset="1" stop-color="white" stop-opacity="0"/>
</linearGradient>
</defs>
</svg>
