<svg width="404" height="261" viewBox="0 0 404 261" fill="none" xmlns="http://www.w3.org/2000/svg">
<g filter="url(#filter0_bd_2_587)">
<mask id="path-1-inside-1_2_587" fill="white">
<path fill-rule="evenodd" clip-rule="evenodd" d="M265.5 195.997C265.666 195.999 265.833 196 266 196C289.748 196 309 176.748 309 153C309 129.252 289.748 110 266 110C265.833 110 265.666 110.001 265.5 110.003V110H254.391C254.793 107.057 255 104.053 255 101C255 64.5492 225.451 35 189 35C152.549 35 123 64.5492 123 101C123 104.439 123.263 107.817 123.77 111.115C120.631 110.386 117.361 110 114 110C90.2518 110 71 129.252 71 153C71 176.748 90.2518 196 114 196C114.168 196 114.335 195.999 114.502 195.997L114.5 196H265.5V195.997Z"/>
</mask>
<path fill-rule="evenodd" clip-rule="evenodd" d="M265.5 195.997C265.666 195.999 265.833 196 266 196C289.748 196 309 176.748 309 153C309 129.252 289.748 110 266 110C265.833 110 265.666 110.001 265.5 110.003V110H254.391C254.793 107.057 255 104.053 255 101C255 64.5492 225.451 35 189 35C152.549 35 123 64.5492 123 101C123 104.439 123.263 107.817 123.77 111.115C120.631 110.386 117.361 110 114 110C90.2518 110 71 129.252 71 153C71 176.748 90.2518 196 114 196C114.168 196 114.335 195.999 114.502 195.997L114.5 196H265.5V195.997Z" fill="url(#paint0_linear_2_587)" shape-rendering="crispEdges"/>
<path d="M265.5 195.997L265.523 193.997C264.988 193.991 264.474 194.199 264.094 194.575C263.714 194.951 263.5 195.463 263.5 195.997H265.5ZM265.5 110.003H263.5C263.5 110.537 263.714 111.049 264.094 111.425C264.474 111.801 264.988 112.009 265.523 112.003L265.5 110.003ZM265.5 110H267.5C267.5 108.895 266.605 108 265.5 108V110ZM254.391 110L252.41 109.73C252.332 110.302 252.505 110.88 252.885 111.315C253.265 111.75 253.814 112 254.391 112V110ZM123.77 111.115L123.318 113.063C123.964 113.213 124.643 113.033 125.13 112.582C125.617 112.13 125.848 111.467 125.747 110.811L123.77 111.115ZM114.502 195.997L116.072 197.237C116.549 196.632 116.637 195.807 116.297 195.115C115.957 194.423 115.25 193.988 114.479 193.997L114.502 195.997ZM114.5 196L112.931 194.76C112.455 195.362 112.366 196.182 112.7 196.872C113.034 197.562 113.733 198 114.5 198V196ZM265.5 196V198C266.605 198 267.5 197.105 267.5 196H265.5ZM265.477 197.997C265.651 197.999 265.825 198 266 198V194C265.841 194 265.682 193.999 265.523 193.997L265.477 197.997ZM266 198C290.853 198 311 177.853 311 153H307C307 175.644 288.644 194 266 194V198ZM311 153C311 128.147 290.853 108 266 108V112C288.644 112 307 130.356 307 153H311ZM266 108C265.826 108 265.651 108.001 265.477 108.003L265.523 112.003C265.682 112.001 265.841 112 266 112V108ZM263.5 110V110.003H267.5V110H263.5ZM254.391 112H265.5V108H254.391V112ZM256.373 110.27C256.787 107.238 257 104.143 257 101H253C253 103.962 252.799 106.876 252.41 109.73L256.373 110.27ZM257 101C257 63.4446 226.555 33 189 33V37C224.346 37 253 65.6538 253 101H257ZM189 33C151.445 33 121 63.4446 121 101H125C125 65.6538 153.654 37 189 37V33ZM121 101C121 104.542 121.271 108.021 121.793 111.419L125.747 110.811C125.255 107.614 125 104.337 125 101H121ZM124.223 109.167C120.937 108.403 117.514 108 114 108V112C117.207 112 120.326 112.368 123.318 113.063L124.223 109.167ZM114 108C89.1472 108 69 128.147 69 153H73C73 130.356 91.3563 112 114 112V108ZM69 153C69 177.853 89.1472 198 114 198V194C91.3563 194 73 175.644 73 153H69ZM114 198C114.175 198 114.35 197.999 114.525 197.997L114.479 193.997C114.32 193.999 114.16 194 114 194V198ZM116.069 197.24L116.072 197.237L112.933 194.757L112.931 194.76L116.069 197.24ZM265.5 194H114.5V198H265.5V194ZM263.5 195.997V196H267.5V195.997H263.5Z" fill="url(#paint1_linear_2_587)" mask="url(#path-1-inside-1_2_587)"/>
</g>
<g filter="url(#filter1_bd_2_587)">
<mask id="path-3-inside-2_2_587" fill="white">
<path fill-rule="evenodd" clip-rule="evenodd" d="M343.563 151.351C343.683 151.352 343.804 151.353 343.924 151.353C361.087 151.353 375 137.44 375 120.277C375 103.115 361.087 89.2017 343.924 89.2017C343.804 89.2017 343.683 89.2024 343.563 89.2037V89.2017H335.535C335.825 87.075 335.975 84.9037 335.975 82.6975C335.975 56.3549 314.62 35 288.277 35C261.935 35 240.58 56.3549 240.58 82.6975C240.58 85.1831 240.77 87.6243 241.136 90.0074C238.868 89.4803 236.504 89.2017 234.076 89.2017C216.913 89.2017 203 103.115 203 120.277C203 137.44 216.913 151.353 234.076 151.353C234.197 151.353 234.318 151.352 234.439 151.351L234.437 151.353H343.563V151.351Z"/>
</mask>
<path fill-rule="evenodd" clip-rule="evenodd" d="M343.563 151.351C343.683 151.352 343.804 151.353 343.924 151.353C361.087 151.353 375 137.44 375 120.277C375 103.115 361.087 89.2017 343.924 89.2017C343.804 89.2017 343.683 89.2024 343.563 89.2037V89.2017H335.535C335.825 87.075 335.975 84.9037 335.975 82.6975C335.975 56.3549 314.62 35 288.277 35C261.935 35 240.58 56.3549 240.58 82.6975C240.58 85.1831 240.77 87.6243 241.136 90.0074C238.868 89.4803 236.504 89.2017 234.076 89.2017C216.913 89.2017 203 103.115 203 120.277C203 137.44 216.913 151.353 234.076 151.353C234.197 151.353 234.318 151.352 234.439 151.351L234.437 151.353H343.563V151.351Z" fill="url(#paint2_linear_2_587)" shape-rendering="crispEdges"/>
<path d="M343.563 151.351L343.586 149.351C343.052 149.345 342.537 149.553 342.157 149.929C341.777 150.304 341.563 150.816 341.563 151.351H343.563ZM343.563 89.2037H341.563C341.563 89.7381 341.777 90.2503 342.157 90.626C342.537 91.0017 343.051 91.2097 343.586 91.2036L343.563 89.2037ZM343.563 89.2017H345.563C345.563 88.0971 344.668 87.2017 343.563 87.2017V89.2017ZM335.535 89.2017L333.553 88.9315C333.475 89.5037 333.649 90.0818 334.028 90.5169C334.408 90.952 334.957 91.2017 335.535 91.2017V89.2017ZM241.136 90.0074L240.684 91.9555C241.33 92.1057 242.009 91.9253 242.496 91.4741C242.983 91.0228 243.214 90.3594 243.113 89.7033L241.136 90.0074ZM234.439 151.351L236.008 152.59C236.486 151.985 236.573 151.16 236.233 150.468C235.893 149.777 235.186 149.342 234.416 149.351L234.439 151.351ZM234.437 151.353L232.867 150.114C232.392 150.715 232.303 151.535 232.637 152.225C232.971 152.915 233.67 153.353 234.437 153.353V151.353ZM343.563 151.353V153.353C344.668 153.353 345.563 152.458 345.563 151.353H343.563ZM343.54 153.351C343.668 153.352 343.796 153.353 343.924 153.353V149.353C343.811 149.353 343.699 149.352 343.586 149.351L343.54 153.351ZM343.924 153.353C362.192 153.353 377 138.544 377 120.277H373C373 136.335 359.982 149.353 343.924 149.353V153.353ZM377 120.277C377 102.01 362.192 87.2017 343.924 87.2017V91.2017C359.982 91.2017 373 104.219 373 120.277H377ZM343.924 87.2017C343.796 87.2017 343.668 87.2024 343.54 87.2039L343.586 91.2036C343.699 91.2023 343.811 91.2017 343.924 91.2017V87.2017ZM341.563 89.2017V89.2037H345.563V89.2017H341.563ZM335.535 91.2017H343.563V87.2017H335.535V91.2017ZM337.517 89.4719C337.819 87.2559 337.975 84.9944 337.975 82.6975H333.975C333.975 84.8131 333.831 86.8941 333.553 88.9315L337.517 89.4719ZM337.975 82.6975C337.975 55.2503 315.724 33 288.277 33V37C313.515 37 333.975 57.4595 333.975 82.6975H337.975ZM288.277 33C260.83 33 238.58 55.2503 238.58 82.6975H242.58C242.58 57.4595 263.039 37 288.277 37V33ZM238.58 82.6975C238.58 85.2852 238.778 87.8281 239.16 90.3114L243.113 89.7033C242.762 87.4205 242.58 85.081 242.58 82.6975H238.58ZM241.589 88.0592C239.173 87.498 236.658 87.2017 234.076 87.2017V91.2017C236.351 91.2017 238.563 91.4627 240.684 91.9555L241.589 88.0592ZM234.076 87.2017C215.808 87.2017 201 102.01 201 120.277H205C205 104.219 218.018 91.2017 234.076 91.2017V87.2017ZM201 120.277C201 138.544 215.808 153.353 234.076 153.353V149.353C218.018 149.353 205 136.335 205 120.277H201ZM234.076 153.353C234.204 153.353 234.333 153.352 234.461 153.351L234.416 149.351C234.303 149.352 234.189 149.353 234.076 149.353V153.353ZM236.007 152.592L236.008 152.59L232.869 150.112L232.867 150.114L236.007 152.592ZM343.563 149.353H234.437V153.353H343.563V149.353ZM341.563 151.351V151.353H345.563V151.351H341.563Z" fill="url(#paint3_linear_2_587)" mask="url(#path-3-inside-2_2_587)"/>
</g>
<mask id="path-5-inside-3_2_587" fill="white">
<path d="M164 218.477H158.521L160.632 216.367L159.186 214.921L155.629 218.477H150.771L153.2 214.272L158.059 212.97L157.53 210.994L154.646 211.767L157.386 207.023L155.614 206L152.875 210.744L152.102 207.861L150.126 208.39L151.429 213.249L149 217.455L146.572 213.249L147.873 208.39L145.898 207.861L145.125 210.744L142.386 206L140.614 207.023L143.354 211.767L140.47 210.994L139.941 212.97L144.8 214.272L147.229 218.477H142.372L138.814 214.92L137.368 216.367L139.479 218.477H134V220.523H139.479L137.368 222.633L138.814 224.08L142.372 220.523H147.229L144.8 224.728L139.94 226.03L140.47 228.006L143.354 227.233L140.614 231.977L142.386 233L145.125 228.256L145.898 231.139L147.873 230.61L146.571 225.751L149 221.545L151.429 225.751L150.126 230.61L152.102 231.139L152.875 228.256L155.614 233L157.386 231.977L154.646 227.233L157.53 228.006L158.059 226.03L153.2 224.728L150.771 220.523H155.628L159.186 224.08L160.632 222.633L158.521 220.523H164V218.477Z"/>
</mask>
<path d="M164 218.477H158.521L160.632 216.367L159.186 214.921L155.629 218.477H150.771L153.2 214.272L158.059 212.97L157.53 210.994L154.646 211.767L157.386 207.023L155.614 206L152.875 210.744L152.102 207.861L150.126 208.39L151.429 213.249L149 217.455L146.572 213.249L147.873 208.39L145.898 207.861L145.125 210.744L142.386 206L140.614 207.023L143.354 211.767L140.47 210.994L139.941 212.97L144.8 214.272L147.229 218.477H142.372L138.814 214.92L137.368 216.367L139.479 218.477H134V220.523H139.479L137.368 222.633L138.814 224.08L142.372 220.523H147.229L144.8 224.728L139.94 226.03L140.47 228.006L143.354 227.233L140.614 231.977L142.386 233L145.125 228.256L145.898 231.139L147.873 230.61L146.571 225.751L149 221.545L151.429 225.751L150.126 230.61L152.102 231.139L152.875 228.256L155.614 233L157.386 231.977L154.646 227.233L157.53 228.006L158.059 226.03L153.2 224.728L150.771 220.523H155.628L159.186 224.08L160.632 222.633L158.521 220.523H164V218.477Z" fill="url(#paint4_linear_2_587)"/>
<path d="M164 218.477H167V215.477H164V218.477ZM158.521 218.477L156.4 216.356L151.278 221.477H158.521V218.477ZM160.632 216.367L162.753 218.488L164.875 216.367L162.753 214.245L160.632 216.367ZM159.186 214.921L161.307 212.799L159.186 210.678L157.065 212.799L159.186 214.921ZM155.629 218.477V221.477H156.871L157.75 220.599L155.629 218.477ZM150.771 218.477L148.173 216.977L145.575 221.477H150.771V218.477ZM153.2 214.272L152.424 211.374L151.223 211.695L150.602 212.771L153.2 214.272ZM158.059 212.97L158.836 215.867L161.734 215.091L160.957 212.193L158.059 212.97ZM157.53 210.994L160.428 210.217L159.651 207.32L156.754 208.096L157.53 210.994ZM154.646 211.767L152.048 210.267L148.426 216.539L155.423 214.665L154.646 211.767ZM157.386 207.023L159.984 208.523L161.484 205.924L158.886 204.424L157.386 207.023ZM155.614 206L157.114 203.402L154.516 201.902L153.016 204.5L155.614 206ZM152.875 210.744L149.977 211.521L151.852 218.515L155.473 212.244L152.875 210.744ZM152.102 207.861L155 207.084L154.223 204.187L151.326 204.963L152.102 207.861ZM150.126 208.39L149.35 205.492L146.452 206.269L147.229 209.167L150.126 208.39ZM151.429 213.249L154.027 214.749L154.648 213.673L154.326 212.472L151.429 213.249ZM149 217.455L146.402 218.955L149 223.454L151.598 218.955L149 217.455ZM146.572 213.249L143.674 212.473L143.352 213.673L143.974 214.749L146.572 213.249ZM147.873 208.39L150.771 209.167L151.548 206.269L148.65 205.492L147.873 208.39ZM145.898 207.861L146.674 204.963L143.777 204.187L143 207.084L145.898 207.861ZM145.125 210.744L142.527 212.244L146.148 218.515L148.023 211.521L145.125 210.744ZM142.386 206L144.984 204.5L143.484 201.902L140.886 203.402L142.386 206ZM140.614 207.023L139.114 204.424L136.516 205.924L138.016 208.523L140.614 207.023ZM143.354 211.767L142.577 214.664L149.573 216.539L145.952 210.267L143.354 211.767ZM140.47 210.994L141.246 208.096L138.349 207.32L137.572 210.218L140.47 210.994ZM139.941 212.97L137.043 212.193L136.266 215.091L139.164 215.868L139.941 212.97ZM144.8 214.272L147.398 212.771L146.777 211.695L145.576 211.374L144.8 214.272ZM147.229 218.477V221.477H152.425L149.827 216.977L147.229 218.477ZM142.372 218.477L140.25 220.599L141.129 221.477H142.372V218.477ZM138.814 214.92L140.935 212.799L138.814 210.678L136.693 212.799L138.814 214.92ZM137.368 216.367L135.247 214.245L133.125 216.367L135.247 218.488L137.368 216.367ZM139.479 218.477V221.477H146.722L141.6 216.356L139.479 218.477ZM134 218.477V215.477H131V218.477H134ZM134 220.523H131V223.523H134V220.523ZM139.479 220.523L141.6 222.644L146.722 217.523H139.479V220.523ZM137.368 222.633L135.247 220.512L133.125 222.633L135.247 224.755L137.368 222.633ZM138.814 224.08L136.693 226.201L138.814 228.322L140.935 226.201L138.814 224.08ZM142.372 220.523V217.523H141.129L140.25 218.401L142.372 220.523ZM147.229 220.523L149.827 222.023L152.425 217.523H147.229V220.523ZM144.8 224.728L145.576 227.626L146.777 227.305L147.398 226.229L144.8 224.728ZM139.94 226.03L139.164 223.133L136.266 223.909L137.043 226.807L139.94 226.03ZM140.47 228.006L137.572 228.783L138.349 231.68L141.246 230.904L140.47 228.006ZM143.354 227.233L145.952 228.733L149.574 222.461L142.577 224.335L143.354 227.233ZM140.614 231.977L138.016 230.477L136.516 233.076L139.114 234.576L140.614 231.977ZM142.386 233L140.886 235.598L143.484 237.098L144.984 234.5L142.386 233ZM145.125 228.256L148.023 227.479L146.148 220.485L142.527 226.756L145.125 228.256ZM145.898 231.139L143 231.916L143.777 234.813L146.674 234.037L145.898 231.139ZM147.873 230.61L148.65 233.508L151.548 232.731L150.771 229.833L147.873 230.61ZM146.571 225.751L143.973 224.251L143.352 225.327L143.674 226.528L146.571 225.751ZM149 221.545L151.598 220.045L149 215.546L146.402 220.045L149 221.545ZM151.429 225.751L154.326 226.528L154.648 225.327L154.027 224.251L151.429 225.751ZM150.126 230.61L147.229 229.833L146.452 232.731L149.35 233.508L150.126 230.61ZM152.102 231.139L151.326 234.037L154.223 234.813L155 231.916L152.102 231.139ZM152.875 228.256L155.473 226.756L151.852 220.484L149.977 227.479L152.875 228.256ZM155.614 233L153.016 234.5L154.516 237.098L157.114 235.598L155.614 233ZM157.386 231.977L158.886 234.576L161.484 233.076L159.984 230.477L157.386 231.977ZM154.646 227.233L155.423 224.336L148.426 222.461L152.048 228.733L154.646 227.233ZM157.53 228.006L156.754 230.904L159.651 231.68L160.428 228.782L157.53 228.006ZM158.059 226.03L160.957 226.807L161.734 223.909L158.836 223.133L158.059 226.03ZM153.2 224.728L150.602 226.229L151.223 227.305L152.424 227.626L153.2 224.728ZM150.771 220.523V217.523H145.575L148.173 222.023L150.771 220.523ZM155.628 220.523L157.75 218.401L156.871 217.523H155.628V220.523ZM159.186 224.08L157.065 226.201L159.186 228.322L161.307 226.201L159.186 224.08ZM160.632 222.633L162.753 224.755L164.875 222.633L162.753 220.512L160.632 222.633ZM158.521 220.523V217.523H151.278L156.4 222.644L158.521 220.523ZM164 220.523V223.523H167V220.523H164ZM164 215.477H158.521V221.477H164V215.477ZM160.642 220.599L162.753 218.488L158.511 214.245L156.4 216.356L160.642 220.599ZM162.753 214.245L161.307 212.799L157.065 217.042L158.511 218.488L162.753 214.245ZM157.065 212.799L153.507 216.356L157.75 220.599L161.307 217.042L157.065 212.799ZM155.629 215.477H150.771V221.477H155.629V215.477ZM153.369 219.978L155.798 215.772L150.602 212.771L148.173 216.977L153.369 219.978ZM153.976 217.169L158.836 215.867L157.283 210.072L152.424 211.374L153.976 217.169ZM160.957 212.193L160.428 210.217L154.632 211.771L155.162 213.746L160.957 212.193ZM156.754 208.096L153.87 208.869L155.423 214.665L158.306 213.892L156.754 208.096ZM157.244 213.267L159.984 208.523L154.788 205.522L152.048 210.267L157.244 213.267ZM158.886 204.424L157.114 203.402L154.114 208.598L155.886 209.621L158.886 204.424ZM153.016 204.5L150.277 209.244L155.473 212.244L158.212 207.5L153.016 204.5ZM155.773 209.967L155 207.084L149.204 208.638L149.977 211.521L155.773 209.967ZM151.326 204.963L149.35 205.492L150.903 211.288L152.879 210.759L151.326 204.963ZM147.229 209.167L148.531 214.026L154.326 212.472L153.024 207.614L147.229 209.167ZM148.831 211.749L146.402 215.955L151.598 218.955L154.027 214.749L148.831 211.749ZM151.598 215.955L149.17 211.749L143.974 214.749L146.402 218.955L151.598 215.955ZM149.469 214.026L150.771 209.167L144.976 207.614L143.674 212.473L149.469 214.026ZM148.65 205.492L146.674 204.963L145.121 210.759L147.097 211.288L148.65 205.492ZM143 207.084L142.227 209.968L148.023 211.521L148.796 208.637L143 207.084ZM147.723 209.244L144.984 204.5L139.788 207.5L142.527 212.244L147.723 209.244ZM140.886 203.402L139.114 204.424L142.114 209.621L143.886 208.598L140.886 203.402ZM138.016 208.523L140.756 213.267L145.952 210.267L143.212 205.522L138.016 208.523ZM144.13 208.869L141.246 208.096L139.694 213.892L142.577 214.664L144.13 208.869ZM137.572 210.218L137.043 212.193L142.838 213.746L143.368 211.771L137.572 210.218ZM139.164 215.868L144.024 217.169L145.576 211.374L140.717 210.072L139.164 215.868ZM142.202 215.772L144.631 219.978L149.827 216.977L147.398 212.771L142.202 215.772ZM147.229 215.477H142.372V221.477H147.229V215.477ZM144.493 216.356L140.935 212.799L136.693 217.042L140.25 220.599L144.493 216.356ZM136.693 212.799L135.247 214.245L139.489 218.488L140.935 217.042L136.693 212.799ZM135.247 218.488L137.358 220.599L141.6 216.356L139.489 214.245L135.247 218.488ZM139.479 215.477H134V221.477H139.479V215.477ZM131 218.477V220.523H137V218.477H131ZM134 223.523H139.479V217.523H134V223.523ZM137.358 218.401L135.247 220.512L139.489 224.755L141.6 222.644L137.358 218.401ZM135.247 224.755L136.693 226.201L140.935 221.958L139.489 220.512L135.247 224.755ZM140.935 226.201L144.493 222.644L140.25 218.401L136.693 221.958L140.935 226.201ZM142.372 223.523H147.229V217.523H142.372V223.523ZM144.631 219.022L142.202 223.228L147.398 226.229L149.827 222.023L144.631 219.022ZM144.024 221.831L139.164 223.133L140.717 228.928L145.576 227.626L144.024 221.831ZM137.043 226.807L137.572 228.783L143.368 227.229L142.838 225.254L137.043 226.807ZM141.246 230.904L144.13 230.131L142.577 224.335L139.693 225.108L141.246 230.904ZM140.756 225.733L138.016 230.477L143.212 233.478L145.952 228.733L140.756 225.733ZM139.114 234.576L140.886 235.598L143.886 230.402L142.114 229.379L139.114 234.576ZM144.984 234.5L147.723 229.756L142.527 226.756L139.788 231.5L144.984 234.5ZM142.227 229.033L143 231.916L148.795 230.363L148.023 227.479L142.227 229.033ZM146.674 234.037L148.65 233.508L147.097 227.712L145.121 228.241L146.674 234.037ZM150.771 229.833L149.469 224.974L143.674 226.528L144.976 231.386L150.771 229.833ZM149.169 227.251L151.598 223.045L146.402 220.045L143.973 224.251L149.169 227.251ZM146.402 223.045L148.831 227.251L154.027 224.251L151.598 220.045L146.402 223.045ZM148.531 224.974L147.229 229.833L153.024 231.387L154.326 226.528L148.531 224.974ZM149.35 233.508L151.326 234.037L152.878 228.241L150.903 227.712L149.35 233.508ZM155 231.916L155.773 229.032L149.977 227.479L149.204 230.363L155 231.916ZM150.277 229.756L153.016 234.5L158.212 231.5L155.473 226.756L150.277 229.756ZM157.114 235.598L158.886 234.576L155.886 229.379L154.114 230.402L157.114 235.598ZM159.984 230.477L157.244 225.733L152.048 228.733L154.788 233.478L159.984 230.477ZM153.87 230.131L156.754 230.904L158.306 225.108L155.423 224.336L153.87 230.131ZM160.428 228.782L160.957 226.807L155.162 225.254L154.632 227.229L160.428 228.782ZM158.836 223.133L153.976 221.831L152.424 227.626L157.283 228.928L158.836 223.133ZM155.798 223.228L153.369 219.022L148.173 222.023L150.602 226.229L155.798 223.228ZM150.771 223.523H155.628V217.523H150.771V223.523ZM153.507 222.644L157.065 226.201L161.307 221.958L157.75 218.401L153.507 222.644ZM161.307 226.201L162.753 224.755L158.511 220.512L157.065 221.958L161.307 226.201ZM162.753 220.512L160.642 218.401L156.4 222.644L158.511 224.755L162.753 220.512ZM158.521 223.523H164V217.523H158.521V223.523ZM167 220.523V218.477H161V220.523H167Z" fill="url(#paint5_linear_2_587)" mask="url(#path-5-inside-3_2_587)"/>
<mask id="path-7-inside-4_2_587" fill="white">
<path d="M249 218.477H243.521L245.632 216.367L244.186 214.921L240.629 218.477H235.771L238.2 214.272L243.059 212.97L242.53 210.994L239.646 211.767L242.386 207.023L240.614 206L237.875 210.744L237.102 207.861L235.126 208.39L236.429 213.249L234 217.455L231.572 213.249L232.873 208.39L230.898 207.861L230.125 210.744L227.386 206L225.614 207.023L228.354 211.767L225.47 210.994L224.941 212.97L229.8 214.272L232.229 218.477H227.372L223.814 214.92L222.368 216.367L224.479 218.477H219V220.523H224.479L222.368 222.633L223.814 224.08L227.372 220.523H232.229L229.8 224.728L224.94 226.03L225.47 228.006L228.354 227.233L225.614 231.977L227.386 233L230.125 228.256L230.898 231.139L232.873 230.61L231.571 225.751L234 221.545L236.429 225.751L235.126 230.61L237.102 231.139L237.875 228.256L240.614 233L242.386 231.977L239.646 227.233L242.53 228.006L243.059 226.03L238.2 224.728L235.771 220.523H240.628L244.186 224.08L245.632 222.633L243.521 220.523H249V218.477Z"/>
</mask>
<path d="M249 218.477H243.521L245.632 216.367L244.186 214.921L240.629 218.477H235.771L238.2 214.272L243.059 212.97L242.53 210.994L239.646 211.767L242.386 207.023L240.614 206L237.875 210.744L237.102 207.861L235.126 208.39L236.429 213.249L234 217.455L231.572 213.249L232.873 208.39L230.898 207.861L230.125 210.744L227.386 206L225.614 207.023L228.354 211.767L225.47 210.994L224.941 212.97L229.8 214.272L232.229 218.477H227.372L223.814 214.92L222.368 216.367L224.479 218.477H219V220.523H224.479L222.368 222.633L223.814 224.08L227.372 220.523H232.229L229.8 224.728L224.94 226.03L225.47 228.006L228.354 227.233L225.614 231.977L227.386 233L230.125 228.256L230.898 231.139L232.873 230.61L231.571 225.751L234 221.545L236.429 225.751L235.126 230.61L237.102 231.139L237.875 228.256L240.614 233L242.386 231.977L239.646 227.233L242.53 228.006L243.059 226.03L238.2 224.728L235.771 220.523H240.628L244.186 224.08L245.632 222.633L243.521 220.523H249V218.477Z" fill="url(#paint6_linear_2_587)"/>
<path d="M249 218.477H252V215.477H249V218.477ZM243.521 218.477L241.4 216.356L236.278 221.477H243.521V218.477ZM245.632 216.367L247.753 218.488L249.875 216.367L247.753 214.245L245.632 216.367ZM244.186 214.921L246.307 212.799L244.186 210.678L242.065 212.799L244.186 214.921ZM240.629 218.477V221.477H241.871L242.75 220.599L240.629 218.477ZM235.771 218.477L233.173 216.977L230.575 221.477H235.771V218.477ZM238.2 214.272L237.424 211.374L236.223 211.695L235.602 212.771L238.2 214.272ZM243.059 212.97L243.836 215.867L246.734 215.091L245.957 212.193L243.059 212.97ZM242.53 210.994L245.428 210.217L244.651 207.32L241.754 208.096L242.53 210.994ZM239.646 211.767L237.048 210.267L233.426 216.539L240.423 214.665L239.646 211.767ZM242.386 207.023L244.984 208.523L246.484 205.924L243.886 204.424L242.386 207.023ZM240.614 206L242.114 203.402L239.516 201.902L238.016 204.5L240.614 206ZM237.875 210.744L234.977 211.521L236.852 218.515L240.473 212.244L237.875 210.744ZM237.102 207.861L240 207.084L239.223 204.187L236.326 204.963L237.102 207.861ZM235.126 208.39L234.35 205.492L231.452 206.269L232.229 209.167L235.126 208.39ZM236.429 213.249L239.027 214.749L239.648 213.673L239.326 212.472L236.429 213.249ZM234 217.455L231.402 218.955L234 223.454L236.598 218.955L234 217.455ZM231.572 213.249L228.674 212.473L228.352 213.673L228.974 214.749L231.572 213.249ZM232.873 208.39L235.771 209.167L236.548 206.269L233.65 205.492L232.873 208.39ZM230.898 207.861L231.674 204.963L228.777 204.187L228 207.084L230.898 207.861ZM230.125 210.744L227.527 212.244L231.148 218.515L233.023 211.521L230.125 210.744ZM227.386 206L229.984 204.5L228.484 201.902L225.886 203.402L227.386 206ZM225.614 207.023L224.114 204.424L221.516 205.924L223.016 208.523L225.614 207.023ZM228.354 211.767L227.577 214.664L234.573 216.539L230.952 210.267L228.354 211.767ZM225.47 210.994L226.246 208.096L223.349 207.32L222.572 210.218L225.47 210.994ZM224.941 212.97L222.043 212.193L221.266 215.091L224.164 215.868L224.941 212.97ZM229.8 214.272L232.398 212.771L231.777 211.695L230.576 211.374L229.8 214.272ZM232.229 218.477V221.477H237.425L234.827 216.977L232.229 218.477ZM227.372 218.477L225.25 220.599L226.129 221.477H227.372V218.477ZM223.814 214.92L225.935 212.799L223.814 210.678L221.693 212.799L223.814 214.92ZM222.368 216.367L220.247 214.245L218.125 216.367L220.247 218.488L222.368 216.367ZM224.479 218.477V221.477H231.722L226.6 216.356L224.479 218.477ZM219 218.477V215.477H216V218.477H219ZM219 220.523H216V223.523H219V220.523ZM224.479 220.523L226.6 222.644L231.722 217.523H224.479V220.523ZM222.368 222.633L220.247 220.512L218.125 222.633L220.247 224.755L222.368 222.633ZM223.814 224.08L221.693 226.201L223.814 228.322L225.935 226.201L223.814 224.08ZM227.372 220.523V217.523H226.129L225.25 218.401L227.372 220.523ZM232.229 220.523L234.827 222.023L237.425 217.523H232.229V220.523ZM229.8 224.728L230.576 227.626L231.777 227.305L232.398 226.229L229.8 224.728ZM224.94 226.03L224.164 223.133L221.266 223.909L222.043 226.807L224.94 226.03ZM225.47 228.006L222.572 228.783L223.349 231.68L226.246 230.904L225.47 228.006ZM228.354 227.233L230.952 228.733L234.574 222.461L227.577 224.335L228.354 227.233ZM225.614 231.977L223.016 230.477L221.516 233.076L224.114 234.576L225.614 231.977ZM227.386 233L225.886 235.598L228.484 237.098L229.984 234.5L227.386 233ZM230.125 228.256L233.023 227.479L231.148 220.485L227.527 226.756L230.125 228.256ZM230.898 231.139L228 231.916L228.777 234.813L231.674 234.037L230.898 231.139ZM232.873 230.61L233.65 233.508L236.548 232.731L235.771 229.833L232.873 230.61ZM231.571 225.751L228.973 224.251L228.352 225.327L228.674 226.528L231.571 225.751ZM234 221.545L236.598 220.045L234 215.546L231.402 220.045L234 221.545ZM236.429 225.751L239.326 226.528L239.648 225.327L239.027 224.251L236.429 225.751ZM235.126 230.61L232.229 229.833L231.452 232.731L234.35 233.508L235.126 230.61ZM237.102 231.139L236.326 234.037L239.223 234.813L240 231.916L237.102 231.139ZM237.875 228.256L240.473 226.756L236.852 220.484L234.977 227.479L237.875 228.256ZM240.614 233L238.016 234.5L239.516 237.098L242.114 235.598L240.614 233ZM242.386 231.977L243.886 234.576L246.484 233.076L244.984 230.477L242.386 231.977ZM239.646 227.233L240.423 224.336L233.426 222.461L237.048 228.733L239.646 227.233ZM242.53 228.006L241.754 230.904L244.651 231.68L245.428 228.782L242.53 228.006ZM243.059 226.03L245.957 226.807L246.734 223.909L243.836 223.133L243.059 226.03ZM238.2 224.728L235.602 226.229L236.223 227.305L237.424 227.626L238.2 224.728ZM235.771 220.523V217.523H230.575L233.173 222.023L235.771 220.523ZM240.628 220.523L242.75 218.401L241.871 217.523H240.628V220.523ZM244.186 224.08L242.065 226.201L244.186 228.322L246.307 226.201L244.186 224.08ZM245.632 222.633L247.753 224.755L249.875 222.633L247.753 220.512L245.632 222.633ZM243.521 220.523V217.523H236.278L241.4 222.644L243.521 220.523ZM249 220.523V223.523H252V220.523H249ZM249 215.477H243.521V221.477H249V215.477ZM245.642 220.599L247.753 218.488L243.511 214.245L241.4 216.356L245.642 220.599ZM247.753 214.245L246.307 212.799L242.065 217.042L243.511 218.488L247.753 214.245ZM242.065 212.799L238.507 216.356L242.75 220.599L246.307 217.042L242.065 212.799ZM240.629 215.477H235.771V221.477H240.629V215.477ZM238.369 219.978L240.798 215.772L235.602 212.771L233.173 216.977L238.369 219.978ZM238.976 217.169L243.836 215.867L242.283 210.072L237.424 211.374L238.976 217.169ZM245.957 212.193L245.428 210.217L239.632 211.771L240.162 213.746L245.957 212.193ZM241.754 208.096L238.87 208.869L240.423 214.665L243.306 213.892L241.754 208.096ZM242.244 213.267L244.984 208.523L239.788 205.522L237.048 210.267L242.244 213.267ZM243.886 204.424L242.114 203.402L239.114 208.598L240.886 209.621L243.886 204.424ZM238.016 204.5L235.277 209.244L240.473 212.244L243.212 207.5L238.016 204.5ZM240.773 209.967L240 207.084L234.204 208.638L234.977 211.521L240.773 209.967ZM236.326 204.963L234.35 205.492L235.903 211.288L237.879 210.759L236.326 204.963ZM232.229 209.167L233.531 214.026L239.326 212.472L238.024 207.614L232.229 209.167ZM233.831 211.749L231.402 215.955L236.598 218.955L239.027 214.749L233.831 211.749ZM236.598 215.955L234.17 211.749L228.974 214.749L231.402 218.955L236.598 215.955ZM234.469 214.026L235.771 209.167L229.976 207.614L228.674 212.473L234.469 214.026ZM233.65 205.492L231.674 204.963L230.121 210.759L232.097 211.288L233.65 205.492ZM228 207.084L227.227 209.968L233.023 211.521L233.796 208.637L228 207.084ZM232.723 209.244L229.984 204.5L224.788 207.5L227.527 212.244L232.723 209.244ZM225.886 203.402L224.114 204.424L227.114 209.621L228.886 208.598L225.886 203.402ZM223.016 208.523L225.756 213.267L230.952 210.267L228.212 205.522L223.016 208.523ZM229.13 208.869L226.246 208.096L224.694 213.892L227.577 214.664L229.13 208.869ZM222.572 210.218L222.043 212.193L227.838 213.746L228.368 211.771L222.572 210.218ZM224.164 215.868L229.024 217.169L230.576 211.374L225.717 210.072L224.164 215.868ZM227.202 215.772L229.631 219.978L234.827 216.977L232.398 212.771L227.202 215.772ZM232.229 215.477H227.372V221.477H232.229V215.477ZM229.493 216.356L225.935 212.799L221.693 217.042L225.25 220.599L229.493 216.356ZM221.693 212.799L220.247 214.245L224.489 218.488L225.935 217.042L221.693 212.799ZM220.247 218.488L222.358 220.599L226.6 216.356L224.489 214.245L220.247 218.488ZM224.479 215.477H219V221.477H224.479V215.477ZM216 218.477V220.523H222V218.477H216ZM219 223.523H224.479V217.523H219V223.523ZM222.358 218.401L220.247 220.512L224.489 224.755L226.6 222.644L222.358 218.401ZM220.247 224.755L221.693 226.201L225.935 221.958L224.489 220.512L220.247 224.755ZM225.935 226.201L229.493 222.644L225.25 218.401L221.693 221.958L225.935 226.201ZM227.372 223.523H232.229V217.523H227.372V223.523ZM229.631 219.022L227.202 223.228L232.398 226.229L234.827 222.023L229.631 219.022ZM229.024 221.831L224.164 223.133L225.717 228.928L230.576 227.626L229.024 221.831ZM222.043 226.807L222.572 228.783L228.368 227.229L227.838 225.254L222.043 226.807ZM226.246 230.904L229.13 230.131L227.577 224.335L224.693 225.108L226.246 230.904ZM225.756 225.733L223.016 230.477L228.212 233.478L230.952 228.733L225.756 225.733ZM224.114 234.576L225.886 235.598L228.886 230.402L227.114 229.379L224.114 234.576ZM229.984 234.5L232.723 229.756L227.527 226.756L224.788 231.5L229.984 234.5ZM227.227 229.033L228 231.916L233.795 230.363L233.023 227.479L227.227 229.033ZM231.674 234.037L233.65 233.508L232.097 227.712L230.121 228.241L231.674 234.037ZM235.771 229.833L234.469 224.974L228.674 226.528L229.976 231.386L235.771 229.833ZM234.169 227.251L236.598 223.045L231.402 220.045L228.973 224.251L234.169 227.251ZM231.402 223.045L233.831 227.251L239.027 224.251L236.598 220.045L231.402 223.045ZM233.531 224.974L232.229 229.833L238.024 231.387L239.326 226.528L233.531 224.974ZM234.35 233.508L236.326 234.037L237.878 228.241L235.903 227.712L234.35 233.508ZM240 231.916L240.773 229.032L234.977 227.479L234.204 230.363L240 231.916ZM235.277 229.756L238.016 234.5L243.212 231.5L240.473 226.756L235.277 229.756ZM242.114 235.598L243.886 234.576L240.886 229.379L239.114 230.402L242.114 235.598ZM244.984 230.477L242.244 225.733L237.048 228.733L239.788 233.478L244.984 230.477ZM238.87 230.131L241.754 230.904L243.306 225.108L240.423 224.336L238.87 230.131ZM245.428 228.782L245.957 226.807L240.162 225.254L239.632 227.229L245.428 228.782ZM243.836 223.133L238.976 221.831L237.424 227.626L242.283 228.928L243.836 223.133ZM240.798 223.228L238.369 219.022L233.173 222.023L235.602 226.229L240.798 223.228ZM235.771 223.523H240.628V217.523H235.771V223.523ZM238.507 222.644L242.065 226.201L246.307 221.958L242.75 218.401L238.507 222.644ZM246.307 226.201L247.753 224.755L243.511 220.512L242.065 221.958L246.307 226.201ZM247.753 220.512L245.642 218.401L241.4 222.644L243.511 224.755L247.753 220.512ZM243.521 223.523H249V217.523H243.521V223.523ZM252 220.523V218.477H246V220.523H252Z" fill="url(#paint7_linear_2_587)" mask="url(#path-7-inside-4_2_587)"/>
<path d="M198.682 205.521L199.856 221.955C200.44 230.133 192.64 236.355 184.796 233.969C176.951 231.583 173.938 222.072 178.977 215.604L189.103 202.607C192.123 198.731 198.332 200.62 198.682 205.521Z" fill="url(#paint8_linear_2_587)" stroke="url(#paint9_linear_2_587)" stroke-width="3"/>
<path d="M113.682 205.521L114.856 221.955C115.44 230.133 107.64 236.355 99.7959 233.969C91.9513 231.583 88.9379 222.072 93.9772 215.604L104.103 202.607C107.123 198.731 113.332 200.62 113.682 205.521Z" fill="url(#paint10_linear_2_587)" stroke="url(#paint11_linear_2_587)" stroke-width="3"/>
<defs>
<filter id="filter0_bd_2_587" x="0" y="0" width="338" height="261" filterUnits="userSpaceOnUse" color-interpolation-filters="sRGB">
<feFlood flood-opacity="0" result="BackgroundImageFix"/>
<feGaussianBlur in="BackgroundImage" stdDeviation="7"/>
<feComposite in2="SourceAlpha" operator="in" result="effect1_backgroundBlur_2_587"/>
<feColorMatrix in="SourceAlpha" type="matrix" values="0 0 0 0 0 0 0 0 0 0 0 0 0 0 0 0 0 0 127 0" result="hardAlpha"/>
<feOffset dx="-21" dy="15"/>
<feGaussianBlur stdDeviation="25"/>
<feComposite in2="hardAlpha" operator="out"/>
<feColorMatrix type="matrix" values="0 0 0 0 0.113725 0 0 0 0 0.14902 0 0 0 0 0.27451 0 0 0 0.25 0"/>
<feBlend mode="normal" in2="effect1_backgroundBlur_2_587" result="effect2_dropShadow_2_587"/>
<feBlend mode="normal" in="SourceGraphic" in2="effect2_dropShadow_2_587" result="shape"/>
</filter>
<filter id="filter1_bd_2_587" x="132" y="0" width="272" height="216.353" filterUnits="userSpaceOnUse" color-interpolation-filters="sRGB">
<feFlood flood-opacity="0" result="BackgroundImageFix"/>
<feGaussianBlur in="BackgroundImage" stdDeviation="7"/>
<feComposite in2="SourceAlpha" operator="in" result="effect1_backgroundBlur_2_587"/>
<feColorMatrix in="SourceAlpha" type="matrix" values="0 0 0 0 0 0 0 0 0 0 0 0 0 0 0 0 0 0 127 0" result="hardAlpha"/>
<feOffset dx="-21" dy="15"/>
<feGaussianBlur stdDeviation="25"/>
<feComposite in2="hardAlpha" operator="out"/>
<feColorMatrix type="matrix" values="0 0 0 0 0.113438 0 0 0 0 0.148981 0 0 0 0 0.275 0 0 0 0.25 0"/>
<feBlend mode="normal" in2="effect1_backgroundBlur_2_587" result="effect2_dropShadow_2_587"/>
<feBlend mode="normal" in="SourceGraphic" in2="effect2_dropShadow_2_587" result="shape"/>
</filter>
<linearGradient id="paint0_linear_2_587" x1="190" y1="-16.5" x2="190" y2="218.5" gradientUnits="userSpaceOnUse">
<stop stop-color="white"/>
<stop offset="1" stop-color="white" stop-opacity="0"/>
</linearGradient>
<linearGradient id="paint1_linear_2_587" x1="190" y1="35" x2="190" y2="196" gradientUnits="userSpaceOnUse">
<stop stop-color="white"/>
<stop offset="1" stop-color="white" stop-opacity="0"/>
</linearGradient>
<linearGradient id="paint2_linear_2_587" x1="297" y1="38.5" x2="297" y2="164.5" gradientUnits="userSpaceOnUse">
<stop stop-color="white"/>
<stop offset="1" stop-color="white" stop-opacity="0"/>
</linearGradient>
<linearGradient id="paint3_linear_2_587" x1="289" y1="35" x2="289" y2="151.353" gradientUnits="userSpaceOnUse">
<stop stop-color="white"/>
<stop offset="1" stop-color="white" stop-opacity="0"/>
</linearGradient>
<linearGradient id="paint4_linear_2_587" x1="149" y1="206" x2="149" y2="233" gradientUnits="userSpaceOnUse">
<stop stop-color="#138EFF"/>
<stop offset="1" stop-color="#00E0FF"/>
</linearGradient>
<linearGradient id="paint5_linear_2_587" x1="149" y1="206" x2="149" y2="233" gradientUnits="userSpaceOnUse">
<stop stop-color="white"/>
<stop offset="1" stop-color="white" stop-opacity="0"/>
</linearGradient>
<linearGradient id="paint6_linear_2_587" x1="234" y1="206" x2="234" y2="233" gradientUnits="userSpaceOnUse">
<stop stop-color="#138EFF"/>
<stop offset="1" stop-color="#00E0FF"/>
</linearGradient>
<linearGradient id="paint7_linear_2_587" x1="234" y1="206" x2="234" y2="233" gradientUnits="userSpaceOnUse">
<stop stop-color="white"/>
<stop offset="1" stop-color="white" stop-opacity="0"/>
</linearGradient>
<linearGradient id="paint8_linear_2_587" x1="198.905" y1="187.585" x2="184.359" y2="235.404" gradientUnits="userSpaceOnUse">
<stop stop-color="#138EFF"/>
<stop offset="1" stop-color="#00E0FF"/>
</linearGradient>
<linearGradient id="paint9_linear_2_587" x1="198.905" y1="187.585" x2="184.359" y2="235.404" gradientUnits="userSpaceOnUse">
<stop stop-color="white"/>
<stop offset="1" stop-color="white" stop-opacity="0"/>
</linearGradient>
<linearGradient id="paint10_linear_2_587" x1="113.905" y1="187.585" x2="99.3594" y2="235.404" gradientUnits="userSpaceOnUse">
<stop stop-color="#138EFF"/>
<stop offset="1" stop-color="#00E0FF"/>
</linearGradient>
<linearGradient id="paint11_linear_2_587" x1="113.905" y1="187.585" x2="99.3594" y2="235.404" gradientUnits="userSpaceOnUse">
<stop stop-color="white"/>
<stop offset="1" stop-color="white" stop-opacity="0"/>
</linearGradient>
</defs>
</svg>
