<svg width="27" height="25" viewBox="0 0 27 25" fill="none" xmlns="http://www.w3.org/2000/svg">
<path d="M22.613 12.9953H0.554116C0.248022 12.9953 0 12.7472 0 12.4412C0 12.1351 0.248022 11.887 0.554116 11.887H22.5059C22.5405 11.8802 22.5764 11.8767 22.613 11.8767C24.4209 11.8767 25.8918 10.4058 25.8918 8.59795C25.8918 6.79006 24.4209 5.31914 22.613 5.31914C20.8051 5.31914 19.3343 6.78998 19.3343 8.59788C19.3343 8.9039 19.0863 9.152 18.7802 9.152C18.4741 9.152 18.2261 8.9039 18.2261 8.59788C18.2261 6.17891 20.1941 4.21091 22.613 4.21091C25.032 4.21091 27 6.17891 27 8.59788C27 10.9787 25.0938 12.9226 22.7275 12.9834C22.6905 12.9912 22.6523 12.9953 22.613 12.9953Z" fill="black"/>
<path d="M11.251 9.15724H0.554116C0.248022 9.15724 0 8.90914 0 8.60312C0 8.29711 0.248022 8.04901 0.554116 8.04901H11.1439C11.1785 8.04221 11.2143 8.03867 11.251 8.03867C13.0589 8.03867 14.5297 6.56782 14.5297 4.75992C14.5297 2.95203 13.0589 1.48118 11.251 1.48118C9.44302 1.48118 7.97218 2.95203 7.97218 4.75992C7.97218 5.06594 7.72415 5.31404 7.41806 5.31404C7.11197 5.31404 6.86394 5.06594 6.86394 4.75992C6.86394 2.34095 8.83202 0.372952 11.251 0.372952C13.67 0.372952 15.638 2.34095 15.638 4.75992C15.638 7.1407 13.7317 9.08461 11.3654 9.14542C11.3285 9.1531 11.2902 9.15724 11.251 9.15724Z" fill="black"/>
<path d="M18.041 24.6272C15.622 24.6272 13.6539 22.6592 13.6539 20.2402C13.6539 19.9342 13.902 19.6861 14.2081 19.6861C14.5141 19.6861 14.7622 19.9342 14.7622 20.2402C14.7622 22.0481 16.233 23.519 18.041 23.519C19.8489 23.519 21.3197 22.0481 21.3197 20.2402C21.3197 18.4323 19.8489 16.9615 18.041 16.9615H0.554116C0.248022 16.9615 0 16.7134 0 16.4074C0 16.1013 0.248022 15.8533 0.554116 15.8533H18.041C20.46 15.8533 22.428 17.8213 22.428 20.2402C22.428 22.6592 20.46 24.6272 18.041 24.6272Z" fill="black"/>
</svg>
