<svg width="17" height="11" viewBox="0 0 17 11" fill="none" xmlns="http://www.w3.org/2000/svg">
<path d="M0 0V0.6875V6.1875V6.875H0.708333H5.66667C5.66667 8.40151 4.4061 9.625 2.83333 9.625V11C5.17198 11 7.08333 9.14487 7.08333 6.875V0.6875V0H6.375H0.708333H0ZM9.91667 0V0.6875V6.1875V6.875H10.625H15.5833C15.5833 8.40151 14.3228 9.625 12.75 9.625V11C15.0887 11 17 9.14487 17 6.875V0.6875V0H16.2917H10.625H9.91667ZM1.41667 1.375H5.66667V5.5H1.41667V1.375ZM11.3333 1.375H15.5833V5.5H11.3333V1.375Z" fill="black"/>
</svg>
