<svg width="16" height="16" viewBox="0 0 16 16" fill="none" xmlns="http://www.w3.org/2000/svg">
<g clip-path="url(#clip0_104_22)">
<path d="M3.99092 12.1486C3.33843 11.5611 2.86773 10.8566 2.55934 10.1003C1.7413 8.09412 2.12435 5.70816 3.72148 4.06233L5.19526 5.53611C5.27642 5.61727 5.4225 5.55884 5.44197 5.43873L6.24703 0.170133C6.26002 0.0824855 6.18535 0.0078227 6.09771 0.0208075L0.825867 0.825867C0.705757 0.845344 0.647325 0.991423 0.728481 1.07258L2.2055 2.5496C-0.232396 5.04269 -0.647911 8.78232 0.952469 11.7039C1.43291 12.5836 2.09838 13.3887 2.94564 14.0639C4.38696 15.2098 6.15938 15.7584 7.91883 15.7227L8.24994 13.5575C6.73396 13.6873 5.17578 13.2199 3.99092 12.1486Z" fill="black"/>
<path d="M13.7945 13.4504C16.2324 10.9573 16.6479 7.21765 15.0475 4.29606C14.5671 3.41634 13.9016 2.61128 13.0543 1.93607C11.613 0.790156 9.84058 0.241547 8.08114 0.277256L7.75003 2.44248C9.26276 2.31263 10.8242 2.78008 12.009 3.85133C12.6615 4.43889 13.1322 5.14332 13.4406 5.89969C14.2587 7.90584 13.8756 10.2918 12.2785 11.9376L10.8047 10.4639C10.7236 10.3827 10.5775 10.4411 10.558 10.5612L9.75294 15.8298C9.73995 15.9175 9.81461 15.9921 9.90226 15.9792L15.1741 15.1741C15.2942 15.1546 15.3494 15.0085 15.2715 14.9274L13.7945 13.4504Z" fill="black"/>
</g>
<defs>
<clipPath id="clip0_104_22">
<rect width="16" height="16" fill="white"/>
</clipPath>
</defs>
</svg>
