<svg width="22" height="22" viewBox="0 0 22 22" fill="none" xmlns="http://www.w3.org/2000/svg">
<path d="M3.12352 13.2995C3.27242 13.335 3.47462 13.5186 3.53299 13.6861L3.8291 14.4002C3.89594 14.5372 3.88325 14.8088 3.80372 14.9391L2.62183 16.8714C2.36887 17.286 2.42132 17.8731 2.76142 18.2538L3.76227 19.2538C4.11083 19.5635 4.72589 19.6193 5.1269 19.3765L7.05922 18.1946C7.1802 18.1201 7.43993 18.0939 7.62183 18.1794L8.33503 18.4738C8.47885 18.5237 8.66244 18.725 8.69797 18.8739L9.22843 21.077C9.34095 21.544 9.7868 21.9281 10.2657 21.9721C10.2657 21.9721 10.5592 21.9992 10.9992 21.9992C11.4391 21.9992 11.7327 21.9721 11.7335 21.9721C12.2115 21.9289 12.6574 21.544 12.7699 21.077L13.3012 18.8739C13.3367 18.7259 13.5195 18.5237 13.687 18.4653L14.401 18.1692C14.5271 18.1074 14.819 18.1201 14.9399 18.1946L16.8723 19.3765C17.0423 19.4805 17.2453 19.5355 17.4611 19.5355C17.753 19.5355 18.0355 19.4332 18.2547 19.2377L19.2547 18.2369C19.5778 17.8739 19.6303 17.2868 19.3773 16.8723L18.1954 14.9399C18.1159 14.8096 18.1032 14.5381 18.1802 14.3773L18.4746 13.6641C18.5245 13.5203 18.7259 13.3367 18.8748 13.3012L21.0778 12.7707C21.5448 12.6582 21.9289 12.2124 21.9729 11.7335C21.9729 11.7335 22 11.4399 22 11C22 10.5601 21.9729 10.2665 21.9729 10.2657C21.9298 9.78765 21.5448 9.34179 21.0778 9.22843L18.8756 8.69882C18.7267 8.66328 18.5245 8.4797 18.4662 8.31218L18.17 7.59814C18.1032 7.46108 18.1159 7.18951 18.1954 7.05922L19.3773 5.1269C19.6303 4.71235 19.5778 4.12521 19.2377 3.7445L18.2369 2.7445C17.8875 2.43401 17.2716 2.37817 16.8723 2.62183L14.9399 3.80372C14.819 3.87733 14.5584 3.90525 14.3773 3.81895L13.6641 3.52454C13.5203 3.47462 13.3376 3.27327 13.302 3.12437L12.7707 0.92132C12.6582 0.454315 12.2124 0.0702201 11.7335 0.0262269C11.7318 0.0270729 11.4382 0 10.9983 0C10.5584 0 10.2648 0.0270728 10.264 0.0270728C9.78596 0.07022 9.3401 0.455161 9.22673 0.922166L8.69712 3.12352C8.66159 3.27242 8.478 3.47462 8.31049 3.53299L7.59645 3.8291C7.46954 3.89086 7.17851 3.87733 7.05753 3.80372L5.12606 2.62183C4.72589 2.37817 4.12352 2.42047 3.74365 2.76058L2.74365 3.76142C2.42047 4.12437 2.36802 4.71151 2.62098 5.12606L3.80288 7.05838C3.8824 7.18866 3.89509 7.46024 3.8181 7.62098L3.52369 8.33418C3.47377 8.478 3.27242 8.66159 3.12352 8.69712L0.920474 9.22758C0.453469 9.3401 0.0693739 9.78596 0.0253807 10.2648C0.0270728 10.2648 0 10.5584 0 10.9983C0 11.4382 0.0270728 11.7318 0.0270728 11.7327C0.07022 12.2107 0.455161 12.6565 0.922166 12.7699L3.12352 13.2995ZM0.846024 10.9983C0.846024 10.6108 0.868866 10.3494 0.869712 10.3409C0.879865 10.2267 1.00931 10.077 1.12014 10.0499L3.32318 9.51946C3.75042 9.41624 4.18105 9.02538 4.31472 8.63367L4.58883 7.96785C4.78173 7.57276 4.75465 6.99239 4.52538 6.61675L3.34349 4.68528C3.2868 4.59137 3.30288 4.40525 3.35871 4.34179L4.32403 3.37563C4.40102 3.30711 4.59729 3.29019 4.68528 3.34349L6.6176 4.52538C6.98393 4.74958 7.61168 4.76481 7.94416 4.59983L8.61083 4.32403C9.02623 4.18105 9.41709 3.75042 9.5203 3.32234L10.0499 1.12014C10.077 1.00846 10.2267 0.879019 10.3409 0.868866C10.3494 0.868866 10.6108 0.846024 10.9983 0.846024C11.3858 0.846024 11.6472 0.868866 11.6557 0.869712C11.7699 0.879865 11.9196 1.00931 11.9467 1.12014L12.4772 3.32234C12.5804 3.74958 12.9704 4.18105 13.3629 4.31472L14.0288 4.58883C14.4154 4.77834 15.0144 4.74873 15.3799 4.52538L17.3113 3.34349C17.3993 3.29019 17.6074 3.31811 17.6548 3.35871L18.621 4.32403C18.6937 4.40609 18.7098 4.59137 18.6531 4.68528L17.4712 6.6176C17.242 6.99239 17.2149 7.5736 17.3968 7.94416L17.6726 8.61083C17.8156 9.02623 18.2462 9.41709 18.6743 9.52031L20.8765 10.0499C20.9882 10.077 21.1176 10.2267 21.1277 10.3409C21.1277 10.3494 21.1506 10.6108 21.1506 10.9983C21.1506 11.3858 21.1277 11.6472 21.1269 11.6557C21.1168 11.7699 20.9873 11.9196 20.8765 11.9467L18.6734 12.4772C18.2462 12.5804 17.8156 12.9712 17.6819 13.3629L17.4078 14.0288C17.2149 14.4239 17.242 15.0042 17.4712 15.3799L18.6531 17.3113C18.7098 17.4052 18.6937 17.5914 18.6379 17.6548L17.6726 18.621C17.6269 18.6616 17.544 18.6878 17.4602 18.6878C17.4019 18.6878 17.3477 18.6751 17.3122 18.6531L15.3799 17.4712C15.0144 17.2479 14.3866 17.2318 14.0533 17.3968L13.3866 17.6726C12.9712 17.8156 12.5804 18.247 12.478 18.6743L11.9475 20.8765C11.9205 20.9882 11.7707 21.1176 11.6565 21.1278C11.6472 21.1278 11.3858 21.1506 10.9983 21.1506C10.6108 21.1506 10.3494 21.1278 10.3409 21.1269C10.2267 21.1168 10.077 20.9873 10.0499 20.8765L9.51946 18.6734C9.41624 18.2462 9.02538 17.8156 8.63367 17.6819L7.96785 17.4078C7.79526 17.3232 7.58629 17.2792 7.36294 17.2792C7.0846 17.2792 6.8198 17.3477 6.61675 17.4721L4.68528 18.654C4.59729 18.7073 4.38832 18.6785 4.34179 18.6387L3.37563 17.6726C3.30288 17.5905 3.2868 17.4052 3.34349 17.3113L4.52538 15.379C4.75465 15.0042 4.78173 14.423 4.59983 14.0525L4.32403 13.3858C4.18105 12.9704 3.75042 12.5795 3.32234 12.4763L1.12014 11.9467C1.00846 11.9196 0.879019 11.7699 0.868866 11.6557C0.868866 11.6472 0.846024 11.3858 0.846024 10.9983Z" fill="black"/>
<path d="M10.9983 15.6514C13.5643 15.6514 15.6514 13.5643 15.6514 10.9983C15.6514 8.43232 13.5643 6.34518 10.9983 6.34518C8.43232 6.34518 6.34518 8.43232 6.34518 10.9983C6.34518 13.5643 8.43232 15.6514 10.9983 15.6514ZM10.9983 7.19121C13.0973 7.19121 14.8054 8.89933 14.8054 10.9983C14.8054 13.0973 13.0973 14.8054 10.9983 14.8054C8.89933 14.8054 7.19121 13.0973 7.19121 10.9983C7.19121 8.89933 8.89933 7.19121 10.9983 7.19121Z" fill="black"/>
</svg>
