<svg width="16" height="16" viewBox="0 0 16 16" fill="none" xmlns="http://www.w3.org/2000/svg">
<path fill-rule="evenodd" clip-rule="evenodd" d="M5.56913 0.6264C5.60945 0.44875 5.71041 0.289873 5.85535 0.175992C6.00029 0.0621103 6.18054 3.12302e-05 6.36635 0H9.63365C9.81946 3.12302e-05 9.99971 0.0621103 10.1447 0.175992C10.2896 0.289873 10.3905 0.44875 10.4309 0.6264L10.7903 2.2112C11.117 2.3632 11.4282 2.5392 11.7215 2.7392L13.3045 2.2512C13.4817 2.19661 13.6727 2.20285 13.8458 2.26888C14.019 2.33491 14.164 2.45679 14.2569 2.6144L15.8905 5.3856C15.9835 5.54323 16.0187 5.7272 15.9905 5.90712C15.9623 6.08704 15.8723 6.25215 15.7353 6.3752L14.5125 7.4736C14.5417 7.82395 14.5417 8.17605 14.5125 8.5264L15.7353 9.6248C15.8723 9.74785 15.9623 9.91296 15.9905 10.0929C16.0187 10.2728 15.9835 10.4568 15.8905 10.6144L14.2569 13.3856C14.164 13.5432 14.019 13.6651 13.8458 13.7311C13.6727 13.7971 13.4817 13.8034 13.3045 13.7488L11.7223 13.2608C11.4282 13.4608 11.117 13.6368 10.7911 13.7888L10.4317 15.3728C10.3915 15.5507 10.2905 15.7099 10.1454 15.8239C10.0002 15.938 9.81972 16.0001 9.63365 16H6.36635C6.18054 16 6.00029 15.9379 5.85535 15.824C5.71041 15.7101 5.60945 15.5512 5.56913 15.3736L5.20973 13.7888C4.883 13.6368 4.57179 13.4608 4.27855 13.2608L2.69554 13.7488C2.51828 13.8034 2.32732 13.7971 2.15416 13.7311C1.98101 13.6651 1.83602 13.5432 1.74312 13.3856L0.109473 10.6144C0.0165291 10.4568 -0.0187468 10.2728 0.00946953 10.0929C0.0376859 9.91296 0.127707 9.74785 0.264669 9.6248L1.48746 8.5264C1.45829 8.17605 1.45829 7.82395 1.48746 7.4736L0.264669 6.376C0.127707 6.25295 0.0376859 6.08784 0.00946953 5.90792C-0.0187468 5.728 0.0165291 5.54403 0.109473 5.3864L1.74312 2.6152C1.83602 2.45759 1.98101 2.33571 2.15416 2.26968C2.32732 2.20365 2.51828 2.19741 2.69554 2.252L4.27773 2.74C4.57179 2.54 4.883 2.364 5.20891 2.212L5.56831 0.628L5.56913 0.6264ZM8 10.4C8.64991 10.4 9.27319 10.1471 9.73275 9.69706C10.1923 9.24697 10.4505 8.63652 10.4505 8C10.4505 7.36348 10.1923 6.75303 9.73275 6.30294C9.27319 5.85286 8.64991 5.6 8 5.6C7.35009 5.6 6.72681 5.85286 6.26725 6.30294C5.8077 6.75303 5.54953 7.36348 5.54953 8C5.54953 8.63652 5.8077 9.24697 6.26725 9.69706C6.72681 10.1471 7.35009 10.4 8 10.4V10.4Z" fill="black"/>
</svg>
