<svg width="18" height="15" viewBox="0 0 18 15" fill="none" xmlns="http://www.w3.org/2000/svg">
<path d="M5.35947 9.18831C5.74926 9.27027 6.14675 9.31002 6.54505 9.30687C8.28548 9.31167 9.96925 8.68867 11.2874 7.5522C12.9231 6.06513 14.1204 4.15852 14.7493 2.03922L15.7334 4.14956C15.7659 4.22657 15.8203 4.29235 15.8898 4.33871C15.9594 4.38508 16.041 4.41001 16.1246 4.41039C16.1866 4.42818 16.2523 4.42818 16.3143 4.41039C16.3675 4.38744 16.4154 4.35391 16.4552 4.31185C16.4949 4.26979 16.5257 4.22008 16.5457 4.16573C16.5657 4.11139 16.5744 4.05355 16.5713 3.99574C16.5682 3.93793 16.5534 3.88135 16.5277 3.82945L15.2117 0.877338C15.1625 0.772179 15.0747 0.690055 14.9665 0.648088C14.8582 0.60612 14.738 0.607549 14.6308 0.652077L11.406 2.07478C11.2999 2.12627 11.2176 2.2163 11.1757 2.32648C11.1338 2.43666 11.1356 2.55867 11.1807 2.66758C11.2039 2.72068 11.2373 2.76867 11.2791 2.80878C11.3209 2.84889 11.3702 2.88033 11.4242 2.90127C11.4782 2.92221 11.5359 2.93225 11.5938 2.9308C11.6517 2.92936 11.7087 2.91645 11.7616 2.89284L13.8601 1.96808C13.2618 3.84589 12.1876 5.53685 10.742 6.87642C10.0407 7.48429 9.21344 7.92927 8.31967 8.17936C7.4259 8.42945 6.48783 8.47845 5.57287 8.32283C5.51297 8.29834 5.44849 8.28703 5.38382 8.28969C5.31916 8.29235 5.25582 8.30891 5.19813 8.33825C5.14044 8.36758 5.08975 8.409 5.0495 8.45969C5.00926 8.51038 4.98041 8.56914 4.96491 8.63198C4.94942 8.69481 4.94765 8.76025 4.95971 8.82384C4.97178 8.88742 4.99741 8.94766 5.03485 9.00046C5.07229 9.05325 5.12066 9.09735 5.17668 9.12977C5.2327 9.16219 5.29504 9.18216 5.35947 9.18831V9.18831Z" fill="black"/>
<path d="M16.4803 13.409H5.80997C4.49768 13.3996 3.24269 12.8701 2.32031 11.9366C1.39793 11.0031 0.883468 9.74185 0.889781 8.42953V0.450523C0.891365 0.391927 0.881189 0.333607 0.859854 0.279009C0.83852 0.224412 0.806459 0.174644 0.765566 0.132645C0.724673 0.0906473 0.675778 0.0572712 0.621768 0.0344884C0.567759 0.0117056 0.509731 -2.13838e-05 0.451113 2.92717e-08C0.331627 2.92717e-08 0.217034 0.0474656 0.132545 0.131955C0.0480551 0.216445 0.000589262 0.331037 0.000589262 0.450523V8.42953C-0.0104092 9.20406 0.132654 9.97304 0.421462 10.6918C0.71027 11.4105 1.13906 12.0647 1.68291 12.6163C2.22677 13.1679 2.87483 13.6058 3.58944 13.9048C4.30404 14.2037 5.07094 14.3576 5.84554 14.3575H16.5158C16.5803 14.368 16.6463 14.3645 16.7092 14.347C16.7722 14.3295 16.8306 14.2985 16.8804 14.2562C16.9301 14.2139 16.9701 14.1613 16.9976 14.102C17.025 14.0428 17.0392 13.9782 17.0392 13.9129C17.0392 13.8476 17.025 13.783 16.9976 13.7237C16.9701 13.6644 16.9301 13.6118 16.8804 13.5695C16.8306 13.5272 16.7722 13.4963 16.7092 13.4788C16.6463 13.4613 16.5803 13.4577 16.5158 13.4683L16.4803 13.409Z" fill="black"/>
</svg>
