<svg width="22" height="14" viewBox="0 0 22 14" fill="none" xmlns="http://www.w3.org/2000/svg">
<path d="M4.13602 0.950002C4.13602 1.258 4.37802 1.5 4.68602 1.5H20.9C21.208 1.5 21.45 1.258 21.45 0.950002C21.45 0.642002 21.208 0.400002 20.9 0.400002H4.68602C4.37802 0.400002 4.13602 0.642002 4.13602 0.950002Z" fill="black"/>
<path d="M4.68602 7.55H20.9C21.208 7.55 21.45 7.308 21.45 7C21.45 6.692 21.208 6.45 20.9 6.45H4.68602C4.37802 6.45 4.13602 6.692 4.13602 7C4.13602 7.308 4.37802 7.55 4.68602 7.55Z" fill="black"/>
<path d="M4.68602 13.6H20.9C21.208 13.6 21.45 13.358 21.45 13.05C21.45 12.742 21.208 12.5 20.9 12.5H4.68602C4.37802 12.5 4.13602 12.742 4.13602 13.05C4.13602 13.358 4.37802 13.6 4.68602 13.6Z" fill="black"/>
<path d="M1.36401 0.290003C0.902011 0.202003 0.484013 0.598004 0.572013 1.082C0.616013 1.346 0.836012 1.566 1.10001 1.61C1.56201 1.698 1.98001 1.302 1.89201 0.818001C1.84801 0.554001 1.62801 0.356003 1.36401 0.290003Z" fill="black"/>
<path d="M1.36401 6.34C0.902011 6.252 0.484013 6.648 0.572013 7.132C0.616013 7.396 0.836012 7.616 1.10001 7.66C1.56201 7.748 1.98001 7.352 1.89201 6.868C1.84801 6.604 1.62801 6.384 1.36401 6.34Z" fill="black"/>
<path d="M1.36401 12.39C0.902011 12.302 0.484013 12.698 0.572013 13.182C0.616013 13.446 0.836012 13.666 1.10001 13.71C1.56201 13.798 1.98001 13.402 1.89201 12.918C1.84801 12.654 1.62801 12.434 1.36401 12.39Z" fill="black"/>
</svg>
