<svg width="17" height="18" viewBox="0 0 17 18" fill="none" xmlns="http://www.w3.org/2000/svg">
<path d="M9.34971 15.3108C9.81923 15.3108 10.1998 15.6914 10.1998 16.161C10.1998 16.6305 9.81923 17.0111 9.34971 17.0111C8.88019 17.0111 8.49957 16.6305 8.49957 16.161C8.49957 15.6914 8.88019 15.3108 9.34971 15.3108ZM6.37423 14.4607C6.84375 14.4607 7.22437 14.8413 7.22437 15.3108C7.22437 15.7803 6.84375 16.161 6.37423 16.161C5.90471 16.161 5.52409 15.7803 5.52409 15.3108C5.52409 14.8413 5.90471 14.4607 6.37423 14.4607ZM12.3252 14.4607C12.7947 14.4607 13.1753 14.8413 13.1753 15.3108C13.1753 15.7803 12.7947 16.161 12.3252 16.161C11.8557 16.161 11.4751 15.7803 11.4751 15.3108C11.4751 14.8413 11.8557 14.4607 12.3252 14.4607ZM9.34924 3.39968C12.0429 3.39968 13.571 5.18267 13.7932 7.33592L13.8612 7.33592C15.5947 7.33592 17 8.73756 17 10.4666C17 12.1956 15.5947 13.5972 13.8612 13.5972H4.83725C3.10376 13.5972 1.69848 12.1956 1.69848 10.4666C1.69848 8.73756 3.10376 7.33592 4.83727 7.33592L4.90523 7.33592C5.12877 5.16851 6.65555 3.39968 9.34924 3.39968ZM9.34924 4.4603C7.538 4.4603 5.9593 5.92592 5.9593 7.95036C5.9593 8.27113 5.6804 8.52283 5.36105 8.52282L4.7572 8.5228C3.65454 8.5228 2.76066 9.42132 2.76066 10.5297C2.76066 11.6381 3.65454 12.5366 4.7572 12.5366H13.9413C15.0439 12.5366 15.9378 11.6381 15.9378 10.5297C15.9378 9.42132 15.0439 8.5228 13.9413 8.5228L13.3374 8.52282C13.0181 8.52283 12.7392 8.27113 12.7392 7.95036C12.7392 5.89995 11.1605 4.4603 9.34924 4.4603ZM1.99962 6.9251C2.10435 7.17795 1.99833 7.46552 1.76243 7.59253L1.71355 7.61573L0.73101 8.02454C0.4613 8.13626 0.152092 8.00818 0.0403748 7.73847C-0.0643603 7.48562 0.0416624 7.19805 0.277558 7.07104L0.326445 7.04784L1.30898 6.63903C1.57869 6.52731 1.8879 6.65539 1.99962 6.9251ZM7.52546 2.82686L7.49953 2.83519C7.10648 2.96353 6.74117 3.13359 6.40671 3.34109C5.85064 3.10582 5.20399 3.085 4.60186 3.33441C3.40897 3.82853 2.8425 5.19611 3.33661 6.389C3.38486 6.50548 3.44143 6.61598 3.50536 6.72011C3.18284 6.83536 2.87956 6.99146 2.6016 7.18214C2.5265 7.05343 2.45933 6.91811 2.40074 6.77665C1.69253 5.06689 2.50445 3.10674 4.21421 2.39854C5.3553 1.92588 6.60791 2.13032 7.52546 2.82686ZM0.669915 2.90332L0.723893 2.92278L1.70955 3.34311C1.97725 3.45622 2.10566 3.76622 1.99635 4.03551C1.89433 4.28684 1.62128 4.41387 1.36768 4.33772L1.3137 4.31827L0.328046 3.89794C0.06034 3.78482 -0.0680655 3.47483 0.0412445 3.20554C0.143267 2.95421 0.416308 2.82718 0.669915 2.90332ZM3.80197 0.279102L3.8253 0.328243L4.23356 1.30842C4.34585 1.57953 4.21711 1.89034 3.946 2.00264C3.69183 2.10792 3.40277 2.00135 3.2751 1.76423L3.25178 1.71508L2.84352 0.73491C2.73122 0.463799 2.85996 0.152984 3.13107 0.0406864C3.38524 -0.0645929 3.6743 0.0419807 3.80197 0.279102ZM7.64814 0.0410236C7.90391 0.146969 8.03433 0.427715 7.95829 0.687485L7.9388 0.742757L7.51742 1.71008C7.4039 1.98413 7.08973 2.11426 6.81568 2.00075C6.55991 1.8948 6.42949 1.61406 6.50553 1.35429L6.52501 1.29902L6.9464 0.331691C7.05992 0.057647 7.37409 -0.0724891 7.64814 0.0410236Z" fill="#212121"/>
</svg>
