<svg width="17" height="17" viewBox="0 0 17 17" fill="none" xmlns="http://www.w3.org/2000/svg">
<path fill-rule="evenodd" clip-rule="evenodd" d="M4.02632 0C1.80379 0 0 1.80379 0 4.02632C0 6.24884 1.80379 8.05263 4.02632 8.05263C6.24884 8.05263 8.05263 6.24884 8.05263 4.02632C8.05263 1.80379 6.24884 0 4.02632 0ZM4.02632 0.894737C5.75495 0.894737 7.15789 2.29768 7.15789 4.02632C7.15789 5.75495 5.75495 7.15789 4.02632 7.15789C2.29768 7.15789 0.894737 5.75495 0.894737 4.02632C0.894737 2.29768 2.29768 0.894737 4.02632 0.894737Z" fill="black"/>
<path fill-rule="evenodd" clip-rule="evenodd" d="M4.02632 8.94736C1.80379 8.94736 0 10.7512 0 12.9737C0 15.1962 1.80379 17 4.02632 17C6.24884 17 8.05263 15.1962 8.05263 12.9737C8.05263 10.7512 6.24884 8.94736 4.02632 8.94736ZM4.02632 9.8421C5.75495 9.8421 7.15789 11.245 7.15789 12.9737C7.15789 14.7023 5.75495 16.1053 4.02632 16.1053C2.29768 16.1053 0.894737 14.7023 0.894737 12.9737C0.894737 11.245 2.29768 9.8421 4.02632 9.8421Z" fill="black"/>
<path fill-rule="evenodd" clip-rule="evenodd" d="M12.9737 0C10.7511 0 8.94736 1.80379 8.94736 4.02632C8.94736 6.24884 10.7511 8.05263 12.9737 8.05263C15.1962 8.05263 17 6.24884 17 4.02632C17 1.80379 15.1962 0 12.9737 0ZM12.9737 0.894737C14.7023 0.894737 16.1053 2.29768 16.1053 4.02632C16.1053 5.75495 14.7023 7.15789 12.9737 7.15789C11.245 7.15789 9.84209 5.75495 9.84209 4.02632C9.84209 2.29768 11.245 0.894737 12.9737 0.894737Z" fill="black"/>
<path fill-rule="evenodd" clip-rule="evenodd" d="M12.9737 8.94736C10.7511 8.94736 8.94736 10.7512 8.94736 12.9737C8.94736 15.1962 10.7511 17 12.9737 17C15.1962 17 17 15.1962 17 12.9737C17 10.7512 15.1962 8.94736 12.9737 8.94736ZM12.9737 9.8421C14.7023 9.8421 16.1053 11.245 16.1053 12.9737C16.1053 14.7023 14.7023 16.1053 12.9737 16.1053C11.245 16.1053 9.84209 14.7023 9.84209 12.9737C9.84209 11.245 11.245 9.8421 12.9737 9.8421Z" fill="black"/>
<path fill-rule="evenodd" clip-rule="evenodd" d="M10.4434 13.4211H15.504C15.7509 13.4211 15.9514 13.2206 15.9514 12.9737C15.9514 12.7267 15.7509 12.5263 15.504 12.5263H10.4434C10.1964 12.5263 9.996 12.7267 9.996 12.9737C9.996 13.2206 10.1964 13.4211 10.4434 13.4211Z" fill="black"/>
<path fill-rule="evenodd" clip-rule="evenodd" d="M12.5263 10.4434V15.504C12.5263 15.7509 12.7267 15.9514 12.9737 15.9514C13.2206 15.9514 13.421 15.7509 13.421 15.504V10.4434C13.421 10.1964 13.2206 9.996 12.9737 9.996C12.7267 9.996 12.5263 10.1964 12.5263 10.4434Z" fill="black"/>
</svg>
