<svg width="19" height="19" viewBox="0 0 19 19" fill="none" xmlns="http://www.w3.org/2000/svg">
<path d="M19 9.5V18.2692C19 18.463 18.923 18.6489 18.786 18.786C18.6489 18.923 18.463 19 18.2692 19H0.730769C0.536957 19 0.351083 18.923 0.214037 18.786C0.0769915 18.6489 0 18.463 0 18.2692V0.730769C0 0.536957 0.0769915 0.351083 0.214037 0.214037C0.351083 0.0769915 0.536957 0 0.730769 0H9.5C9.69381 0 9.87969 0.0769915 10.0167 0.214037C10.1538 0.351083 10.2308 0.536957 10.2308 0.730769C10.2308 0.924581 10.1538 1.11046 10.0167 1.2475C9.87969 1.38455 9.69381 1.46154 9.5 1.46154H1.46154V17.5385H17.5385V9.5C17.5385 9.30619 17.6155 9.12031 17.7525 8.98327C17.8895 8.84622 18.0754 8.76923 18.2692 8.76923C18.463 8.76923 18.6489 8.84622 18.786 8.98327C18.923 9.12031 19 9.30619 19 9.5V9.5ZM5.45154 9.595L14.0965 0.942692C14.6218 0.417462 15.3341 0.12239 16.0769 0.12239C16.8197 0.12239 17.5321 0.417462 18.0573 0.942692C18.5825 1.46792 18.8776 2.18029 18.8776 2.92308C18.8776 3.66587 18.5825 4.37823 18.0573 4.90346L9.405 13.5485C9.32694 13.6272 9.23198 13.6872 9.12731 13.7238L4.62577 15.3023C4.54843 15.3304 4.4669 15.3452 4.38462 15.3462C4.26817 15.3457 4.15352 15.3174 4.05022 15.2637C3.94692 15.2099 3.85796 15.1323 3.79076 15.0372C3.72355 14.9421 3.68004 14.8323 3.66385 14.717C3.64766 14.6017 3.65926 14.4842 3.69769 14.3742L5.27615 9.87269C5.31279 9.76802 5.37276 9.67306 5.45154 9.595V9.595ZM5.57577 13.4242L8.49885 12.4012L17.0196 3.86577C17.2696 3.61575 17.4101 3.27666 17.4101 2.92308C17.4101 2.5695 17.2696 2.2304 17.0196 1.98038C16.7696 1.73037 16.4305 1.58991 16.0769 1.58991C15.7233 1.58991 15.3842 1.73037 15.1342 1.98038L6.57692 10.5085L5.57577 13.4242Z" fill="#464646"/>
</svg>
